<?xml version="1.0" encoding="UTF-8"?>
<svg width="226px" height="56px" viewBox="0 0 226 56" version="1.1" xmlns="http://www.w3.org/2000/svg" xmlns:xlink="http://www.w3.org/1999/xlink">
    <!-- Generator: Sketch 63.1 (92452) - https://sketch.com -->
    <title>Group 9 Copy</title>
    <desc>Created with Sketch.</desc>
    <g id="Design" stroke="none" stroke-width="1" fill="none" fill-rule="evenodd">
        <g id="1.-Dashboard" transform="translate(-1678.000000, -850.000000)">
            <g id="Group-9-Copy" transform="translate(1678.000000, 850.000000)">
                <rect id="Rectangle" fill="#F79028" x="0" y="0" width="226" height="56"></rect>
                <g id="Group-22" transform="translate(24.000000, 12.000000)">
                    <g id="Group-21">
                        <circle id="Oval" fill="#FFFFFF" cx="16" cy="16" r="16"></circle>
                        <path d="M17.886,18.632 C17.666,16.212 20.878,15.508 20.878,12.868 C20.878,10.096 18.942,8.996 16.522,8.996 C14.762,8.996 13.244,9.832 12.166,11.064 L14.234,12.956 C14.806,12.428 15.29,12.032 16.038,12.032 C16.698,12.032 17.27,12.34 17.27,13.132 C17.27,14.54 14.146,15.772 14.586,18.632 L17.886,18.632 Z M16.214,24.264 C17.49,24.264 18.414,23.252 18.414,21.976 C18.414,20.7 17.49,19.688 16.214,19.688 C14.938,19.688 14.014,20.7 14.014,21.976 C14.014,23.252 14.938,24.264 16.214,24.264 Z" id="?" fill="#F79028" fill-rule="nonzero"></path>
                    </g>
                    <path d="M47.703,23 L47.703,18.68 L49.395,18.68 C51.933,18.68 53.877,17.474 53.877,14.864 C53.877,12.128 51.933,11.228 49.323,11.228 L45.615,11.228 L45.615,23 L47.703,23 Z M49.233,17.006 L47.703,17.006 L47.703,12.902 L49.161,12.902 C50.907,12.902 51.825,13.388 51.825,14.864 C51.825,16.304 50.979,17.006 49.233,17.006 Z M57.981,23 L57.981,17.6 C58.521,16.268 59.367,15.782 60.069,15.782 C60.447,15.782 60.681,15.836 60.987,15.926 L61.347,14.126 C61.077,14 60.789,13.946 60.339,13.946 C59.403,13.946 58.467,14.576 57.837,15.728 L57.765,15.728 L57.621,14.162 L55.911,14.162 L55.911,23 L57.981,23 Z M66.225,23.216 C67.341,23.216 68.403,22.82 69.249,22.262 L68.547,20.966 C67.899,21.38 67.251,21.614 66.495,21.614 C65.073,21.614 64.065,20.714 63.885,19.148 L69.501,19.148 C69.555,18.932 69.591,18.536 69.591,18.14 C69.591,15.674 68.331,13.946 65.937,13.946 C63.867,13.946 61.869,15.71 61.869,18.59 C61.869,21.506 63.777,23.216 66.225,23.216 Z M67.791,17.744 L63.867,17.744 C64.047,16.322 64.947,15.548 65.991,15.548 C67.197,15.548 67.791,16.376 67.791,17.744 Z M75.261,23.216 C76.269,23.216 77.313,22.856 78.141,22.136 L77.295,20.768 C76.791,21.182 76.161,21.524 75.477,21.524 C74.091,21.524 73.119,20.354 73.119,18.59 C73.119,16.808 74.109,15.638 75.531,15.638 C76.089,15.638 76.539,15.872 77.007,16.286 L78.015,14.936 C77.367,14.378 76.557,13.946 75.423,13.946 C73.065,13.946 70.995,15.638 70.995,18.59 C70.995,21.524 72.849,23.216 75.261,23.216 Z M80.931,12.614 C81.669,12.614 82.209,12.128 82.209,11.444 C82.209,10.742 81.669,10.256 80.931,10.256 C80.193,10.256 79.653,10.742 79.653,11.444 C79.653,12.128 80.193,12.614 80.931,12.614 Z M81.957,23 L81.957,14.162 L79.887,14.162 L79.887,23 L81.957,23 Z M87.069,23.216 C89.301,23.216 90.507,21.992 90.507,20.48 C90.507,18.824 89.175,18.248 87.969,17.798 C87.015,17.456 86.133,17.186 86.133,16.484 C86.133,15.926 86.547,15.512 87.429,15.512 C88.131,15.512 88.761,15.818 89.373,16.268 L90.327,15.008 C89.607,14.45 88.617,13.946 87.393,13.946 C85.413,13.946 84.171,15.044 84.171,16.592 C84.171,18.068 85.485,18.734 86.655,19.166 C87.591,19.526 88.545,19.85 88.545,20.588 C88.545,21.2 88.095,21.65 87.141,21.65 C86.241,21.65 85.485,21.272 84.693,20.66 L83.721,21.992 C84.585,22.694 85.863,23.216 87.069,23.216 Z M94.503,23.216 C95.547,23.216 96.447,22.694 97.239,22.028 L97.311,22.028 L97.455,23 L99.165,23 L99.165,17.762 C99.165,15.296 98.067,13.946 95.871,13.946 C94.467,13.946 93.207,14.486 92.235,15.098 L92.991,16.484 C93.783,16.016 94.611,15.62 95.475,15.62 C96.681,15.62 97.059,16.412 97.095,17.348 C93.459,17.744 91.893,18.734 91.893,20.624 C91.893,22.172 92.955,23.216 94.503,23.216 Z M95.169,21.596 C94.431,21.596 93.891,21.254 93.891,20.462 C93.891,19.58 94.683,18.95 97.095,18.644 L97.095,20.624 C96.429,21.236 95.889,21.596 95.169,21.596 Z M108.345,23.216 C109.299,23.216 110.199,22.694 110.847,22.046 L110.919,22.046 L111.063,23 L112.773,23 L112.773,10.292 L110.703,10.292 L110.703,13.496 L110.775,14.918 C110.091,14.324 109.461,13.946 108.453,13.946 C106.527,13.946 104.709,15.71 104.709,18.59 C104.709,21.506 106.131,23.216 108.345,23.216 Z M108.849,21.506 C107.571,21.506 106.851,20.48 106.851,18.572 C106.851,16.718 107.769,15.656 108.903,15.656 C109.497,15.656 110.091,15.854 110.703,16.394 L110.703,20.516 C110.109,21.2 109.533,21.506 108.849,21.506 Z M119.181,23.216 C120.297,23.216 121.359,22.82 122.205,22.262 L121.503,20.966 C120.855,21.38 120.207,21.614 119.451,21.614 C118.029,21.614 117.021,20.714 116.841,19.148 L122.457,19.148 C122.511,18.932 122.547,18.536 122.547,18.14 C122.547,15.674 121.287,13.946 118.893,13.946 C116.823,13.946 114.825,15.71 114.825,18.59 C114.825,21.506 116.733,23.216 119.181,23.216 Z M120.747,17.744 L116.823,17.744 C117.003,16.322 117.903,15.548 118.947,15.548 C120.153,15.548 120.747,16.376 120.747,17.744 Z M130.269,23.216 C131.313,23.216 132.213,22.694 133.005,22.028 L133.077,22.028 L133.221,23 L134.931,23 L134.931,17.762 C134.931,15.296 133.833,13.946 131.637,13.946 C130.233,13.946 128.973,14.486 128.001,15.098 L128.757,16.484 C129.549,16.016 130.377,15.62 131.241,15.62 C132.447,15.62 132.825,16.412 132.861,17.348 C129.225,17.744 127.659,18.734 127.659,20.624 C127.659,22.172 128.721,23.216 130.269,23.216 Z M130.935,21.596 C130.197,21.596 129.657,21.254 129.657,20.462 C129.657,19.58 130.449,18.95 132.861,18.644 L132.861,20.624 C132.195,21.236 131.655,21.596 130.935,21.596 Z M138.477,12.614 C139.215,12.614 139.773,12.128 139.773,11.444 C139.773,10.742 139.215,10.256 138.477,10.256 C137.757,10.256 137.199,10.742 137.199,11.444 C137.199,12.128 137.757,12.614 138.477,12.614 Z M136.713,26.708 C138.801,26.708 139.521,25.322 139.521,23.45 L139.521,14.162 L137.433,14.162 L137.433,23.486 C137.433,24.512 137.217,25.07 136.425,25.07 C136.155,25.07 135.903,24.998 135.669,24.926 L135.273,26.474 C135.615,26.6 136.065,26.708 136.713,26.708 Z M144.777,23.216 C145.983,23.216 146.847,22.622 147.621,21.704 L147.675,21.704 L147.837,23 L149.529,23 L149.529,14.162 L147.459,14.162 L147.459,20.21 C146.793,21.074 146.271,21.434 145.497,21.434 C144.543,21.434 144.129,20.894 144.129,19.436 L144.129,14.162 L142.059,14.162 L142.059,19.706 C142.059,21.938 142.887,23.216 144.777,23.216 Z M155.253,23.216 C156.207,23.216 157.107,22.694 157.755,22.046 L157.827,22.046 L157.971,23 L159.681,23 L159.681,10.292 L157.611,10.292 L157.611,13.496 L157.683,14.918 C156.999,14.324 156.369,13.946 155.361,13.946 C153.435,13.946 151.617,15.71 151.617,18.59 C151.617,21.506 153.039,23.216 155.253,23.216 Z M155.757,21.506 C154.479,21.506 153.759,20.48 153.759,18.572 C153.759,16.718 154.677,15.656 155.811,15.656 C156.405,15.656 156.999,15.854 157.611,16.394 L157.611,20.516 C157.017,21.2 156.441,21.506 155.757,21.506 Z M164.451,23.216 C165.495,23.216 166.395,22.694 167.187,22.028 L167.259,22.028 L167.403,23 L169.113,23 L169.113,17.762 C169.113,15.296 168.015,13.946 165.819,13.946 C164.415,13.946 163.155,14.486 162.183,15.098 L162.939,16.484 C163.731,16.016 164.559,15.62 165.423,15.62 C166.629,15.62 167.007,16.412 167.043,17.348 C163.407,17.744 161.841,18.734 161.841,20.624 C161.841,22.172 162.903,23.216 164.451,23.216 Z M165.117,21.596 C164.379,21.596 163.839,21.254 163.839,20.462 C163.839,19.58 164.631,18.95 167.043,18.644 L167.043,20.624 C166.377,21.236 165.837,21.596 165.117,21.596 Z M174.531,19.13 C174.279,16.808 177.087,15.998 177.087,13.712 C177.087,11.75 175.737,10.724 173.865,10.724 C172.515,10.724 171.399,11.372 170.607,12.29 L171.759,13.352 C172.281,12.776 172.875,12.416 173.613,12.416 C174.531,12.416 175.071,12.992 175.071,13.856 C175.071,15.476 172.335,16.502 172.713,19.13 L174.531,19.13 Z M173.631,23.216 C174.387,23.216 174.981,22.622 174.981,21.812 C174.981,21.002 174.387,20.408 173.631,20.408 C172.875,20.408 172.299,21.002 172.299,21.812 C172.299,22.622 172.875,23.216 173.631,23.216 Z" id="Precisadeajuda?" fill="#FFFFFF" fill-rule="nonzero"></path>
                </g>
            </g>
        </g>
    </g>
</svg>