<?xml version="1.0" encoding="UTF-8"?>
<svg width="275px" height="161px" viewBox="0 0 275 161" version="1.1" xmlns="http://www.w3.org/2000/svg" xmlns:xlink="http://www.w3.org/1999/xlink">
    <!-- Generator: Sketch 63.1 (92452) - https://sketch.com -->
    <title>Rectangle</title>
    <desc>Created with Sketch.</desc>
    <g id="Design" stroke="none" stroke-width="1" fill="none" fill-rule="evenodd">
        <g id="1.-Dashboard" transform="translate(-700.000000, -774.000000)">
            <g id="Group-8-Copy" transform="translate(602.000000, 746.000000)">
                <g id="Group-11" transform="translate(98.000000, 28.000000)">
                    <g id="Group-19" transform="translate(6.000000, 0.000000)">
                        <g id="Group-18">
                            <circle id="Oval" fill="#224D74" cx="80.5" cy="80.5" r="80.5"></circle>
                            <path d="M80.9294104,4.34916859e-15 C125.157924,0.269376388 160.928729,36.2065665 160.928729,80.4984756 C160.928729,124.957398 124.887651,160.998476 80.4287286,160.998476 C43.6335041,160.998476 12.6041644,136.311788 3,102.597704 L80.9287286,80.4984756 Z" id="Combined-Shape" fill="#5F9BD1"></path>
                            <path d="M81.0006819,-9.51270313e-14 C125.229196,0.269376388 161,36.2065665 161,80.4984756 C161,106.041272 149.103566,128.805508 130.549151,143.55273 L81,80.9984756 Z" id="Combined-Shape" fill="#F79028"></path>
                            <path d="M81,81 L130.548152,143.555048 C117.285398,154.096067 100.620927,160.540902 82.467875,160.976418 L81,81 Z" id="Combined-Shape" fill="#44A741"></path>
                            <path d="M41.796,55 L41.796,53.016 L39.748,53.016 C39.268,53.016 38.564,53.08 38.052,53.144 C39.7,51.416 41.3,49.592 41.3,47.88 C41.3,45.928 39.94,44.648 37.94,44.648 C36.484,44.648 35.54,45.192 34.532,46.264 L35.812,47.528 C36.324,46.984 36.884,46.488 37.62,46.488 C38.5,46.488 39.06,47.032 39.06,48.024 C39.06,49.464 37.236,51.208 34.644,53.656 L34.644,55 L41.796,55 Z M46.724,55.192 C48.9,55.192 50.356,53.336 50.356,49.88 C50.356,46.424 48.9,44.648 46.724,44.648 C44.548,44.648 43.092,46.424 43.092,49.88 C43.092,53.336 44.548,55.192 46.724,55.192 Z M46.724,53.368 C45.94,53.368 45.316,52.648 45.316,49.88 C45.316,47.096 45.94,46.472 46.724,46.472 C47.524,46.472 48.132,47.096 48.132,49.88 C48.132,52.648 47.524,53.368 46.724,53.368 Z" id="20" fill="#FFFFFF" fill-rule="nonzero"></path>
                            <path d="M49.636,126 L49.636,124.096 L47.732,124.096 L47.732,115.84 L46.004,115.84 C45.284,116.272 44.58,116.56 43.476,116.768 L43.476,118.224 L45.38,118.224 L45.38,124.096 L43.172,124.096 L43.172,126 L49.636,126 Z M57.396,126 L57.396,123.568 L58.564,123.568 L58.564,121.776 L57.396,121.776 L57.396,115.84 L54.516,115.84 L50.804,121.952 L50.804,123.568 L55.204,123.568 L55.204,126 L57.396,126 Z M55.204,121.776 L53.06,121.776 L54.404,119.568 C54.692,118.992 54.98,118.416 55.236,117.856 L55.3,117.856 C55.268,118.496 55.204,119.472 55.204,120.128 L55.204,121.776 Z" id="14" fill="#FFFFFF" fill-rule="nonzero"></path>
                            <path d="M126.296,68 L126.296,66.016 L124.248,66.016 C123.768,66.016 123.064,66.08 122.552,66.144 C124.2,64.416 125.8,62.592 125.8,60.88 C125.8,58.928 124.44,57.648 122.44,57.648 C120.984,57.648 120.04,58.192 119.032,59.264 L120.312,60.528 C120.824,59.984 121.384,59.488 122.12,59.488 C123,59.488 123.56,60.032 123.56,61.024 C123.56,62.464 121.736,64.208 119.144,66.656 L119.144,68 L126.296,68 Z M133.896,68 L133.896,65.568 L135.064,65.568 L135.064,63.776 L133.896,63.776 L133.896,57.84 L131.016,57.84 L127.304,63.952 L127.304,65.568 L131.704,65.568 L131.704,68 L133.896,68 Z M131.704,63.776 L129.56,63.776 L130.904,61.568 C131.192,60.992 131.48,60.416 131.736,59.856 L131.8,59.856 C131.768,60.496 131.704,61.472 131.704,62.128 L131.704,63.776 Z" id="24" fill="#FFFFFF" fill-rule="nonzero"></path>
                            <path d="M99.272,134.192 C101.112,134.192 102.648,132.896 102.648,130.784 C102.648,128.64 101.368,127.648 99.624,127.648 C99,127.648 98.12,128.048 97.592,128.72 C97.672,126.352 98.568,125.552 99.688,125.552 C100.28,125.552 100.92,125.888 101.272,126.272 L102.504,124.864 C101.864,124.208 100.888,123.648 99.544,123.648 C97.4,123.648 95.432,125.36 95.432,129.152 C95.432,132.72 97.304,134.192 99.272,134.192 Z M99.224,132.432 C98.52,132.432 97.848,131.92 97.64,130.32 C98.056,129.6 98.648,129.312 99.176,129.312 C99.944,129.312 100.504,129.712 100.504,130.784 C100.504,131.936 99.928,132.432 99.224,132.432 Z" id="6" fill="#FFFFFF" fill-rule="nonzero"></path>
                        </g>
                        <g id="Group-17" transform="translate(185.000000, 32.000000)">
                            <g id="Group-16" transform="translate(0.000000, 26.000000)" fill="#224D74">
                                <rect id="Rectangle" x="0" y="5" width="8" height="8" rx="4"></rect>
                                <path d="M13.624,14 L14.338,11.522 L17.418,11.522 L18.132,14 L19.84,14 L16.858,4.844 L14.954,4.844 L11.972,14 L13.624,14 Z M17.054,10.248 L14.716,10.248 L15.038,9.128 C15.332,8.162 15.598,7.126 15.85,6.104 L15.906,6.104 C16.172,7.112 16.438,8.162 16.732,9.128 L17.054,10.248 Z M22.444,16.716 L22.444,14.56 L22.402,13.412 C22.962,13.888 23.564,14.168 24.166,14.168 C25.692,14.168 27.106,12.81 27.106,10.458 C27.106,8.33 26.112,6.958 24.404,6.958 C23.648,6.958 22.906,7.364 22.332,7.854 L22.276,7.854 L22.164,7.126 L20.834,7.126 L20.834,16.716 L22.444,16.716 Z M23.83,12.838 C23.424,12.838 22.948,12.684 22.444,12.264 L22.444,9.058 C22.976,8.54 23.452,8.288 23.956,8.288 C24.992,8.288 25.44,9.1 25.44,10.472 C25.44,12.026 24.74,12.838 23.83,12.838 Z M30.34,14 L30.34,9.8 C30.76,8.764 31.418,8.386 31.964,8.386 C32.258,8.386 32.44,8.428 32.678,8.498 L32.958,7.098 C32.748,7 32.524,6.958 32.174,6.958 C31.446,6.958 30.718,7.448 30.228,8.344 L30.172,8.344 L30.06,7.126 L28.73,7.126 L28.73,14 L30.34,14 Z M36.626,14.168 C38.348,14.168 39.902,12.852 39.902,10.57 C39.902,8.274 38.348,6.958 36.626,6.958 C34.918,6.958 33.364,8.274 33.364,10.57 C33.364,12.852 34.918,14.168 36.626,14.168 Z M36.626,12.852 C35.618,12.852 35.016,11.942 35.016,10.57 C35.016,9.184 35.618,8.274 36.626,8.274 C37.634,8.274 38.25,9.184 38.25,10.57 C38.25,11.942 37.634,12.852 36.626,12.852 Z M44.816,14 L47.154,7.126 L45.6,7.126 L44.508,10.696 C44.312,11.368 44.116,12.068 43.92,12.768 L43.864,12.768 C43.682,12.068 43.472,11.368 43.29,10.696 L42.198,7.126 L40.56,7.126 L42.954,14 L44.816,14 Z M49.73,14.168 C50.542,14.168 51.242,13.762 51.858,13.244 L51.914,13.244 L52.026,14 L53.356,14 L53.356,9.926 C53.356,8.008 52.502,6.958 50.794,6.958 C49.702,6.958 48.722,7.378 47.966,7.854 L48.554,8.932 C49.17,8.568 49.814,8.26 50.486,8.26 C51.424,8.26 51.718,8.876 51.746,9.604 C48.918,9.912 47.7,10.682 47.7,12.152 C47.7,13.356 48.526,14.168 49.73,14.168 Z M50.248,12.908 C49.674,12.908 49.254,12.642 49.254,12.026 C49.254,11.34 49.87,10.85 51.746,10.612 L51.746,12.152 C51.228,12.628 50.808,12.908 50.248,12.908 Z M57.696,14.168 C58.438,14.168 59.138,13.762 59.642,13.258 L59.698,13.258 L59.81,14 L61.14,14 L61.14,4.116 L59.53,4.116 L59.53,6.608 L59.586,7.714 C59.054,7.252 58.564,6.958 57.78,6.958 C56.282,6.958 54.868,8.33 54.868,10.57 C54.868,12.838 55.974,14.168 57.696,14.168 Z M58.088,12.838 C57.094,12.838 56.534,12.04 56.534,10.556 C56.534,9.114 57.248,8.288 58.13,8.288 C58.592,8.288 59.054,8.442 59.53,8.862 L59.53,12.068 C59.068,12.6 58.62,12.838 58.088,12.838 Z M65.998,14.168 C67.72,14.168 69.274,12.852 69.274,10.57 C69.274,8.274 67.72,6.958 65.998,6.958 C64.29,6.958 62.736,8.274 62.736,10.57 C62.736,12.852 64.29,14.168 65.998,14.168 Z M65.998,12.852 C64.99,12.852 64.388,11.942 64.388,10.57 C64.388,9.184 64.99,8.274 65.998,8.274 C67.006,8.274 67.622,9.184 67.622,10.57 C67.622,11.942 67.006,12.852 65.998,12.852 Z M72.732,14.168 C74.468,14.168 75.406,13.216 75.406,12.04 C75.406,10.752 74.37,10.304 73.432,9.954 C72.69,9.688 72.004,9.478 72.004,8.932 C72.004,8.498 72.326,8.176 73.012,8.176 C73.558,8.176 74.048,8.414 74.524,8.764 L75.266,7.784 C74.706,7.35 73.936,6.958 72.984,6.958 C71.444,6.958 70.478,7.812 70.478,9.016 C70.478,10.164 71.5,10.682 72.41,11.018 L72.7001547,11.1293363 C73.3226756,11.3709244 73.88,11.6265333 73.88,12.124 C73.88,12.6 73.53,12.95 72.788,12.95 C72.088,12.95 71.5,12.656 70.884,12.18 L70.128,13.216 C70.8,13.762 71.794,14.168 72.732,14.168 Z" id="Aprovados" fill-rule="nonzero"></path>
                            </g>
                            <g id="Group-16-Copy" transform="translate(0.000000, 52.000000)" fill="#F79028">
                                <rect id="Rectangle" x="0" y="5" width="8" height="8" rx="4"></rect>
                                <path d="M18.818,14 L18.818,12.628 L14.786,12.628 L14.786,9.926 L18.076,9.926 L18.076,8.554 L14.786,8.554 L14.786,6.216 L18.678,6.216 L18.678,4.844 L13.162,4.844 L13.162,14 L18.818,14 Z M22.164,14 L22.164,9.198 C22.696,8.624 23.186,8.344 23.606,8.344 C24.334,8.344 24.67,8.764 24.67,9.898 L24.67,14 L26.28,14 L26.28,9.198 C26.812,8.624 27.288,8.344 27.722,8.344 C28.436,8.344 28.772,8.764 28.772,9.898 L28.772,14 L30.396,14 L30.396,9.688 C30.396,7.952 29.724,6.958 28.268,6.958 C27.4,6.958 26.714,7.49 26.056,8.19 C25.734,7.42 25.16,6.958 24.152,6.958 C23.298,6.958 22.626,7.448 22.052,8.064 L21.996,8.064 L21.884,7.126 L20.554,7.126 L20.554,14 L22.164,14 Z M35.758,14 L36.472,11.522 L39.552,11.522 L40.266,14 L41.974,14 L38.992,4.844 L37.088,4.844 L34.106,14 L35.758,14 Z M39.188,10.248 L36.85,10.248 L37.172,9.128 C37.466,8.162 37.732,7.126 37.984,6.104 L38.04,6.104 C38.306,7.112 38.572,8.162 38.866,9.128 L39.188,10.248 Z M44.578,14 L44.578,9.198 C45.152,8.638 45.544,8.344 46.146,8.344 C46.902,8.344 47.224,8.764 47.224,9.898 L47.224,14 L48.834,14 L48.834,9.688 C48.834,7.952 48.19,6.958 46.72,6.958 C45.782,6.958 45.082,7.448 44.466,8.05 L44.41,8.05 L44.298,7.126 L42.968,7.126 L42.968,14 L44.578,14 Z M53.524,5.978 L55.904,3.808 L54.784,2.744 L52.726,5.18 L53.524,5.978 Z M52.474,14.168 C53.286,14.168 53.986,13.762 54.602,13.244 L54.658,13.244 L54.77,14 L56.1,14 L56.1,9.926 C56.1,8.008 55.246,6.958 53.538,6.958 C52.446,6.958 51.466,7.378 50.71,7.854 L51.298,8.932 C51.914,8.568 52.558,8.26 53.23,8.26 C54.168,8.26 54.462,8.876 54.49,9.604 C51.662,9.912 50.444,10.682 50.444,12.152 C50.444,13.356 51.27,14.168 52.474,14.168 Z M52.992,12.908 C52.418,12.908 51.998,12.642 51.998,12.026 C51.998,11.34 52.614,10.85 54.49,10.612 L54.49,12.152 C53.972,12.628 53.552,12.908 52.992,12.908 Z M59.6,14.168 C59.978,14.168 60.258,14.112 60.454,14.028 L60.244,12.824 C60.118,12.852 60.062,12.852 59.992,12.852 C59.824,12.852 59.642,12.712 59.642,12.32 L59.642,4.116 L58.032,4.116 L58.032,12.236 C58.032,13.426 58.452,14.168 59.6,14.168 Z M62.638,5.922 C63.212,5.922 63.632,5.544 63.632,5.012 C63.632,4.466 63.212,4.088 62.638,4.088 C62.064,4.088 61.644,4.466 61.644,5.012 C61.644,5.544 62.064,5.922 62.638,5.922 Z M63.436,14 L63.436,7.126 L61.826,7.126 L61.826,14 L63.436,14 Z M67.412,14.168 C69.148,14.168 70.086,13.216 70.086,12.04 C70.086,10.752 69.05,10.304 68.112,9.954 C67.37,9.688 66.684,9.478 66.684,8.932 C66.684,8.498 67.006,8.176 67.692,8.176 C68.238,8.176 68.728,8.414 69.204,8.764 L69.946,7.784 C69.386,7.35 68.616,6.958 67.664,6.958 C66.124,6.958 65.158,7.812 65.158,9.016 C65.158,10.164 66.18,10.682 67.09,11.018 L67.3801547,11.1293363 C68.0026756,11.3709244 68.56,11.6265333 68.56,12.124 C68.56,12.6 68.21,12.95 67.468,12.95 C66.768,12.95 66.18,12.656 65.564,12.18 L64.808,13.216 C65.48,13.762 66.474,14.168 67.412,14.168 Z M74.468,14.168 C75.336,14.168 76.162,13.86 76.82,13.426 L76.274,12.418 C75.77,12.74 75.266,12.922 74.678,12.922 C73.572,12.922 72.788,12.222 72.648,11.004 L77.016,11.004 C77.058,10.836 77.086,10.528 77.086,10.22 C77.086,8.302 76.106,6.958 74.244,6.958 C72.634,6.958 71.08,8.33 71.08,10.57 C71.08,12.838 72.564,14.168 74.468,14.168 Z M75.686,9.912 L72.634,9.912 C72.774,8.806 73.474,8.204 74.286,8.204 C75.224,8.204 75.686,8.848 75.686,9.912 Z" id="EmAnálise" fill-rule="nonzero"></path>
                            </g>
                            <g id="Group-16-Copy-2" fill="#44A741">
                                <rect id="Rectangle" x="0" y="5" width="8" height="8" rx="4"></rect>
                                <path d="M18.818,14 L18.818,12.628 L14.786,12.628 L14.786,9.926 L18.076,9.926 L18.076,8.554 L14.786,8.554 L14.786,6.216 L18.678,6.216 L18.678,4.844 L13.162,4.844 L13.162,14 L18.818,14 Z M22.444,14 L22.444,8.4 L23.788,8.4 L23.788,7.126 L22.444,7.126 L22.444,6.384 C22.444,5.586 22.752,5.222 23.312,5.222 C23.55,5.222 23.816,5.278 24.068,5.39 L24.376,4.186 C24.068,4.06 23.606,3.948 23.116,3.948 C21.492,3.948 20.834,4.984 20.834,6.412 L20.834,7.126 L19.91,7.196 L19.91,8.4 L20.834,8.4 L20.834,14 L22.444,14 Z M27.792,14.168 C28.66,14.168 29.486,13.86 30.144,13.426 L29.598,12.418 C29.094,12.74 28.59,12.922 28.002,12.922 C26.896,12.922 26.112,12.222 25.972,11.004 L30.34,11.004 C30.382,10.836 30.41,10.528 30.41,10.22 C30.41,8.302 29.43,6.958 27.568,6.958 C25.958,6.958 24.404,8.33 24.404,10.57 C24.404,12.838 25.888,14.168 27.792,14.168 Z M29.01,9.912 L25.958,9.912 C26.098,8.806 26.798,8.204 27.61,8.204 C28.548,8.204 29.01,8.848 29.01,9.912 Z M34.232,14.168 C34.778,14.168 35.254,14.042 35.632,13.916 L35.352,12.726 C35.156,12.81 34.876,12.88 34.638,12.88 C33.98,12.88 33.672,12.488 33.672,11.676 L33.672,8.4 L35.422,8.4 L35.422,7.126 L33.672,7.126 L33.672,5.25 L32.328,5.25 L32.132,7.126 L31.068,7.196 L31.068,8.4 L32.048,8.4 L32.048,11.676 C32.048,13.16 32.636,14.168 34.232,14.168 Z M37.676,5.922 C38.25,5.922 38.67,5.544 38.67,5.012 C38.67,4.466 38.25,4.088 37.676,4.088 C37.102,4.088 36.682,4.466 36.682,5.012 C36.682,5.544 37.102,5.922 37.676,5.922 Z M38.474,14 L38.474,7.126 L36.864,7.126 L36.864,14 L38.474,14 Z M43.934,14 L46.272,7.126 L44.718,7.126 L43.626,10.696 C43.43,11.368 43.234,12.068 43.038,12.768 L42.982,12.768 C42.8,12.068 42.59,11.368 42.408,10.696 L41.316,7.126 L39.678,7.126 L42.072,14 L43.934,14 Z M48.848,14.168 C49.66,14.168 50.36,13.762 50.976,13.244 L51.032,13.244 L51.144,14 L52.474,14 L52.474,9.926 C52.474,8.008 51.62,6.958 49.912,6.958 C48.82,6.958 47.84,7.378 47.084,7.854 L47.672,8.932 C48.288,8.568 48.932,8.26 49.604,8.26 C50.542,8.26 50.836,8.876 50.864,9.604 C48.036,9.912 46.818,10.682 46.818,12.152 C46.818,13.356 47.644,14.168 48.848,14.168 Z M49.366,12.908 C48.792,12.908 48.372,12.642 48.372,12.026 C48.372,11.34 48.988,10.85 50.864,10.612 L50.864,12.152 C50.346,12.628 49.926,12.908 49.366,12.908 Z M56.814,14.168 C57.556,14.168 58.256,13.762 58.76,13.258 L58.816,13.258 L58.928,14 L60.258,14 L60.258,4.116 L58.648,4.116 L58.648,6.608 L58.704,7.714 C58.172,7.252 57.682,6.958 56.898,6.958 C55.4,6.958 53.986,8.33 53.986,10.57 C53.986,12.838 55.092,14.168 56.814,14.168 Z M57.206,12.838 C56.212,12.838 55.652,12.04 55.652,10.556 C55.652,9.114 56.366,8.288 57.248,8.288 C57.71,8.288 58.172,8.442 58.648,8.862 L58.648,12.068 C58.186,12.6 57.738,12.838 57.206,12.838 Z M63.968,14.168 C64.78,14.168 65.48,13.762 66.096,13.244 L66.152,13.244 L66.264,14 L67.594,14 L67.594,9.926 C67.594,8.008 66.74,6.958 65.032,6.958 C63.94,6.958 62.96,7.378 62.204,7.854 L62.792,8.932 C63.408,8.568 64.052,8.26 64.724,8.26 C65.662,8.26 65.956,8.876 65.984,9.604 C63.156,9.912 61.938,10.682 61.938,12.152 C61.938,13.356 62.764,14.168 63.968,14.168 Z M64.486,12.908 C63.912,12.908 63.492,12.642 63.492,12.026 C63.492,11.34 64.108,10.85 65.984,10.612 L65.984,12.152 C65.466,12.628 65.046,12.908 64.486,12.908 Z M71.444,14.168 C73.18,14.168 74.118,13.216 74.118,12.04 C74.118,10.752 73.082,10.304 72.144,9.954 C71.402,9.688 70.716,9.478 70.716,8.932 C70.716,8.498 71.038,8.176 71.724,8.176 C72.27,8.176 72.76,8.414 73.236,8.764 L73.978,7.784 C73.418,7.35 72.648,6.958 71.696,6.958 C70.156,6.958 69.19,7.812 69.19,9.016 C69.19,10.164 70.212,10.682 71.122,11.018 L71.4121547,11.1293363 C72.0346756,11.3709244 72.592,11.6265333 72.592,12.124 C72.592,12.6 72.242,12.95 71.5,12.95 C70.8,12.95 70.212,12.656 69.596,12.18 L68.84,13.216 C69.512,13.762 70.506,14.168 71.444,14.168 Z" id="Efetivadas" fill-rule="nonzero"></path>
                            </g>
                            <g id="Group-16-Copy-3" transform="translate(0.000000, 78.000000)" fill="#5F9BD1">
                                <rect id="Rectangle" x="0" y="5" width="8" height="8" rx="4"></rect>
                                <path d="M14.786,14 L14.786,10.64 L16.102,10.64 C18.076,10.64 19.588,9.702 19.588,7.672 C19.588,5.544 18.076,4.844 16.046,4.844 L13.162,4.844 L13.162,14 L14.786,14 Z M15.976,9.338 L14.786,9.338 L14.786,6.146 L15.92,6.146 C17.278,6.146 17.992,6.524 17.992,7.672 C17.992,8.792 17.334,9.338 15.976,9.338 Z M23.802,14.168 C24.67,14.168 25.496,13.86 26.154,13.426 L25.608,12.418 C25.104,12.74 24.6,12.922 24.012,12.922 C22.906,12.922 22.122,12.222 21.982,11.004 L26.35,11.004 C26.392,10.836 26.42,10.528 26.42,10.22 C26.42,8.302 25.44,6.958 23.578,6.958 C21.968,6.958 20.414,8.33 20.414,10.57 C20.414,12.838 21.898,14.168 23.802,14.168 Z M25.02,9.912 L21.968,9.912 C22.108,8.806 22.808,8.204 23.62,8.204 C24.558,8.204 25.02,8.848 25.02,9.912 Z M29.57,14 L29.57,9.198 C30.144,8.638 30.536,8.344 31.138,8.344 C31.894,8.344 32.216,8.764 32.216,9.898 L32.216,14 L33.826,14 L33.826,9.688 C33.826,7.952 33.182,6.958 31.712,6.958 C30.774,6.958 30.074,7.448 29.458,8.05 L29.402,8.05 L29.29,7.126 L27.96,7.126 L27.96,14 L29.57,14 Z M38.208,14.168 C38.95,14.168 39.65,13.762 40.154,13.258 L40.21,13.258 L40.322,14 L41.652,14 L41.652,4.116 L40.042,4.116 L40.042,6.608 L40.098,7.714 C39.566,7.252 39.076,6.958 38.292,6.958 C36.794,6.958 35.38,8.33 35.38,10.57 C35.38,12.838 36.486,14.168 38.208,14.168 Z M38.6,12.838 C37.606,12.838 37.046,12.04 37.046,10.556 C37.046,9.114 37.76,8.288 38.642,8.288 C39.104,8.288 39.566,8.442 40.042,8.862 L40.042,12.068 C39.58,12.6 39.132,12.838 38.6,12.838 Z M46.636,14.168 C47.504,14.168 48.33,13.86 48.988,13.426 L48.442,12.418 C47.938,12.74 47.434,12.922 46.846,12.922 C45.74,12.922 44.956,12.222 44.816,11.004 L49.184,11.004 C49.226,10.836 49.254,10.528 49.254,10.22 C49.254,8.302 48.274,6.958 46.412,6.958 C44.802,6.958 43.248,8.33 43.248,10.57 C43.248,12.838 44.732,14.168 46.636,14.168 Z M47.854,9.912 L44.802,9.912 C44.942,8.806 45.642,8.204 46.454,8.204 C47.392,8.204 47.854,8.848 47.854,9.912 Z M52.404,14 L52.404,9.198 C52.978,8.638 53.37,8.344 53.972,8.344 C54.728,8.344 55.05,8.764 55.05,9.898 L55.05,14 L56.66,14 L56.66,9.688 C56.66,7.952 56.016,6.958 54.546,6.958 C53.608,6.958 52.908,7.448 52.292,8.05 L52.236,8.05 L52.124,7.126 L50.794,7.126 L50.794,14 L52.404,14 Z M61.056,14.168 C61.602,14.168 62.078,14.042 62.456,13.916 L62.176,12.726 C61.98,12.81 61.7,12.88 61.462,12.88 C60.804,12.88 60.496,12.488 60.496,11.676 L60.496,8.4 L62.246,8.4 L62.246,7.126 L60.496,7.126 L60.496,5.25 L59.152,5.25 L58.956,7.126 L57.892,7.196 L57.892,8.4 L58.872,8.4 L58.872,11.676 C58.872,13.16 59.46,14.168 61.056,14.168 Z M66.404,14.168 C67.272,14.168 68.098,13.86 68.756,13.426 L68.21,12.418 C67.706,12.74 67.202,12.922 66.614,12.922 C65.508,12.922 64.724,12.222 64.584,11.004 L68.952,11.004 C68.994,10.836 69.022,10.528 69.022,10.22 C69.022,8.302 68.042,6.958 66.18,6.958 C64.57,6.958 63.016,8.33 63.016,10.57 C63.016,12.838 64.5,14.168 66.404,14.168 Z M67.622,9.912 L64.57,9.912 C64.71,8.806 65.41,8.204 66.222,8.204 C67.16,8.204 67.622,8.848 67.622,9.912 Z M72.48,14.168 C74.216,14.168 75.154,13.216 75.154,12.04 C75.154,10.752 74.118,10.304 73.18,9.954 C72.438,9.688 71.752,9.478 71.752,8.932 C71.752,8.498 72.074,8.176 72.76,8.176 C73.306,8.176 73.796,8.414 74.272,8.764 L75.014,7.784 C74.454,7.35 73.684,6.958 72.732,6.958 C71.192,6.958 70.226,7.812 70.226,9.016 C70.226,10.164 71.248,10.682 72.158,11.018 C72.886,11.298 73.628,11.55 73.628,12.124 C73.628,12.6 73.278,12.95 72.536,12.95 C71.836,12.95 71.248,12.656 70.632,12.18 L69.876,13.216 C70.548,13.762 71.542,14.168 72.48,14.168 Z" id="Pendentes" fill-rule="nonzero"></path>
                            </g>
                        </g>
                    </g>
                </g>
            </g>
        </g>
    </g>
</svg>