<?xml version="1.0" encoding="UTF-8"?>
<svg width="375px" height="153px" viewBox="0 0 375 153" version="1.1" xmlns="http://www.w3.org/2000/svg" xmlns:xlink="http://www.w3.org/1999/xlink">
    <!-- Generator: Sketch 63.1 (92452) - https://sketch.com -->
    <title>Group 10 Copy</title>
    <desc>Created with Sketch.</desc>
    <g id="Design" stroke="none" stroke-width="1" fill="none" fill-rule="evenodd">
        <g id="1.-Dashboard" transform="translate(-1144.000000, -807.000000)">
            <g id="Group-7" transform="translate(1104.000000, 775.000000)">
                <g id="Group-11" transform="translate(40.000000, 32.000000)">
                    <g id="Group-10-Copy" transform="translate(0.000000, 4.000000)">
                        <g id="Group-14" transform="translate(0.000000, 86.000000)" fill="#2DC430">
                            <path d="M30.625,17 L30.625,14.96875 L25.6484375,14.96875 L25.6484375,14.859375 L27.1171875,13.4765625 C28.0963542,12.5807292 28.7799479,11.890625 29.1679688,11.40625 C29.5559896,10.921875 29.8424479,10.4492188 30.0273438,9.98828125 C30.2122396,9.52734375 30.3046875,9.03385417 30.3046875,8.5078125 C30.3046875,7.90364583 30.1536458,7.3671875 29.8515625,6.8984375 C29.5494792,6.4296875 29.125,6.06510417 28.578125,5.8046875 C28.03125,5.54427083 27.4010417,5.4140625 26.6875,5.4140625 C26.1458333,5.4140625 25.65625,5.46744792 25.21875,5.57421875 C24.78125,5.68098958 24.3776042,5.83333333 24.0078125,6.03125 C23.6380208,6.22916667 23.171875,6.56770833 22.609375,7.046875 L22.609375,7.046875 L23.921875,8.6015625 C24.375,8.2265625 24.8098958,7.9375 25.2265625,7.734375 C25.6432292,7.53125 26.0729167,7.4296875 26.515625,7.4296875 C26.9375,7.4296875 27.2747396,7.54166667 27.5273438,7.765625 C27.7799479,7.98958333 27.90625,8.33072917 27.90625,8.7890625 C27.90625,9.09635417 27.8489583,9.39322917 27.734375,9.6796875 C27.6197917,9.96614583 27.4322917,10.2773438 27.171875,10.6132812 C26.9114583,10.9492188 26.3567708,11.5520833 25.5078125,12.421875 L25.5078125,12.421875 L22.640625,15.3203125 L22.640625,17 L30.625,17 Z M34.4790625,17.15625 C35.9582292,17.15625 37.09625,16.8502604 37.893125,16.2382812 C38.69,15.6263021 39.0884375,14.7708333 39.0884375,13.671875 C39.0884375,12.9166667 38.8514583,12.3164062 38.3775,11.8710938 C37.9035417,11.4257812 37.205625,11.1458333 36.28375,11.03125 L36.28375,11.03125 L36.28375,10.984375 C37.065,10.796875 37.6717708,10.453125 38.1040625,9.953125 C38.5363542,9.453125 38.7525,8.84635417 38.7525,8.1328125 C38.7525,7.27864583 38.4100521,6.61197917 37.7251562,6.1328125 C37.0402604,5.65364583 36.1066667,5.4140625 34.924375,5.4140625 C33.4816667,5.4140625 32.2394792,5.7890625 31.1978125,6.5390625 L31.1978125,6.5390625 L32.315,8.203125 C32.7889583,7.89583333 33.2199479,7.6796875 33.6079687,7.5546875 C33.9959896,7.4296875 34.3775,7.3671875 34.7525,7.3671875 C35.8358333,7.3671875 36.3775,7.79947917 36.3775,8.6640625 C36.3775,9.2265625 36.1730729,9.62369792 35.7642187,9.85546875 C35.3553646,10.0872396 34.7082292,10.203125 33.8228125,10.203125 L33.8228125,10.203125 L32.94,10.203125 L32.94,12.0546875 L33.8071875,12.0546875 C34.7655208,12.0546875 35.4634375,12.1666667 35.9009375,12.390625 C36.3384375,12.6145833 36.5571875,12.9947917 36.5571875,13.53125 C36.5571875,14.1302083 36.3670833,14.5651042 35.986875,14.8359375 C35.6066667,15.1067708 35.018125,15.2421875 34.22125,15.2421875 C33.7004167,15.2421875 33.174375,15.171875 32.643125,15.03125 C32.111875,14.890625 31.6248958,14.7083333 31.1821875,14.484375 L31.1821875,14.484375 L31.1821875,16.5390625 C32.1405208,16.9505208 33.2394792,17.15625 34.4790625,17.15625 Z M41.4346875,17.2109375 C41.8617708,17.2109375 42.1951042,17.0924479 42.4346875,16.8554688 C42.6742708,16.6184896 42.7940625,16.2942708 42.7940625,15.8828125 C42.7940625,15.4557292 42.6755729,15.1276042 42.4385937,14.8984375 C42.2016146,14.6692708 41.8669792,14.5546875 41.4346875,14.5546875 C40.9867708,14.5546875 40.645625,14.6666667 40.41125,14.890625 C40.176875,15.1145833 40.0596875,15.4453125 40.0596875,15.8828125 C40.0596875,16.3046875 40.1794792,16.6315104 40.4190625,16.8632812 C40.6586458,17.0950521 40.9971875,17.2109375 41.4346875,17.2109375 Z M50.6559375,17 L50.6559375,14.6328125 L52.0309375,14.6328125 L52.0309375,12.7578125 L50.6559375,12.7578125 L50.6559375,5.578125 L48.429375,5.578125 L43.4215625,12.953125 L43.4215625,14.6328125 L48.2965625,14.6328125 L48.2965625,17 L50.6559375,17 Z M48.2965625,12.7578125 L45.5465625,12.7578125 L47.6403125,9.59375 C47.9111458,9.1875 48.1429167,8.77083333 48.335625,8.34375 L48.335625,8.34375 L48.398125,8.34375 C48.3825,8.44270833 48.3616667,8.79947917 48.335625,9.4140625 C48.3095833,10.0286458 48.2965625,10.4973958 48.2965625,10.8203125 L48.2965625,10.8203125 L48.2965625,12.7578125 Z M54.9084375,12.5859375 C55.8042708,12.5859375 56.4839583,12.2851562 56.9475,11.6835938 C57.4110417,11.0820312 57.6428125,10.1822917 57.6428125,8.984375 C57.6428125,7.83854167 57.4071354,6.95703125 56.9357813,6.33984375 C56.4644271,5.72265625 55.7886458,5.4140625 54.9084375,5.4140625 C53.1115625,5.4140625 52.213125,6.60416667 52.213125,8.984375 C52.213125,10.1510417 52.4475,11.0429688 52.91625,11.6601562 C53.385,12.2773438 54.0490625,12.5859375 54.9084375,12.5859375 Z M56.681875,17 L63.0178125,5.578125 L61.1428125,5.578125 L54.806875,17 L56.681875,17 Z M54.9240625,10.96875 C54.6636458,10.96875 54.4748438,10.8059896 54.3576563,10.4804688 C54.2404688,10.1549479 54.181875,9.66145833 54.181875,9 C54.181875,8.33854167 54.2404688,7.84765625 54.3576563,7.52734375 C54.4748438,7.20703125 54.6636458,7.046875 54.9240625,7.046875 C55.4240625,7.046875 55.6740625,7.69791667 55.6740625,9 C55.6740625,10.3125 55.4240625,10.96875 54.9240625,10.96875 Z M62.9084375,17.140625 C63.8042708,17.140625 64.4839583,16.8398438 64.9475,16.2382812 C65.4110417,15.6367188 65.6428125,14.7395833 65.6428125,13.546875 C65.6428125,12.4010417 65.4071354,11.5195312 64.9357812,10.9023438 C64.4644271,10.2851562 63.7886458,9.9765625 62.9084375,9.9765625 C61.1115625,9.9765625 60.213125,11.1666667 60.213125,13.546875 C60.213125,14.7083333 60.4475,15.5976562 60.91625,16.2148438 C61.385,16.8320312 62.0490625,17.140625 62.9084375,17.140625 Z M62.9240625,15.53125 C62.6636458,15.53125 62.4748437,15.3684896 62.3576562,15.0429688 C62.2404687,14.7174479 62.181875,14.2239583 62.181875,13.5625 C62.181875,12.9010417 62.2404687,12.4101562 62.3576562,12.0898438 C62.4748437,11.7695312 62.6636458,11.609375 62.9240625,11.609375 C63.4240625,11.609375 63.6740625,12.2604167 63.6740625,13.5625 C63.6740625,14.875 63.4240625,15.53125 62.9240625,15.53125 Z" id="23.4%" fill-rule="nonzero"></path>
                            <polygon id="Path-5" transform="translate(7.000000, 11.000000) scale(1, -1) translate(-7.000000, -11.000000) " points="14 7 7 15 3.18634008e-14 7"></polygon>
                        </g>
                        <path d="M2.31,126 L2.31,120.946 C2.31,120.134 2.226,119.042 2.17,118.23 L2.226,118.23 L2.954,120.316 L4.69,125.076 L5.46,125.076 L7.196,120.316 L7.924,118.23 L7.98,118.23 C7.924,119.042 7.826,120.134 7.826,120.946 L7.826,126 L8.918,126 L8.918,116.816 L7.504,116.816 L5.768,121.716 C5.544,122.346 5.362,123.004 5.138,123.634 L5.082,123.634 L4.424,121.716 L4.424,121.716 L2.66,116.816 L1.26,116.816 L1.26,126 L2.31,126 Z M15.554,118.048 L16.044,117.6 L14.448,115.64 L13.3,115.64 L11.704,117.6 L12.194,118.048 L13.846,116.466 L13.902,116.466 L15.554,118.048 Z M14.084,126.168 C15.008,126.168 15.736,125.846 16.324,125.468 L15.918,124.712 C15.414,125.034 14.868,125.244 14.224,125.244 C12.922,125.244 12.04,124.32 11.956,122.878 L16.548,122.878 C16.576,122.71 16.59,122.458 16.59,122.22 C16.59,120.274 15.61,119.028 13.874,119.028 C12.32,119.028 10.822,120.386 10.822,122.612 C10.822,124.838 12.264,126.168 14.084,126.168 Z M15.582,122.052 L11.942,122.052 C12.082,120.708 12.95,119.938 13.902,119.938 C14.966,119.938 15.582,120.68 15.582,122.052 Z M20.048,126.168 C21.658,126.168 22.54,125.244 22.54,124.138 C22.54,122.85 21.448,122.444 20.468,122.08 C19.698,121.786 18.956,121.548 18.956,120.904 C18.956,120.386 19.348,119.924 20.202,119.924 C20.804,119.924 21.294,120.176 21.756,120.526 L22.302,119.798 C21.784,119.378 21.042,119.028 20.188,119.028 C18.718,119.028 17.85,119.868 17.85,120.96 C17.85,122.108 18.914,122.57 19.88,122.92 C20.622,123.2 21.434,123.508 21.434,124.208 C21.434,124.796 20.986,125.272 20.09,125.272 C19.278,125.272 18.676,124.936 18.088,124.46 L17.514,125.23 C18.158,125.762 19.082,126.168 20.048,126.168 Z M28.504,126.168 C29.358,126.168 30.114,125.72 30.758,125.188 L30.8,125.188 L30.898,126 L31.85,126 L31.85,121.828 C31.85,120.134 31.15,119.028 29.484,119.028 C28.392,119.028 27.44,119.504 26.81,119.91 L27.258,120.708 C27.79,120.344 28.504,119.98 29.288,119.98 C30.408,119.98 30.688,120.82 30.688,121.688 C27.79,122.01 26.516,122.752 26.516,124.236 C26.516,125.454 27.37,126.168 28.504,126.168 Z M28.84,125.244 C28.168,125.244 27.636,124.922 27.636,124.152 C27.636,123.284 28.42,122.724 30.688,122.444 L30.688,124.334 C30.03,124.922 29.498,125.244 28.84,125.244 Z M35.14,126 L35.14,121.072 C35.826,120.386 36.302,120.022 37.002,120.022 C37.898,120.022 38.29,120.568 38.29,121.842 L38.29,126 L39.438,126 L39.438,121.688 C39.438,119.952 38.794,119.028 37.366,119.028 C36.428,119.028 35.728,119.532 35.084,120.176 L35.042,120.176 L34.944,119.196 L33.992,119.196 L33.992,126 L35.14,126 Z M43.792,126.168 C44.212,126.168 44.674,126.042 45.052,125.916 L44.828,125.048 C44.604,125.132 44.296,125.23 44.058,125.23 C43.274,125.23 43.008,124.754 43.008,123.914 L43.008,120.134 L44.842,120.134 L44.842,119.196 L43.008,119.196 L43.008,117.292 L42.042,117.292 L41.902,119.196 L40.838,119.266 L40.838,120.134 L41.846,120.134 L41.846,123.9 C41.846,125.244 42.336,126.168 43.792,126.168 Z M48.944,126.168 C49.868,126.168 50.596,125.846 51.184,125.468 L50.778,124.712 C50.274,125.034 49.728,125.244 49.084,125.244 C47.782,125.244 46.9,124.32 46.816,122.878 L51.408,122.878 C51.436,122.71 51.45,122.458 51.45,122.22 C51.45,120.274 50.47,119.028 48.734,119.028 C47.18,119.028 45.682,120.386 45.682,122.612 C45.682,124.838 47.124,126.168 48.944,126.168 Z M50.442,122.052 L46.802,122.052 C46.942,120.708 47.81,119.938 48.762,119.938 C49.826,119.938 50.442,120.68 50.442,122.052 Z M54.278,126 L54.278,121.632 C54.74,120.484 55.426,120.064 56,120.064 C56.28,120.064 56.434,120.106 56.658,120.176 L56.882,119.168 C56.658,119.07 56.448,119.028 56.154,119.028 C55.384,119.028 54.684,119.574 54.222,120.428 L54.18,120.428 L54.082,119.196 L53.13,119.196 L53.13,126 L54.278,126 Z M58.576,117.796 C59.024,117.796 59.374,117.488 59.374,117.054 C59.374,116.606 59.024,116.312 58.576,116.312 C58.128,116.312 57.778,116.606 57.778,117.054 C57.778,117.488 58.128,117.796 58.576,117.796 Z M59.136,126 L59.136,119.196 L57.988,119.196 L57.988,126 L59.136,126 Z M64.078,126.168 C65.744,126.168 67.228,124.866 67.228,122.612 C67.228,120.33 65.744,119.028 64.078,119.028 C62.412,119.028 60.928,120.33 60.928,122.612 C60.928,124.866 62.412,126.168 64.078,126.168 Z M64.078,125.216 C62.916,125.216 62.118,124.166 62.118,122.612 C62.118,121.044 62.916,119.98 64.078,119.98 C65.254,119.98 66.038,121.044 66.038,122.612 C66.038,124.166 65.254,125.216 64.078,125.216 Z M70.168,126 L70.168,121.632 C70.63,120.484 71.316,120.064 71.89,120.064 C72.17,120.064 72.324,120.106 72.548,120.176 L72.772,119.168 C72.548,119.07 72.338,119.028 72.044,119.028 C71.274,119.028 70.574,119.574 70.112,120.428 L70.07,120.428 L69.972,119.196 L69.02,119.196 L69.02,126 L70.168,126 Z M74.83,121.114 C75.278,121.114 75.656,120.75 75.656,120.246 C75.656,119.714 75.278,119.35 74.83,119.35 C74.368,119.35 73.99,119.714 73.99,120.246 C73.99,120.75 74.368,121.114 74.83,121.114 Z M74.83,126.168 C75.278,126.168 75.656,125.804 75.656,125.3 C75.656,124.768 75.278,124.404 74.83,124.404 C74.368,124.404 73.99,124.768 73.99,125.3 C73.99,125.804 74.368,126.168 74.83,126.168 Z M2.422,144 L2.422,140.122 L4.088,140.122 L6.3,144 L7.616,144 L5.278,139.996 C6.538,139.688 7.35,138.82 7.35,137.392 C7.35,135.488 6.006,134.816 4.13,134.816 L1.26,134.816 L1.26,144 L2.422,144 Z M3.962,139.17 L2.422,139.17 L2.422,135.754 L3.962,135.754 C5.39,135.754 6.188,136.188 6.188,137.392 C6.188,138.582 5.39,139.17 3.962,139.17 Z M11.914,145.54 L11.914,144.126 C13.244,143.944 14.084,143.02 14.084,141.69 C14.084,138.68 10.178,139.24 10.178,137.21 C10.178,136.398 10.724,135.866 11.578,135.866 C12.334,135.866 12.768,136.16 13.286,136.664 L13.902,135.978 C13.398,135.446 12.81,135.012 11.914,134.914 L11.914,133.528 L11.074,133.528 L11.074,134.942 C9.856,135.124 9.044,136.02 9.044,137.266 C9.044,139.996 12.95,139.506 12.95,141.774 C12.95,142.642 12.432,143.216 11.396,143.216 C10.542,143.216 9.828,142.796 9.226,142.278 L8.694,143.076 C9.282,143.622 10.178,144.07 11.074,144.154 L11.074,145.54 L11.914,145.54 Z M24.052,144 L24.052,143.006 L21.462,143.006 C21,143.006 20.454,143.048 19.964,143.09 C22.078,140.878 23.604,139.212 23.604,137.532 C23.604,135.95 22.582,134.9 20.93,134.9 C19.768,134.9 18.97,135.446 18.228,136.258 L18.886,136.916 C19.404,136.314 20.048,135.838 20.79,135.838 C21.924,135.838 22.484,136.566 22.484,137.588 C22.484,139.03 20.972,140.64 18.284,143.314 L18.284,144 L24.052,144 Z M28.182,144.168 C29.918,144.168 31.066,143.118 31.066,141.788 C31.066,140.584 30.31,139.954 29.512,139.492 L29.512,139.436 C30.058,139.016 30.744,138.218 30.744,137.28 C30.744,135.894 29.778,134.9 28.224,134.9 C26.782,134.9 25.69,135.824 25.69,137.196 C25.69,138.134 26.278,138.792 26.936,139.254 L26.936,139.31 C26.096,139.758 25.256,140.556 25.256,141.718 C25.256,143.132 26.502,144.168 28.182,144.168 Z M28.812,139.128 C27.734,138.708 26.754,138.26 26.754,137.196 C26.754,136.328 27.37,135.754 28.196,135.754 C29.176,135.754 29.75,136.454 29.75,137.336 C29.75,137.994 29.414,138.596 28.812,139.128 Z M28.21,143.314 C27.118,143.314 26.292,142.6 26.292,141.606 C26.292,140.794 26.824,140.136 27.538,139.66 C28.826,140.178 29.96,140.598 29.96,141.746 C29.96,142.67 29.246,143.314 28.21,143.314 Z M33.39,144.168 C33.838,144.168 34.216,143.804 34.216,143.3 C34.216,142.768 33.838,142.404 33.39,142.404 C32.928,142.404 32.55,142.768 32.55,143.3 C32.55,143.804 32.928,144.168 33.39,144.168 Z M38.43,144.168 C40.068,144.168 41.37,143.202 41.37,141.62 C41.37,140.388 40.516,139.604 39.438,139.352 L39.438,139.296 C40.404,138.932 41.062,138.246 41.062,137.168 C41.062,135.726 39.942,134.9 38.388,134.9 C37.338,134.9 36.512,135.376 35.826,136.02 L36.442,136.748 C36.974,136.216 37.604,135.838 38.346,135.838 C39.298,135.838 39.886,136.384 39.886,137.252 C39.886,138.19 39.256,138.918 37.352,138.918 L37.352,139.8 C39.48,139.8 40.208,140.514 40.208,141.578 C40.208,142.572 39.438,143.216 38.36,143.216 C37.31,143.216 36.61,142.712 36.078,142.152 L35.49,142.908 C36.092,143.566 37.002,144.168 38.43,144.168 Z M44.954,144.168 C46.732,144.168 48.356,142.782 48.356,139.198 C48.356,136.328 47.04,134.9 45.276,134.9 C43.848,134.9 42.644,136.062 42.644,137.77 C42.644,139.604 43.638,140.528 45.178,140.528 C45.92,140.528 46.718,140.094 47.278,139.38 C47.236,142.236 46.172,143.216 44.912,143.216 C44.352,143.216 43.806,142.936 43.442,142.502 L42.798,143.23 C43.288,143.762 44.002,144.168 44.954,144.168 Z M45.374,139.66 C44.268,139.66 43.722,138.932 43.722,137.77 C43.722,136.594 44.408,135.81 45.276,135.81 C46.41,135.81 47.096,136.734 47.25,138.47 C46.676,139.31 45.962,139.66 45.374,139.66 Z M55.37,144 L55.37,143.006 L52.78,143.006 C52.318,143.006 51.772,143.048 51.282,143.09 C53.396,140.878 54.922,139.212 54.922,137.532 C54.922,135.95 53.9,134.9 52.248,134.9 C51.086,134.9 50.288,135.446 49.546,136.258 L50.204,136.916 C50.722,136.314 51.366,135.838 52.108,135.838 C53.242,135.838 53.802,136.566 53.802,137.588 C53.802,139.03 52.29,140.64 49.602,143.314 L49.602,144 L55.37,144 Z" id="Mêsanterior:R$28.392" fill="#999999" fill-rule="nonzero"></path>
                        <path d="M180.422,126 L180.422,122.122 L182.088,122.122 L184.3,126 L185.616,126 L183.278,121.996 C184.538,121.688 185.35,120.82 185.35,119.392 C185.35,117.488 184.006,116.816 182.13,116.816 L179.26,116.816 L179.26,126 L180.422,126 Z M181.962,121.17 L180.422,121.17 L180.422,117.754 L181.962,117.754 C183.39,117.754 184.188,118.188 184.188,119.392 C184.188,120.582 183.39,121.17 181.962,121.17 Z M189.732,126.168 C190.656,126.168 191.384,125.846 191.972,125.468 L191.566,124.712 C191.062,125.034 190.516,125.244 189.872,125.244 C188.57,125.244 187.688,124.32 187.604,122.878 L192.196,122.878 C192.224,122.71 192.238,122.458 192.238,122.22 C192.238,120.274 191.258,119.028 189.522,119.028 C187.968,119.028 186.47,120.386 186.47,122.612 C186.47,124.838 187.912,126.168 189.732,126.168 Z M191.23,122.052 L187.59,122.052 C187.73,120.708 188.598,119.938 189.55,119.938 C190.614,119.938 191.23,120.68 191.23,122.052 Z M195.262,126 L195.262,120.134 L196.704,120.134 L196.704,119.196 L195.262,119.196 L195.262,118.118 C195.262,117.25 195.57,116.802 196.214,116.802 C196.466,116.802 196.732,116.858 196.984,116.97 L197.236,116.088 C196.928,115.962 196.522,115.864 196.102,115.864 C194.744,115.864 194.114,116.732 194.114,118.118 L194.114,119.196 L193.19,119.266 L193.19,120.134 L194.114,120.134 L194.114,126 L195.262,126 Z M200.624,126.168 C201.548,126.168 202.276,125.846 202.864,125.468 L202.458,124.712 C201.954,125.034 201.408,125.244 200.764,125.244 C199.462,125.244 198.58,124.32 198.496,122.878 L203.088,122.878 C203.116,122.71 203.13,122.458 203.13,122.22 C203.13,120.274 202.15,119.028 200.414,119.028 C198.86,119.028 197.362,120.386 197.362,122.612 C197.362,124.838 198.804,126.168 200.624,126.168 Z M202.122,122.052 L198.482,122.052 C198.622,120.708 199.49,119.938 200.442,119.938 C201.506,119.938 202.122,120.68 202.122,122.052 Z M205.958,126 L205.958,121.632 C206.42,120.484 207.106,120.064 207.68,120.064 C207.96,120.064 208.114,120.106 208.338,120.176 L208.562,119.168 C208.338,119.07 208.128,119.028 207.834,119.028 C207.064,119.028 206.364,119.574 205.902,120.428 L205.86,120.428 L205.762,119.196 L204.81,119.196 L204.81,126 L205.958,126 Z M212.286,126.168 C213.21,126.168 213.938,125.846 214.526,125.468 L214.12,124.712 C213.616,125.034 213.07,125.244 212.426,125.244 C211.124,125.244 210.242,124.32 210.158,122.878 L214.75,122.878 C214.778,122.71 214.792,122.458 214.792,122.22 C214.792,120.274 213.812,119.028 212.076,119.028 C210.522,119.028 209.024,120.386 209.024,122.612 C209.024,124.838 210.466,126.168 212.286,126.168 Z M213.784,122.052 L210.144,122.052 C210.284,120.708 211.152,119.938 212.104,119.938 C213.168,119.938 213.784,120.68 213.784,122.052 Z M217.62,126 L217.62,121.072 C218.306,120.386 218.782,120.022 219.482,120.022 C220.378,120.022 220.77,120.568 220.77,121.842 L220.77,126 L221.918,126 L221.918,121.688 C221.918,119.952 221.274,119.028 219.846,119.028 C218.908,119.028 218.208,119.532 217.564,120.176 L217.522,120.176 L217.424,119.196 L216.472,119.196 L216.472,126 L217.62,126 Z M226.272,126.168 C226.692,126.168 227.154,126.042 227.532,125.916 L227.308,125.048 C227.084,125.132 226.776,125.23 226.538,125.23 C225.754,125.23 225.488,124.754 225.488,123.914 L225.488,120.134 L227.322,120.134 L227.322,119.196 L225.488,119.196 L225.488,117.292 L224.522,117.292 L224.382,119.196 L223.318,119.266 L223.318,120.134 L224.326,120.134 L224.326,123.9 C224.326,125.244 224.816,126.168 226.272,126.168 Z M231.424,126.168 C232.348,126.168 233.076,125.846 233.664,125.468 L233.258,124.712 C232.754,125.034 232.208,125.244 231.564,125.244 C230.262,125.244 229.38,124.32 229.296,122.878 L233.888,122.878 C233.916,122.71 233.93,122.458 233.93,122.22 C233.93,120.274 232.95,119.028 231.214,119.028 C229.66,119.028 228.162,120.386 228.162,122.612 C228.162,124.838 229.604,126.168 231.424,126.168 Z M232.922,122.052 L229.282,122.052 C229.422,120.708 230.29,119.938 231.242,119.938 C232.306,119.938 232.922,120.68 232.922,122.052 Z M241.14,117.978 L241.728,117.404 L239.754,115.066 L238.942,115.836 L241.14,117.978 Z M239.978,126.168 C240.832,126.168 241.588,125.72 242.232,125.188 L242.274,125.188 L242.372,126 L243.324,126 L243.324,121.828 C243.324,120.134 242.624,119.028 240.958,119.028 C239.866,119.028 238.914,119.504 238.284,119.91 L238.732,120.708 C239.264,120.344 239.978,119.98 240.762,119.98 C241.882,119.98 242.162,120.82 242.162,121.688 C239.264,122.01 237.99,122.752 237.99,124.236 C237.99,125.454 238.844,126.168 239.978,126.168 Z M240.314,125.244 C239.642,125.244 239.11,124.922 239.11,124.152 C239.11,123.284 239.894,122.724 242.162,122.444 L242.162,124.334 C241.504,124.922 240.972,125.244 240.314,125.244 Z M247.244,126.168 C248.854,126.168 249.736,125.244 249.736,124.138 C249.736,122.85 248.644,122.444 247.664,122.08 C246.894,121.786 246.152,121.548 246.152,120.904 C246.152,120.386 246.544,119.924 247.398,119.924 C248,119.924 248.49,120.176 248.952,120.526 L249.498,119.798 C248.98,119.378 248.238,119.028 247.384,119.028 C245.914,119.028 245.046,119.868 245.046,120.96 C245.046,122.108 246.11,122.57 247.076,122.92 C247.818,123.2 248.63,123.508 248.63,124.208 C248.63,124.796 248.182,125.272 247.286,125.272 C246.474,125.272 245.872,124.936 245.284,124.46 L244.71,125.23 C245.354,125.762 246.278,126.168 247.244,126.168 Z M255.28,128.87 L255.28,126.574 L255.252,125.384 C255.882,125.874 256.512,126.168 257.142,126.168 C258.696,126.168 260.082,124.81 260.082,122.5 C260.082,120.386 259.144,119.028 257.394,119.028 C256.596,119.028 255.84,119.462 255.224,119.98 L255.182,119.98 L255.084,119.196 L254.132,119.196 L254.132,128.87 L255.28,128.87 Z M256.946,125.202 C256.498,125.202 255.896,125.006 255.28,124.488 L255.28,120.918 C255.952,120.316 256.526,119.994 257.1,119.994 C258.388,119.994 258.892,121.002 258.892,122.5 C258.892,124.18 258.066,125.202 256.946,125.202 Z M263.05,126 L263.05,121.632 C263.512,120.484 264.198,120.064 264.772,120.064 C265.052,120.064 265.206,120.106 265.43,120.176 L265.654,119.168 C265.43,119.07 265.22,119.028 264.926,119.028 C264.156,119.028 263.456,119.574 262.994,120.428 L262.952,120.428 L262.854,119.196 L261.902,119.196 L261.902,126 L263.05,126 Z M269.266,126.168 C270.932,126.168 272.416,124.866 272.416,122.612 C272.416,120.33 270.932,119.028 269.266,119.028 C267.6,119.028 266.116,120.33 266.116,122.612 C266.116,124.866 267.6,126.168 269.266,126.168 Z M269.266,125.216 C268.104,125.216 267.306,124.166 267.306,122.612 C267.306,121.044 268.104,119.98 269.266,119.98 C270.442,119.98 271.226,121.044 271.226,122.612 C271.226,124.166 270.442,125.216 269.266,125.216 Z M275.356,128.87 L275.356,126.574 L275.328,125.384 C275.958,125.874 276.588,126.168 277.218,126.168 C278.772,126.168 280.158,124.81 280.158,122.5 C280.158,120.386 279.22,119.028 277.47,119.028 C276.672,119.028 275.916,119.462 275.3,119.98 L275.258,119.98 L275.16,119.196 L274.208,119.196 L274.208,128.87 L275.356,128.87 Z M277.022,125.202 C276.574,125.202 275.972,125.006 275.356,124.488 L275.356,120.918 C276.028,120.316 276.602,119.994 277.176,119.994 C278.464,119.994 278.968,121.002 278.968,122.5 C278.968,124.18 278.142,125.202 277.022,125.202 Z M284.624,126.168 C286.29,126.168 287.774,124.866 287.774,122.612 C287.774,120.33 286.29,119.028 284.624,119.028 C282.958,119.028 281.474,120.33 281.474,122.612 C281.474,124.866 282.958,126.168 284.624,126.168 Z M284.624,125.216 C283.462,125.216 282.664,124.166 282.664,122.612 C282.664,121.044 283.462,119.98 284.624,119.98 C285.8,119.98 286.584,121.044 286.584,122.612 C286.584,124.166 285.8,125.216 284.624,125.216 Z M291.344,126.168 C292.954,126.168 293.836,125.244 293.836,124.138 C293.836,122.85 292.744,122.444 291.764,122.08 L291.477957,121.971473 C290.820094,121.720156 290.252,121.4675 290.252,120.904 C290.252,120.386 290.644,119.924 291.498,119.924 C292.1,119.924 292.59,120.176 293.052,120.526 L293.598,119.798 C293.08,119.378 292.338,119.028 291.484,119.028 C290.014,119.028 289.146,119.868 289.146,120.96 C289.146,122.108 290.21,122.57 291.176,122.92 C291.918,123.2 292.73,123.508 292.73,124.208 C292.73,124.796 292.282,125.272 291.386,125.272 C290.574,125.272 289.972,124.936 289.384,124.46 L288.81,125.23 C289.454,125.762 290.378,126.168 291.344,126.168 Z M297.294,126.168 C297.714,126.168 298.176,126.042 298.554,125.916 L298.33,125.048 C298.106,125.132 297.798,125.23 297.56,125.23 C296.776,125.23 296.51,124.754 296.51,123.914 L296.51,120.134 L298.344,120.134 L298.344,119.196 L296.51,119.196 L296.51,117.292 L295.544,117.292 L295.404,119.196 L294.34,119.266 L294.34,120.134 L295.348,120.134 L295.348,123.9 C295.348,125.244 295.838,126.168 297.294,126.168 Z M301.158,126.168 C302.012,126.168 302.768,125.72 303.412,125.188 L303.454,125.188 L303.552,126 L304.504,126 L304.504,121.828 C304.504,120.134 303.804,119.028 302.138,119.028 C301.046,119.028 300.094,119.504 299.464,119.91 L299.912,120.708 C300.444,120.344 301.158,119.98 301.942,119.98 C303.062,119.98 303.342,120.82 303.342,121.688 C300.444,122.01 299.17,122.752 299.17,124.236 C299.17,125.454 300.024,126.168 301.158,126.168 Z M301.494,125.244 C300.822,125.244 300.29,124.922 300.29,124.152 C300.29,123.284 301.074,122.724 303.342,122.444 L303.342,124.334 C302.684,124.922 302.152,125.244 301.494,125.244 Z M308.424,126.168 C310.034,126.168 310.916,125.244 310.916,124.138 C310.916,122.85 309.824,122.444 308.844,122.08 L308.557957,121.971473 C307.900094,121.720156 307.332,121.4675 307.332,120.904 C307.332,120.386 307.724,119.924 308.578,119.924 C309.18,119.924 309.67,120.176 310.132,120.526 L310.678,119.798 C310.16,119.378 309.418,119.028 308.564,119.028 C307.094,119.028 306.226,119.868 306.226,120.96 C306.226,122.108 307.29,122.57 308.256,122.92 C308.998,123.2 309.81,123.508 309.81,124.208 C309.81,124.796 309.362,125.272 308.466,125.272 C307.654,125.272 307.052,124.936 306.464,124.46 L305.89,125.23 C306.534,125.762 307.458,126.168 308.424,126.168 Z M316.88,126.168 C317.734,126.168 318.49,125.72 319.134,125.188 L319.176,125.188 L319.274,126 L320.226,126 L320.226,121.828 C320.226,120.134 319.526,119.028 317.86,119.028 C316.768,119.028 315.816,119.504 315.186,119.91 L315.634,120.708 C316.166,120.344 316.88,119.98 317.664,119.98 C318.784,119.98 319.064,120.82 319.064,121.688 C316.166,122.01 314.892,122.752 314.892,124.236 C314.892,125.454 315.746,126.168 316.88,126.168 Z M317.216,125.244 C316.544,125.244 316.012,124.922 316.012,124.152 C316.012,123.284 316.796,122.724 319.064,122.444 L319.064,124.334 C318.406,124.922 317.874,125.244 317.216,125.244 Z M323.516,128.87 L323.516,126.574 L323.488,125.384 C324.118,125.874 324.748,126.168 325.378,126.168 C326.932,126.168 328.318,124.81 328.318,122.5 C328.318,120.386 327.38,119.028 325.63,119.028 C324.832,119.028 324.076,119.462 323.46,119.98 L323.418,119.98 L323.32,119.196 L322.368,119.196 L322.368,128.87 L323.516,128.87 Z M325.182,125.202 C324.734,125.202 324.132,125.006 323.516,124.488 L323.516,120.918 C324.188,120.316 324.762,119.994 325.336,119.994 C326.624,119.994 327.128,121.002 327.128,122.5 C327.128,124.18 326.302,125.202 325.182,125.202 Z M331.286,126 L331.286,121.632 C331.748,120.484 332.434,120.064 333.008,120.064 C333.288,120.064 333.442,120.106 333.666,120.176 L333.89,119.168 C333.666,119.07 333.456,119.028 333.162,119.028 C332.392,119.028 331.692,119.574 331.23,120.428 L331.188,120.428 L331.09,119.196 L330.138,119.196 L330.138,126 L331.286,126 Z M337.502,126.168 C339.168,126.168 340.652,124.866 340.652,122.612 C340.652,120.33 339.168,119.028 337.502,119.028 C335.836,119.028 334.352,120.33 334.352,122.612 C334.352,124.866 335.836,126.168 337.502,126.168 Z M337.502,125.216 C336.34,125.216 335.542,124.166 335.542,122.612 C335.542,121.044 336.34,119.98 337.502,119.98 C338.678,119.98 339.462,121.044 339.462,122.612 C339.462,124.166 338.678,125.216 337.502,125.216 Z M345.202,126 L347.61,119.196 L346.476,119.196 L345.188,123.06 C344.992,123.732 344.768,124.418 344.572,125.062 L344.516,125.062 C344.306,124.418 344.082,123.732 343.886,123.06 L342.598,119.196 L341.408,119.196 L343.858,126 L345.202,126 Z M350.214,126.168 C351.068,126.168 351.824,125.72 352.468,125.188 L352.51,125.188 L352.608,126 L353.56,126 L353.56,121.828 C353.56,120.134 352.86,119.028 351.194,119.028 C350.102,119.028 349.15,119.504 348.52,119.91 L348.968,120.708 C349.5,120.344 350.214,119.98 350.998,119.98 C352.118,119.98 352.398,120.82 352.398,121.688 C349.5,122.01 348.226,122.752 348.226,124.236 C348.226,125.454 349.08,126.168 350.214,126.168 Z M350.55,125.244 C349.878,125.244 349.346,124.922 349.346,124.152 C349.346,123.284 350.13,122.724 352.398,122.444 L352.398,124.334 C351.74,124.922 351.208,125.244 350.55,125.244 Z M358.026,126.168 C358.824,126.168 359.552,125.72 360.084,125.202 L360.126,125.202 L360.224,126 L361.176,126 L361.176,116.032 L360.014,116.032 L360.014,118.65 L360.07,119.812 C359.468,119.322 358.95,119.028 358.166,119.028 C356.612,119.028 355.212,120.4 355.212,122.612 C355.212,124.88 356.318,126.168 358.026,126.168 Z M358.278,125.202 C357.088,125.202 356.402,124.222 356.402,122.598 C356.402,121.044 357.27,119.994 358.362,119.994 C358.922,119.994 359.44,120.19 360.014,120.708 L360.014,124.264 C359.454,124.894 358.908,125.202 358.278,125.202 Z M365.04,126.168 C365.894,126.168 366.65,125.72 367.294,125.188 L367.336,125.188 L367.434,126 L368.386,126 L368.386,121.828 C368.386,120.134 367.686,119.028 366.02,119.028 C364.928,119.028 363.976,119.504 363.346,119.91 L363.794,120.708 C364.326,120.344 365.04,119.98 365.824,119.98 C366.944,119.98 367.224,120.82 367.224,121.688 C364.326,122.01 363.052,122.752 363.052,124.236 C363.052,125.454 363.906,126.168 365.04,126.168 Z M365.376,125.244 C364.704,125.244 364.172,124.922 364.172,124.152 C364.172,123.284 364.956,122.724 367.224,122.444 L367.224,124.334 C366.566,124.922 366.034,125.244 365.376,125.244 Z M372.306,126.168 C373.916,126.168 374.798,125.244 374.798,124.138 C374.798,122.85 373.706,122.444 372.726,122.08 C371.956,121.786 371.214,121.548 371.214,120.904 C371.214,120.386 371.606,119.924 372.46,119.924 C373.062,119.924 373.552,120.176 374.014,120.526 L374.56,119.798 C374.042,119.378 373.3,119.028 372.446,119.028 C370.976,119.028 370.108,119.868 370.108,120.96 C370.108,122.108 371.172,122.57 372.138,122.92 C372.88,123.2 373.692,123.508 373.692,124.208 C373.692,124.796 373.244,125.272 372.348,125.272 C371.536,125.272 370.934,124.936 370.346,124.46 L369.772,125.23 C370.416,125.762 371.34,126.168 372.306,126.168 Z M184.622,146.87 L184.622,137.196 L183.698,137.196 L183.586,137.84 L183.558,137.84 C182.942,137.308 182.396,137.028 181.612,137.028 C180.058,137.028 178.658,138.4 178.658,140.612 C178.658,142.88 179.764,144.168 181.472,144.168 C182.256,144.168 182.97,143.748 183.516,143.216 L183.46,144.448 L183.46,146.87 L184.622,146.87 Z M181.724,143.202 C180.534,143.202 179.848,142.222 179.848,140.598 C179.848,139.044 180.716,137.994 181.808,137.994 C182.368,137.994 182.886,138.19 183.46,138.708 L183.46,142.264 C182.9,142.894 182.354,143.202 181.724,143.202 Z M188.906,144.168 C189.844,144.168 190.516,143.678 191.146,142.936 L191.188,142.936 L191.286,144 L192.238,144 L192.238,137.196 L191.09,137.196 L191.09,142.026 C190.446,142.824 189.956,143.174 189.256,143.174 C188.36,143.174 187.982,142.628 187.982,141.354 L187.982,137.196 L186.82,137.196 L186.82,141.508 C186.82,143.244 187.464,144.168 188.906,144.168 Z M197.292,144.168 C198.216,144.168 198.944,143.846 199.532,143.468 L199.126,142.712 C198.622,143.034 198.076,143.244 197.432,143.244 C196.13,143.244 195.248,142.32 195.164,140.878 L199.756,140.878 C199.784,140.71 199.798,140.458 199.798,140.22 C199.798,138.274 198.818,137.028 197.082,137.028 C195.528,137.028 194.03,138.386 194.03,140.612 C194.03,142.838 195.472,144.168 197.292,144.168 Z M198.79,140.052 L195.15,140.052 C195.29,138.708 196.158,137.938 197.11,137.938 C198.174,137.938 198.79,138.68 198.79,140.052 Z M205.846,144.168 C206.7,144.168 207.456,143.72 208.1,143.188 L208.142,143.188 L208.24,144 L209.192,144 L209.192,139.828 C209.192,138.134 208.492,137.028 206.826,137.028 C205.734,137.028 204.782,137.504 204.152,137.91 L204.6,138.708 C205.132,138.344 205.846,137.98 206.63,137.98 C207.75,137.98 208.03,138.82 208.03,139.688 C205.132,140.01 203.858,140.752 203.858,142.236 C203.858,143.454 204.712,144.168 205.846,144.168 Z M206.182,143.244 C205.51,143.244 204.978,142.922 204.978,142.152 C204.978,141.284 205.762,140.724 208.03,140.444 L208.03,142.334 C207.372,142.922 206.84,143.244 206.182,143.244 Z M211.922,135.796 C212.37,135.796 212.72,135.488 212.72,135.054 C212.72,134.606 212.37,134.312 211.922,134.312 C211.474,134.312 211.124,134.606 211.124,135.054 C211.124,135.488 211.474,135.796 211.922,135.796 Z M212.482,144 L212.482,137.196 L211.334,137.196 L211.334,144 L212.482,144 Z M215.926,144 L215.926,139.072 C216.612,138.386 217.088,138.022 217.788,138.022 C218.684,138.022 219.076,138.568 219.076,139.842 L219.076,144 L220.224,144 L220.224,139.688 C220.224,137.952 219.58,137.028 218.152,137.028 C217.214,137.028 216.514,137.532 215.87,138.176 L215.828,138.176 L215.73,137.196 L214.778,137.196 L214.778,144 L215.926,144 Z M224.76,144.168 C225.558,144.168 226.286,143.72 226.818,143.202 L226.86,143.202 L226.958,144 L227.91,144 L227.91,134.032 L226.748,134.032 L226.748,136.65 L226.804,137.812 C226.202,137.322 225.684,137.028 224.9,137.028 C223.346,137.028 221.946,138.4 221.946,140.612 C221.946,142.88 223.052,144.168 224.76,144.168 Z M225.012,143.202 C223.822,143.202 223.136,142.222 223.136,140.598 C223.136,139.044 224.004,137.994 225.096,137.994 C225.656,137.994 226.174,138.19 226.748,138.708 L226.748,142.264 C226.188,142.894 225.642,143.202 225.012,143.202 Z M231.774,144.168 C232.628,144.168 233.384,143.72 234.028,143.188 L234.07,143.188 L234.168,144 L235.12,144 L235.12,139.828 C235.12,138.134 234.42,137.028 232.754,137.028 C231.662,137.028 230.71,137.504 230.08,137.91 L230.528,138.708 C231.06,138.344 231.774,137.98 232.558,137.98 C233.678,137.98 233.958,138.82 233.958,139.688 C231.06,140.01 229.786,140.752 229.786,142.236 C229.786,143.454 230.64,144.168 231.774,144.168 Z M232.11,143.244 C231.438,143.244 230.906,142.922 230.906,142.152 C230.906,141.284 231.69,140.724 233.958,140.444 L233.958,142.334 C233.3,142.922 232.768,143.244 232.11,143.244 Z M241.21,144 L241.21,139.072 C241.896,138.386 242.372,138.022 243.072,138.022 C243.968,138.022 244.36,138.568 244.36,139.842 L244.36,144 L245.508,144 L245.508,139.688 C245.508,137.952 244.864,137.028 243.436,137.028 C242.498,137.028 241.798,137.532 241.154,138.176 L241.112,138.176 L241.014,137.196 L240.062,137.196 L240.062,144 L241.21,144 Z M251.262,135.922 C252.228,135.922 252.634,135.11 252.676,134.032 L251.906,133.976 C251.864,134.62 251.668,135.082 251.262,135.082 C250.604,135.082 250.24,133.906 249.246,133.906 C248.28,133.906 247.874,134.718 247.832,135.81 L248.602,135.852 C248.644,135.194 248.84,134.746 249.26,134.746 C249.904,134.746 250.268,135.922 251.262,135.922 Z M249.288,144.168 C250.142,144.168 250.898,143.72 251.542,143.188 L251.584,143.188 L251.682,144 L252.634,144 L252.634,139.828 C252.634,138.134 251.934,137.028 250.268,137.028 C249.176,137.028 248.224,137.504 247.594,137.91 L248.042,138.708 C248.574,138.344 249.288,137.98 250.072,137.98 C251.192,137.98 251.472,138.82 251.472,139.688 C248.574,140.01 247.3,140.752 247.3,142.236 C247.3,143.454 248.154,144.168 249.288,144.168 Z M249.624,143.244 C248.952,143.244 248.42,142.922 248.42,142.152 C248.42,141.284 249.204,140.724 251.472,140.444 L251.472,142.334 C250.814,142.922 250.282,143.244 249.624,143.244 Z M257.422,144.168 C259.088,144.168 260.572,142.866 260.572,140.612 C260.572,138.33 259.088,137.028 257.422,137.028 C255.756,137.028 254.272,138.33 254.272,140.612 C254.272,142.866 255.756,144.168 257.422,144.168 Z M257.422,143.216 C256.26,143.216 255.462,142.166 255.462,140.612 C255.462,139.044 256.26,137.98 257.422,137.98 C258.598,137.98 259.382,139.044 259.382,140.612 C259.382,142.166 258.598,143.216 257.422,143.216 Z M266.508,144 L266.508,138.134 L267.95,138.134 L267.95,137.196 L266.508,137.196 L266.508,136.118 C266.508,135.25 266.816,134.802 267.46,134.802 C267.712,134.802 267.978,134.858 268.23,134.97 L268.482,134.088 C268.174,133.962 267.768,133.864 267.348,133.864 C265.99,133.864 265.36,134.732 265.36,136.118 L265.36,137.196 L264.436,137.266 L264.436,138.134 L265.36,138.134 L265.36,144 L266.508,144 Z M271.758,144.168 C273.424,144.168 274.908,142.866 274.908,140.612 C274.908,138.33 273.424,137.028 271.758,137.028 C270.092,137.028 268.608,138.33 268.608,140.612 C268.608,142.866 270.092,144.168 271.758,144.168 Z M271.758,143.216 C270.596,143.216 269.798,142.166 269.798,140.612 C269.798,139.044 270.596,137.98 271.758,137.98 C272.934,137.98 273.718,139.044 273.718,140.612 C273.718,142.166 272.934,143.216 271.758,143.216 Z M277.848,144 L277.848,139.632 C278.31,138.484 278.996,138.064 279.57,138.064 C279.85,138.064 280.004,138.106 280.228,138.176 L280.452,137.168 C280.228,137.07 280.018,137.028 279.724,137.028 C278.954,137.028 278.254,137.574 277.792,138.428 L277.75,138.428 L277.652,137.196 L276.7,137.196 L276.7,144 L277.848,144 Z M282.79,144.168 C283.644,144.168 284.4,143.72 285.044,143.188 L285.086,143.188 L285.184,144 L286.136,144 L286.136,139.828 C286.136,138.134 285.436,137.028 283.77,137.028 C282.678,137.028 281.726,137.504 281.096,137.91 L281.544,138.708 C282.076,138.344 282.79,137.98 283.574,137.98 C284.694,137.98 284.974,138.82 284.974,139.688 C282.076,140.01 280.802,140.752 280.802,142.236 C280.802,143.454 281.656,144.168 282.79,144.168 Z M283.126,143.244 C282.454,143.244 281.922,142.922 281.922,142.152 C281.922,141.284 282.706,140.724 284.974,140.444 L284.974,142.334 C284.316,142.922 283.784,143.244 283.126,143.244 Z M289.426,144 L289.426,139.072 C290.056,138.372 290.63,138.022 291.134,138.022 C292.002,138.022 292.408,138.568 292.408,139.842 L292.408,144 L293.556,144 L293.556,139.072 C294.186,138.372 294.732,138.022 295.264,138.022 C296.118,138.022 296.524,138.568 296.524,139.842 L296.524,144 L297.672,144 L297.672,139.688 C297.672,137.952 297,137.028 295.6,137.028 C294.774,137.028 294.074,137.56 293.36,138.33 C293.08,137.518 292.52,137.028 291.484,137.028 C290.672,137.028 289.958,137.532 289.37,138.176 L289.328,138.176 L289.23,137.196 L288.278,137.196 L288.278,144 L289.426,144 Z M305.442,144.168 C306.366,144.168 307.094,143.846 307.682,143.468 L307.276,142.712 C306.772,143.034 306.226,143.244 305.582,143.244 C304.28,143.244 303.398,142.32 303.314,140.878 L307.906,140.878 C307.934,140.71 307.948,140.458 307.948,140.22 C307.948,138.274 306.968,137.028 305.232,137.028 C303.678,137.028 302.18,138.386 302.18,140.612 C302.18,142.838 303.622,144.168 305.442,144.168 Z M306.94,140.052 L303.3,140.052 C303.44,138.708 304.308,137.938 305.26,137.938 C306.324,137.938 306.94,138.68 306.94,140.052 Z M310.972,144 L310.972,138.134 L312.414,138.134 L312.414,137.196 L310.972,137.196 L310.972,136.118 C310.972,135.25 311.28,134.802 311.924,134.802 C312.176,134.802 312.442,134.858 312.694,134.97 L312.946,134.088 C312.638,133.962 312.232,133.864 311.812,133.864 C310.454,133.864 309.824,134.732 309.824,136.118 L309.824,137.196 L308.9,137.266 L308.9,138.134 L309.824,138.134 L309.824,144 L310.972,144 Z M316.334,144.168 C317.258,144.168 317.986,143.846 318.574,143.468 L318.168,142.712 C317.664,143.034 317.118,143.244 316.474,143.244 C315.172,143.244 314.29,142.32 314.206,140.878 L318.798,140.878 C318.826,140.71 318.84,140.458 318.84,140.22 C318.84,138.274 317.86,137.028 316.124,137.028 C314.57,137.028 313.072,138.386 313.072,140.612 C313.072,142.838 314.514,144.168 316.334,144.168 Z M317.832,140.052 L314.192,140.052 C314.332,138.708 315.2,137.938 316.152,137.938 C317.216,137.938 317.832,138.68 317.832,140.052 Z M322.522,144.168 C322.942,144.168 323.404,144.042 323.782,143.916 L323.558,143.048 C323.334,143.132 323.026,143.23 322.788,143.23 C322.004,143.23 321.738,142.754 321.738,141.914 L321.738,138.134 L323.572,138.134 L323.572,137.196 L321.738,137.196 L321.738,135.292 L320.772,135.292 L320.632,137.196 L319.568,137.266 L319.568,138.134 L320.576,138.134 L320.576,141.9 C320.576,143.244 321.066,144.168 322.522,144.168 Z M325.7,135.796 C326.148,135.796 326.498,135.488 326.498,135.054 C326.498,134.606 326.148,134.312 325.7,134.312 C325.252,134.312 324.902,134.606 324.902,135.054 C324.902,135.488 325.252,135.796 325.7,135.796 Z M326.26,144 L326.26,137.196 L325.112,137.196 L325.112,144 L326.26,144 Z M331.37,144 L333.778,137.196 L332.644,137.196 L331.356,141.06 C331.16,141.732 330.936,142.418 330.74,143.062 L330.684,143.062 C330.474,142.418 330.25,141.732 330.054,141.06 L328.766,137.196 L327.576,137.196 L330.026,144 L331.37,144 Z M336.382,144.168 C337.236,144.168 337.992,143.72 338.636,143.188 L338.678,143.188 L338.776,144 L339.728,144 L339.728,139.828 C339.728,138.134 339.028,137.028 337.362,137.028 C336.27,137.028 335.318,137.504 334.688,137.91 L335.136,138.708 C335.668,138.344 336.382,137.98 337.166,137.98 C338.286,137.98 338.566,138.82 338.566,139.688 C335.668,140.01 334.394,140.752 334.394,142.236 C334.394,143.454 335.248,144.168 336.382,144.168 Z M336.718,143.244 C336.046,143.244 335.514,142.922 335.514,142.152 C335.514,141.284 336.298,140.724 338.566,140.444 L338.566,142.334 C337.908,142.922 337.376,143.244 336.718,143.244 Z M344.194,144.168 C344.992,144.168 345.72,143.72 346.252,143.202 L346.294,143.202 L346.392,144 L347.344,144 L347.344,134.032 L346.182,134.032 L346.182,136.65 L346.238,137.812 C345.636,137.322 345.118,137.028 344.334,137.028 C342.78,137.028 341.38,138.4 341.38,140.612 C341.38,142.88 342.486,144.168 344.194,144.168 Z M344.446,143.202 C343.256,143.202 342.57,142.222 342.57,140.598 C342.57,139.044 343.438,137.994 344.53,137.994 C345.09,137.994 345.608,138.19 346.182,138.708 L346.182,142.264 C345.622,142.894 345.076,143.202 344.446,143.202 Z M351.208,144.168 C352.062,144.168 352.818,143.72 353.462,143.188 L353.504,143.188 L353.602,144 L354.554,144 L354.554,139.828 C354.554,138.134 353.854,137.028 352.188,137.028 C351.096,137.028 350.144,137.504 349.514,137.91 L349.962,138.708 C350.494,138.344 351.208,137.98 351.992,137.98 C353.112,137.98 353.392,138.82 353.392,139.688 C350.494,140.01 349.22,140.752 349.22,142.236 C349.22,143.454 350.074,144.168 351.208,144.168 Z M351.544,143.244 C350.872,143.244 350.34,142.922 350.34,142.152 C350.34,141.284 351.124,140.724 353.392,140.444 L353.392,142.334 C352.734,142.922 352.202,143.244 351.544,143.244 Z M358.474,144.168 C360.084,144.168 360.966,143.244 360.966,142.138 C360.966,140.85 359.874,140.444 358.894,140.08 C358.124,139.786 357.382,139.548 357.382,138.904 C357.382,138.386 357.774,137.924 358.628,137.924 C359.23,137.924 359.72,138.176 360.182,138.526 L360.728,137.798 C360.21,137.378 359.468,137.028 358.614,137.028 C357.144,137.028 356.276,137.868 356.276,138.96 C356.276,140.108 357.34,140.57 358.306,140.92 C359.048,141.2 359.86,141.508 359.86,142.208 C359.86,142.796 359.412,143.272 358.516,143.272 C357.704,143.272 357.102,142.936 356.514,142.46 L355.94,143.23 C356.584,143.762 357.508,144.168 358.474,144.168 Z" id="Referenteàspropostasaprovadasqueaindanãoforamefetivadas" fill="#999999" fill-rule="nonzero"></path>
                        <path d="M3.892,10.168 C6.16,10.168 7.448,8.796 7.448,7.256 C7.448,5.996 6.804,5.212 5.67,4.764 L4.564,4.33 C3.738,4.008 3.22,3.854 3.22,3.42 C3.22,3.014 3.584,2.804 4.172,2.804 C4.844,2.804 5.376,3.028 5.992,3.462 L7.196,1.95 C6.356,1.124 5.208,0.732 4.172,0.732 C2.184,0.732 0.784,2.006 0.784,3.56 C0.784,4.876 1.638,5.702 2.618,6.094 L3.752,6.57 L4.06269388,6.69306122 C4.64457143,6.924 4.984,7.08 4.984,7.452 C4.984,7.858 4.676,8.096 3.948,8.096 C3.276,8.096 2.464,7.732 1.82,7.214 L0.448,8.866 C1.428,9.748 2.744,10.168 3.892,10.168 Z M12.628,10.168 C15.176,10.168 16.352,8.712 16.352,5.604 L16.352,0.9 L14.028,0.9 L14.028,5.884 C14.028,7.508 13.58,8.096 12.628,8.096 C11.676,8.096 11.256,7.508 11.256,5.884 L11.256,0.9 L8.848,0.9 L8.848,5.604 C8.848,8.712 10.08,10.168 12.628,10.168 Z M19.488,10 L19.936,8.068 L22.484,8.068 L22.932,10 L25.48,10 L22.708,0.9 L19.796,0.9 L17.024,10 L19.488,10 Z M22.05,6.206 L20.37,6.206 L20.524,5.576 C20.748,4.708 20.972,3.616 21.168,2.692 L21.224,2.692 C21.448,3.602 21.672,4.708 21.896,5.576 L22.05,6.206 Z M29.232,10.168 C31.5,10.168 32.788,8.796 32.788,7.256 C32.788,5.996 32.144,5.212 31.01,4.764 L29.904,4.33 C29.078,4.008 28.56,3.854 28.56,3.42 C28.56,3.014 28.924,2.804 29.512,2.804 C30.184,2.804 30.716,3.028 31.332,3.462 L32.536,1.95 C31.696,1.124 30.548,0.732 29.512,0.732 C27.524,0.732 26.124,2.006 26.124,3.56 C26.124,4.876 26.978,5.702 27.958,6.094 L29.092,6.57 C29.862,6.878 30.324,7.018 30.324,7.452 C30.324,7.858 30.016,8.096 29.288,8.096 C28.616,8.096 27.804,7.732 27.16,7.214 L25.788,8.866 C26.768,9.748 28.084,10.168 29.232,10.168 Z M41.496,10 L44.184,0.9 L41.72,0.9 L40.796,4.876 C40.558,5.842 40.376,6.78 40.124,7.76 L40.068,7.76 C39.816,6.78 39.648,5.842 39.396,4.876 L38.444,0.9 L35.896,0.9 L38.584,10 L41.496,10 Z M51.072,10 L51.072,7.984 L47.46,7.984 L47.46,6.36 L50.428,6.36 L50.428,4.344 L47.46,4.344 L47.46,2.916 L50.932,2.916 L50.932,0.9 L45.052,0.9 L45.052,10 L51.072,10 Z M55.132,10 L55.132,7.368 C55.132,6.248 54.936,4.932 54.824,3.896 L54.88,3.896 L55.748,5.926 L57.764,10 L60.228,10 L60.228,0.9 L57.932,0.9 L57.932,3.532 C57.932,4.652 58.128,6.024 58.24,7.004 L58.184,7.004 L57.316,4.96 L55.3,0.9 L52.836,0.9 L52.836,10 L55.132,10 Z M65.072,10 C67.704,10 69.608,8.628 69.608,5.408 C69.608,2.188 67.704,0.9 64.932,0.9 L62.244,0.9 L62.244,10 L65.072,10 Z M64.792,8.068 L64.652,8.068 L64.652,2.832 L64.792,2.832 C66.108,2.832 67.144,3.28 67.144,5.408 C67.144,7.536 66.108,8.068 64.792,8.068 Z M72.408,10 L72.856,8.068 L75.404,8.068 L75.852,10 L78.4,10 L75.628,0.9 L72.716,0.9 L69.944,10 L72.408,10 Z M74.97,6.206 L73.29,6.206 L73.444,5.576 C73.668,4.708 73.892,3.616 74.088,2.692 L74.144,2.692 C74.368,3.602 74.592,4.708 74.816,5.576 L74.97,6.206 Z M82.152,10.168 C84.42,10.168 85.708,8.796 85.708,7.256 C85.708,5.996 85.064,5.212 83.93,4.764 L82.824,4.33 C81.998,4.008 81.48,3.854 81.48,3.42 C81.48,3.014 81.844,2.804 82.432,2.804 C83.104,2.804 83.636,3.028 84.252,3.462 L85.456,1.95 C84.616,1.124 83.468,0.732 82.432,0.732 C80.444,0.732 79.044,2.006 79.044,3.56 C79.044,4.876 79.898,5.702 80.878,6.094 L82.012,6.57 L82.3226939,6.69306122 C82.9045714,6.924 83.244,7.08 83.244,7.452 C83.244,7.858 82.936,8.096 82.208,8.096 C81.536,8.096 80.724,7.732 80.08,7.214 L78.708,8.866 C79.688,9.748 81.004,10.168 82.152,10.168 Z" id="SUASVENDAS" fill="#A4AFB7" fill-rule="nonzero"></path>
                        <path d="M4.48,61 L4.48,56.3 L6.1,56.3 L8.6,61 L11.9,61 L8.94,55.78 C10.34,55.16 11.26,53.94 11.26,52.02 C11.26,48.92 9,47.96 6.24,47.96 L1.54,47.96 L1.54,61 L4.48,61 Z M6,53.96 L4.48,53.96 L4.48,50.3 L6,50.3 C7.54,50.3 8.38,50.74 8.38,52.02 C8.38,53.3 7.54,53.96 6,53.96 Z M16.9,63.2 L16.9,61.12 C18.96,60.68 20.02,59.2 20.02,57.28 C20.02,53.46 14.74,53.62 14.74,51.72 C14.74,50.82 15.26,50.44 16.22,50.44 C17.06,50.44 17.68,50.78 18.4,51.44 L19.88,49.76 C19.1,48.94 18.18,48.3 16.9,48.12 L16.9,46.1 L14.96,46.1 L14.96,48.16 C13.08,48.54 11.92,49.9 11.92,51.86 C11.92,55.46 17.2,55.42 17.2,57.48 C17.2,58.4 16.7,58.86 15.58,58.86 C14.62,58.86 13.74,58.46 12.72,57.7 L11.44,59.68 C12.38,60.54 13.78,61.06 14.96,61.2 L14.96,63.2 L16.9,63.2 Z M29.796,61.384 C33.892,61.384 37.348,59.24 37.348,55.464 C37.348,52.84 35.652,51.176 33.316,50.504 L33.316,50.376 C35.492,49.448 36.708,47.976 36.708,45.864 C36.708,42.312 33.892,40.296 29.7,40.296 C27.204,40.296 25.156,41.288 23.3,42.888 L25.668,45.768 C26.948,44.648 28.036,43.976 29.476,43.976 C31.076,43.976 31.972,44.808 31.972,46.216 C31.972,47.848 30.82,48.936 27.172,48.936 L27.172,52.264 C31.588,52.264 32.644,53.384 32.644,55.176 C32.644,56.712 31.332,57.576 29.348,57.576 C27.62,57.576 26.116,56.712 24.9,55.528 L22.724,58.504 C24.196,60.232 26.5,61.384 29.796,61.384 Z M45.22,61.384 C49.188,61.384 52.676,58.792 52.676,54.28 C52.676,49.96 49.7,47.976 46.212,47.976 C45.38,47.976 44.708,48.104 43.94,48.456 L44.292,44.648 L51.748,44.648 L51.748,40.68 L40.228,40.68 L39.652,50.952 L41.764,52.296 C42.98,51.528 43.588,51.272 44.772,51.272 C46.66,51.272 47.972,52.36 47.972,54.408 C47.972,56.488 46.628,57.576 44.548,57.576 C42.82,57.576 41.38,56.68 40.164,55.56 L38.052,58.536 C39.652,60.136 41.892,61.384 45.22,61.384 Z M57.412,61.384 C59.044,61.384 60.26,60.104 60.26,58.44 C60.26,56.744 59.044,55.464 57.412,55.464 C55.78,55.464 54.564,56.744 54.564,58.44 C54.564,60.104 55.78,61.384 57.412,61.384 Z M69.06,61.384 C73.412,61.384 76.324,57.672 76.324,50.76 C76.324,43.848 73.412,40.296 69.06,40.296 C64.708,40.296 61.796,43.848 61.796,50.76 C61.796,57.672 64.708,61.384 69.06,61.384 Z M69.06,57.736 C67.492,57.736 66.244,56.296 66.244,50.76 C66.244,45.192 67.492,43.944 69.06,43.944 C70.66,43.944 71.876,45.192 71.876,50.76 C71.876,56.296 70.66,57.736 69.06,57.736 Z M83.684,61.384 C87.78,61.384 91.236,59.24 91.236,55.464 C91.236,52.84 89.54,51.176 87.204,50.504 L87.204,50.376 C89.38,49.448 90.596,47.976 90.596,45.864 C90.596,42.312 87.78,40.296 83.588,40.296 C81.092,40.296 79.044,41.288 77.188,42.888 L79.556,45.768 C80.836,44.648 81.924,43.976 83.364,43.976 C84.964,43.976 85.86,44.808 85.86,46.216 C85.86,47.848 84.708,48.936 81.06,48.936 L81.06,52.264 C85.476,52.264 86.532,53.384 86.532,55.176 C86.532,56.712 85.22,57.576 83.236,57.576 C81.508,57.576 80.004,56.712 78.788,55.528 L76.612,58.504 C78.084,60.232 80.388,61.384 83.684,61.384 Z M99.108,61.384 C103.076,61.384 106.564,58.792 106.564,54.28 C106.564,49.96 103.588,47.976 100.1,47.976 C99.268,47.976 98.596,48.104 97.828,48.456 L98.18,44.648 L105.636,44.648 L105.636,40.68 L94.116,40.68 L93.54,50.952 L95.652,52.296 C96.868,51.528 97.476,51.272 98.66,51.272 C100.548,51.272 101.86,52.36 101.86,54.408 C101.86,56.488 100.516,57.576 98.436,57.576 C96.708,57.576 95.268,56.68 94.052,55.56 L91.94,58.536 C93.54,60.136 95.78,61.384 99.108,61.384 Z" id="R$35.035" fill="#224D74" fill-rule="nonzero"></path>
                        <path d="M182.48,61 L182.48,56.3 L184.1,56.3 L186.6,61 L189.9,61 L186.94,55.78 C188.34,55.16 189.26,53.94 189.26,52.02 C189.26,48.92 187,47.96 184.24,47.96 L179.54,47.96 L179.54,61 L182.48,61 Z M184,53.96 L182.48,53.96 L182.48,50.3 L184,50.3 C185.54,50.3 186.38,50.74 186.38,52.02 C186.38,53.3 185.54,53.96 184,53.96 Z M194.9,63.2 L194.9,61.12 C196.96,60.68 198.02,59.2 198.02,57.28 C198.02,53.46 192.74,53.62 192.74,51.72 C192.74,50.82 193.26,50.44 194.22,50.44 C195.06,50.44 195.68,50.78 196.4,51.44 L197.88,49.76 C197.1,48.94 196.18,48.3 194.9,48.12 L194.9,46.1 L192.96,46.1 L192.96,48.16 C191.08,48.54 189.92,49.9 189.92,51.86 C189.92,55.46 195.2,55.42 195.2,57.48 C195.2,58.4 194.7,58.86 193.58,58.86 C192.62,58.86 191.74,58.46 190.72,57.7 L189.44,59.68 C190.38,60.54 191.78,61.06 192.96,61.2 L192.96,63.2 L194.9,63.2 Z M213.812,61 L213.812,56.136 L216.148,56.136 L216.148,52.552 L213.812,52.552 L213.812,40.68 L208.052,40.68 L200.628,52.904 L200.628,56.136 L209.428,56.136 L209.428,61 L213.812,61 Z M209.428,52.552 L205.14,52.552 L207.828,48.136 C208.404,46.984 208.98,45.832 209.492,44.712 L209.62,44.712 C209.556,45.992 209.428,47.944 209.428,49.256 L209.428,52.552 Z M230.804,61 L230.804,57.032 L226.708,57.032 C225.748,57.032 224.34,57.16 223.316,57.288 C226.612,53.832 229.812,50.184 229.812,46.76 C229.812,42.856 227.092,40.296 223.092,40.296 C220.18,40.296 218.292,41.384 216.276,43.528 L218.836,46.056 C219.86,44.968 220.98,43.976 222.452,43.976 C224.212,43.976 225.332,45.064 225.332,47.048 C225.332,49.928 221.684,53.416 216.5,58.312 L216.5,61 L230.804,61 Z M235.412,61.384 C237.044,61.384 238.26,60.104 238.26,58.44 C238.26,56.744 237.044,55.464 235.412,55.464 C233.78,55.464 232.564,56.744 232.564,58.44 C232.564,60.104 233.78,61.384 235.412,61.384 Z M246.516,61.384 C250.484,61.384 253.972,58.792 253.972,54.28 C253.972,49.96 250.996,47.976 247.508,47.976 C246.676,47.976 246.004,48.104 245.236,48.456 L245.588,44.648 L253.044,44.648 L253.044,40.68 L241.524,40.68 L240.948,50.952 L243.06,52.296 C244.276,51.528 244.884,51.272 246.068,51.272 C247.956,51.272 249.268,52.36 249.268,54.408 C249.268,56.488 247.924,57.576 245.844,57.576 C244.116,57.576 242.676,56.68 241.46,55.56 L239.348,58.536 C240.948,60.136 243.188,61.384 246.516,61.384 Z M262.356,61.384 C266.708,61.384 269.62,57.672 269.62,50.76 C269.62,43.848 266.708,40.296 262.356,40.296 C258.004,40.296 255.092,43.848 255.092,50.76 C255.092,57.672 258.004,61.384 262.356,61.384 Z M262.356,57.736 C260.788,57.736 259.54,56.296 259.54,50.76 C259.54,45.192 260.788,43.944 262.356,43.944 C263.956,43.944 265.172,45.192 265.172,50.76 C265.172,56.296 263.956,57.736 262.356,57.736 Z M284.372,61 L284.372,57.192 L280.564,57.192 L280.564,40.68 L277.108,40.68 C275.668,41.544 274.26,42.12 272.052,42.536 L272.052,45.448 L275.86,45.448 L275.86,57.192 L271.444,57.192 L271.444,61 L284.372,61 Z" id="R$42.501" fill="#224D74" fill-rule="nonzero"></path>
                        <path d="M181.416,10 L181.416,7.116 L182.396,7.116 C184.3,7.116 186.036,6.15 186.036,3.924 C186.036,1.628 184.328,0.9 182.34,0.9 L179.008,0.9 L179.008,10 L181.416,10 Z M182.284,5.212 L181.416,5.212 L181.416,2.804 L182.228,2.804 C183.152,2.804 183.684,3.112 183.684,3.924 C183.684,4.736 183.236,5.212 182.284,5.212 Z M189.928,10 L189.928,6.948 L190.852,6.948 L192.42,10 L195.108,10 L193.134,6.472 C194.016,5.996 194.604,5.142 194.604,3.84 C194.604,1.572 192.924,0.9 190.964,0.9 L187.52,0.9 L187.52,10 L189.928,10 Z M190.796,5.044 L189.928,5.044 L189.928,2.804 L190.796,2.804 C191.748,2.804 192.252,3.056 192.252,3.84 C192.252,4.624 191.748,5.044 190.796,5.044 Z M200.176,10.168 C202.696,10.168 204.404,8.404 204.404,5.408 C204.404,2.426 202.696,0.732 200.176,0.732 C197.656,0.732 195.948,2.412 195.948,5.408 C195.948,8.404 197.656,10.168 200.176,10.168 Z M200.176,8.096 C199.084,8.096 198.412,7.06 198.412,5.408 C198.412,3.756 199.084,2.804 200.176,2.804 C201.268,2.804 201.94,3.756 201.94,5.408 C201.94,7.06 201.268,8.096 200.176,8.096 Z M208.436,10 L208.436,7.116 L209.416,7.116 C211.32,7.116 213.056,6.15 213.056,3.924 C213.056,1.628 211.348,0.9 209.36,0.9 L206.028,0.9 L206.028,10 L208.436,10 Z M209.304,5.212 L208.436,5.212 L208.436,2.804 L209.248,2.804 C210.172,2.804 210.704,3.112 210.704,3.924 C210.704,4.736 210.256,5.212 209.304,5.212 Z M218.376,10.168 C220.896,10.168 222.604,8.404 222.604,5.408 C222.604,2.426 220.896,0.732 218.376,0.732 C215.856,0.732 214.148,2.412 214.148,5.408 C214.148,8.404 215.856,10.168 218.376,10.168 Z M218.376,8.096 C217.284,8.096 216.612,7.06 216.612,5.408 C216.612,3.756 217.284,2.804 218.376,2.804 C219.468,2.804 220.14,3.756 220.14,5.408 C220.14,7.06 219.468,8.096 218.376,8.096 Z M227.112,10.168 C229.38,10.168 230.668,8.796 230.668,7.256 C230.668,5.996 230.024,5.212 228.89,4.764 L227.784,4.33 C226.958,4.008 226.44,3.854 226.44,3.42 C226.44,3.014 226.804,2.804 227.392,2.804 C228.064,2.804 228.596,3.028 229.212,3.462 L230.416,1.95 C229.576,1.124 228.428,0.732 227.392,0.732 C225.404,0.732 224.004,2.006 224.004,3.56 C224.004,4.876 224.858,5.702 225.838,6.094 L226.972,6.57 L227.282694,6.69306122 C227.864571,6.924 228.204,7.08 228.204,7.452 C228.204,7.858 227.896,8.096 227.168,8.096 C226.496,8.096 225.684,7.732 225.04,7.214 L223.668,8.866 C224.648,9.748 225.964,10.168 227.112,10.168 Z M235.988,10 L235.988,2.916 L238.396,2.916 L238.396,0.9 L231.172,0.9 L231.172,2.916 L233.58,2.916 L233.58,10 L235.988,10 Z M240.496,10 L240.944,8.068 L243.492,8.068 L243.94,10 L246.488,10 L243.716,0.9 L240.804,0.9 L238.032,10 L240.496,10 Z M243.058,6.206 L241.378,6.206 L241.532,5.576 C241.756,4.708 241.98,3.616 242.176,2.692 L242.232,2.692 C242.456,3.602 242.68,4.708 242.904,5.576 L243.058,6.206 Z M250.24,10.168 C252.508,10.168 253.796,8.796 253.796,7.256 C253.796,5.996 253.152,5.212 252.018,4.764 L250.912,4.33 C250.086,4.008 249.568,3.854 249.568,3.42 C249.568,3.014 249.932,2.804 250.52,2.804 C251.192,2.804 251.724,3.028 252.34,3.462 L253.544,1.95 C252.704,1.124 251.556,0.732 250.52,0.732 C248.532,0.732 247.132,2.006 247.132,3.56 C247.132,4.876 247.986,5.702 248.966,6.094 L250.1,6.57 L250.410694,6.69306122 C250.992571,6.924 251.332,7.08 251.332,7.452 C251.332,7.858 251.024,8.096 250.296,8.096 C249.624,8.096 248.812,7.732 248.168,7.214 L246.796,8.866 C247.776,9.748 249.092,10.168 250.24,10.168 Z M259.368,10 L259.816,8.068 L262.364,8.068 L262.812,10 L265.36,10 L262.588,0.9 L259.676,0.9 L256.904,10 L259.368,10 Z M261.93,6.206 L260.25,6.206 L260.404,5.576 C260.628,4.708 260.852,3.616 261.048,2.692 L261.104,2.692 C261.328,3.602 261.552,4.708 261.776,5.576 L261.93,6.206 Z M271.436,10 L271.436,6.668 L274.46,6.668 L274.46,4.652 L271.436,4.652 L271.436,2.916 L274.964,2.916 L274.964,0.9 L269.028,0.9 L269.028,10 L271.436,10 Z M282.552,10 L282.552,7.984 L278.94,7.984 L278.94,6.36 L281.908,6.36 L281.908,4.344 L278.94,4.344 L278.94,2.916 L282.412,2.916 L282.412,0.9 L276.532,0.9 L276.532,10 L282.552,10 Z M288.264,10.168 C289.44,10.168 290.49,9.72 291.26,8.824 L290,7.312 C289.608,7.732 289.048,8.096 288.348,8.096 C287.172,8.096 286.388,7.144 286.388,5.436 C286.388,3.784 287.312,2.804 288.376,2.804 C288.992,2.804 289.44,3.084 289.888,3.476 L291.148,1.936 C290.504,1.292 289.524,0.732 288.32,0.732 C286.024,0.732 283.924,2.468 283.924,5.52 C283.924,8.628 285.94,10.168 288.264,10.168 Z M294.928,10 L294.928,6.388 L297.644,6.388 L297.644,10 L300.052,10 L300.052,0.9 L297.644,0.9 L297.644,4.288 L294.928,4.288 L294.928,0.9 L292.52,0.9 L292.52,10 L294.928,10 Z M303.384,10 L303.832,8.068 L306.38,8.068 L306.828,10 L309.376,10 L306.604,0.9 L303.692,0.9 L300.92,10 L303.384,10 Z M305.946,6.206 L304.266,6.206 L304.42,5.576 C304.644,4.708 304.868,3.616 305.064,2.692 L305.12,2.692 C305.344,3.602 305.568,4.708 305.792,5.576 L305.946,6.206 Z M312.652,10 L312.652,6.948 L313.576,6.948 L315.144,10 L317.832,10 L315.858,6.472 C316.74,5.996 317.328,5.142 317.328,3.84 C317.328,1.572 315.648,0.9 313.688,0.9 L310.244,0.9 L310.244,10 L312.652,10 Z M313.52,5.044 L312.652,5.044 L312.652,2.804 L313.52,2.804 C314.472,2.804 314.976,3.056 314.976,3.84 C314.976,4.624 314.472,5.044 313.52,5.044 Z" id="PROPOSTASAFECHAR" fill="#A4AFB7" fill-rule="nonzero"></path>
                    </g>
                </g>
            </g>
        </g>
    </g>
</svg>