<?xml version="1.0" encoding="UTF-8"?>
<svg width="48px" height="48px" viewBox="0 0 48 48" version="1.1" xmlns="http://www.w3.org/2000/svg" xmlns:xlink="http://www.w3.org/1999/xlink">
    <!-- Generator: Sketch 63.1 (92452) - https://sketch.com -->
    <title>Group 5</title>
    <desc>Created with Sketch.</desc>
    <g id="Design" stroke="none" stroke-width="1" fill="none" fill-rule="evenodd">
        <g id="1.-Dashboard" transform="translate(-940.000000, -218.000000)">
            <g id="Group" transform="translate(602.000000, 128.000000)">
                <g id="Group-6-Copy-2" transform="translate(251.000000, 60.000000)">
                    <g id="Group-5" transform="translate(87.000000, 30.000000)">
                        <rect id="Rectangle-Copy-2" fill="#224D74" x="0" y="0" width="48" height="48"></rect>
                        <path d="M33.782,39 L14.219,39 C13.269,39 12.5,38.231 12.5,37.282 L12.5,10.718 C12.5,9.769 13.269,9 14.219,9 L33.782,9 C34.731,9 35.5,9.769 35.5,10.718 L35.5,37.282 C35.5,38.231 34.731,39 33.782,39 Z" id="Stroke-5" stroke-opacity="0.32" stroke="#FFFFFF" stroke-width="1.2" stroke-linecap="round" stroke-linejoin="round" transform="translate(24.000000, 24.000000) rotate(-270.000000) translate(-24.000000, -24.000000) "></path>
                        <path d="M24.95842,32.5 L24.95842,30.9994193 C25.4449064,30.9862563 25.9313929,30.8941154 26.4178794,30.7229965 C26.9043659,30.5518777 27.3378378,30.3083624 27.7182952,29.9924506 C28.0987526,29.6765389 28.4074844,29.2915215 28.6444906,28.8373984 C28.8814969,28.3832753 29,27.866628 29,27.2874564 C29,26.5371661 28.9033264,25.9217964 28.7099792,25.4413473 C28.516632,24.9608982 28.2453222,24.5692993 27.8960499,24.2665505 C27.5467775,23.9638018 27.1226611,23.7202865 26.6237006,23.5360046 C26.1247401,23.3517228 25.5696466,23.1806039 24.95842,23.0226481 L24.95842,23.0226481 L24.95842,17.7706156 C25.2952183,17.7706156 25.6101871,17.829849 25.9033264,17.9483159 C26.1964657,18.0667828 26.452183,18.2313202 26.6704782,18.441928 C26.8887734,18.6525358 27.0634096,18.9059233 27.1943867,19.2020906 C27.3253638,19.4982578 27.3908524,19.8240418 27.3908524,20.1794425 L27.3908524,20.1794425 L28.6070686,20.1794425 C28.5821206,19.626597 28.4760915,19.1329849 28.2889813,18.6986063 C28.1018711,18.2642276 27.8461538,17.8989547 27.5218295,17.6027875 C27.1975052,17.3066202 26.8170478,17.0828494 26.3804574,16.931475 C25.9438669,16.7801007 25.4698545,16.7044135 24.95842,16.7044135 L24.95842,16.7044135 L24.95842,15.5 L24.0977131,15.5 L24.0977131,16.7044135 C23.5862786,16.6912505 23.1060291,16.7669377 22.6569647,16.931475 C22.2079002,17.0960124 21.8118503,17.3362369 21.468815,17.6521487 C21.1257796,17.9680604 20.8544699,18.3497871 20.6548857,18.7973287 C20.4553015,19.2448703 20.3555094,19.7450639 20.3555094,20.2979094 C20.3555094,20.9165699 20.452183,21.4365079 20.6455301,21.8577236 C20.8388773,22.2789392 21.1039501,22.6310492 21.4407484,22.9140534 C21.7775468,23.1970577 22.1735967,23.42741 22.6288981,23.6051103 C23.0841996,23.7828107 23.5675676,23.9374758 24.0790021,24.0691057 L24.0790021,24.0691057 L24.0790021,29.9332172 C23.6548857,29.9068912 23.2681913,29.8015873 22.9189189,29.6173055 C22.5696466,29.4330236 22.2671518,29.1927991 22.0114345,28.8966318 C21.7557173,28.6004646 21.5592516,28.2582269 21.4220374,27.8699187 C21.2848233,27.4816105 21.2162162,27.0636856 21.2162162,26.616144 L21.2162162,26.616144 L20,26.616144 C20.012474,26.7740999 20.024948,26.9320557 20.037422,27.0900116 C20.049896,27.2479675 20.0686071,27.4125048 20.0935551,27.5836237 C20.3180873,28.6893148 20.7765073,29.518583 21.468815,30.0714286 C22.1611227,30.6242741 23.037422,30.9336043 24.0977131,30.9994193 L24.0977131,30.9994193 L24.0977131,32.5 L24.95842,32.5 Z M24.0790021,22.8449477 C23.7297297,22.7396438 23.4022869,22.6277584 23.0966736,22.5092915 C22.7910603,22.3908246 22.522869,22.2361595 22.2920998,22.0452962 C22.0613306,21.8544328 21.8804574,21.6142083 21.7494802,21.3246225 C21.6185031,21.0350368 21.5530146,20.6730546 21.5530146,20.238676 C21.5530146,19.8701123 21.6185031,19.5344561 21.7494802,19.2317073 C21.8804574,18.9289586 22.0613306,18.6689895 22.2920998,18.4518002 C22.522869,18.2346109 22.7910603,18.0667828 23.0966736,17.9483159 C23.4022869,17.829849 23.7297297,17.7706156 24.0790021,17.7706156 L24.0790021,17.7706156 L24.0790021,22.8449477 Z M24.95842,29.9332172 L24.95842,24.2665505 C25.3575884,24.3586914 25.7286902,24.4639954 26.0717256,24.5824623 C26.4147609,24.7009292 26.7141372,24.8621758 26.9698545,25.0662021 C27.2255717,25.2702284 27.4282744,25.5334882 27.5779626,25.8559814 C27.7276507,26.1784746 27.8024948,26.5832365 27.8024948,27.0702671 C27.8024948,27.4914828 27.7276507,27.8765002 27.5779626,28.2253194 C27.4282744,28.5741386 27.2224532,28.8735966 26.960499,29.1236934 C26.6985447,29.3737902 26.3960499,29.571235 26.0530146,29.7160279 C25.7099792,29.8608208 25.3451143,29.9332172 24.95842,29.9332172 L24.95842,29.9332172 Z" id="$" fill="#FFFFFF" fill-rule="nonzero"></path>
                    </g>
                </g>
            </g>
        </g>
    </g>
</svg>