<?xml version="1.0" encoding="UTF-8"?>
<svg width="64px" height="64px" viewBox="0 0 64 64" version="1.1" xmlns="http://www.w3.org/2000/svg" xmlns:xlink="http://www.w3.org/1999/xlink">
    <title>Group 9</title>
    <g id="Design" stroke="none" stroke-width="1" fill="none" fill-rule="evenodd">
        <g id="7.-Inicialização-–-Cadastro-de-Proposta-&gt;-2.Proposta-[Vendo-Perfil-Completo]-&gt;-Modal-Aviso" transform="translate(-929.000000, -432.000000)">
            <g id="Group-12" transform="translate(698.000000, 384.000000)">
                <g id="Group-9" transform="translate(231.000000, 48.000000)">
                    <circle id="Oval" fill="#F79028" cx="32" cy="32" r="32"></circle>
                    <path d="M45.9339702,44.9999288 C48.0940374,44.9999288 49.4515895,42.6565849 48.3700682,40.7819327 L34.3111494,16.4053886 C33.2310014,14.5332541 30.5208752,14.5298209 29.4388389,16.4053886 L15.3795196,40.7819327 C14.3001154,42.65298 15.6514306,44.9999288 17.8156748,44.9999288 L45.9339702,44.9999288 Z M33.2972625,34.6874534 L30.4527258,34.6874534 C30.079306,34.6874534 29.7710029,34.3955153 29.7506897,34.0226676 L29.3160441,26.0539366 C29.2940715,25.6511628 29.614677,25.3124757 30.018023,25.3124757 L33.7319081,25.3124757 C34.1352541,25.3124757 34.4559168,25.6511628 34.4339442,26.0539366 L33.9992986,34.0226676 C33.9789854,34.3955153 33.6706823,34.6874534 33.2972625,34.6874534 Z M31.8749942,41.1327505 C30.3864075,41.1327505 29.1796881,39.9260311 29.1796881,38.4374444 C29.1796881,36.9488577 30.3864075,35.7421383 31.8749942,35.7421383 C33.3635809,35.7421383 34.5703002,36.9488577 34.5703002,38.4374444 C34.5703002,39.9260311 33.3635809,41.1327505 31.8749942,41.1327505 Z" id="e" fill="#FFFFFF" fill-rule="nonzero"></path>
                </g>
            </g>
        </g>
    </g>
</svg>