<?xml version="1.0" encoding="UTF-8"?>
<svg width="24px" height="24px" viewBox="0 0 24 24" version="1.1" xmlns="http://www.w3.org/2000/svg" xmlns:xlink="http://www.w3.org/1999/xlink">
    <!-- Generator: Sketch 63.1 (92452) - https://sketch.com -->
    <title>Artboard</title>
    <desc>Created with Sketch.</desc>
    <g id="Artboard" stroke="none" stroke-width="1" fill="none" fill-rule="evenodd">
        <g id="Group-27">
            <rect id="Rectangle" fill-opacity="0" fill="#D8D8D8" x="0" y="0" width="24" height="24"></rect>
            <path d="M16.499975,19.9999952 C17.328098,19.9999952 17.9999714,19.3281218 17.9999714,18.4999988 L17.9999714,8.12191076 C17.9999714,7.7250306 17.840609,7.34066262 17.5593596,7.05941329 L14.9374787,4.43753234 C14.6562294,4.15628301 14.2749742,3.99692059 13.878094,3.99692059 L7.5,3.99692059 C6.6718734,4.00003338 6,4.67190678 6,5.5000298 L6,18.4999988 C6,19.3281218 6.6718734,19.9999952 7.5,19.9999952 L16.499975,19.9999952 Z M16.499975,18.4999988 L7.49999642,18.4999988 L7.49999642,5.5000298 L12.4999845,5.5000298 L12.4999845,8.75002205 C12.4999845,9.16563996 12.8343648,9.5000298 13.2499827,9.5000298 L16.499975,9.5000298 L16.499975,18.4999988 Z M16.378088,8.00002384 L13.9999809,8.00002384 L13.9999809,5.62191672 L16.378088,8.00002384 Z" id="f" fill="#224D74" fill-rule="nonzero"></path>
        </g>
    </g>
</svg>