<?xml version="1.0" encoding="UTF-8"?>
<svg width="24px" height="24px" viewBox="0 0 24 24" version="1.1" xmlns="http://www.w3.org/2000/svg" xmlns:xlink="http://www.w3.org/1999/xlink">
    <title>Artboard</title>
    <g id="Artboard" stroke="none" stroke-width="1" fill="none" fill-rule="evenodd">
        <path d="M15.4999797,20.9999952 C16.3281028,20.9999952 16.9999762,20.3281218 16.9999762,19.4999988 L16.9999762,6.50003338 C16.9999762,5.67190678 16.3281028,5.00003338 15.4999797,5.00003338 L8.5,5.00003338 C7.6718734,5.00003338 7,5.67190678 7,6.50003338 L7,19.4999988 C7,20.3281218 7.6718734,20.9999952 8.5,20.9999952 L15.4999797,20.9999952 Z M15.1249806,17.0000048 L8.87499553,17.0000048 C8.66875823,17.0000048 8.49999642,16.831243 8.49999642,16.6250057 L8.49999642,6.87502891 C8.49999642,6.66879161 8.66875823,6.5000298 8.87499553,6.5000298 L15.1249806,6.5000298 C15.3312179,6.5000298 15.4999797,6.66879161 15.4999797,6.87502891 L15.4999797,16.6250057 C15.4999797,16.831243 15.3312179,17.0000048 15.1249806,17.0000048 Z M11.9999905,20.0000024 C11.4468583,20.0000024 10.9999905,19.5531298 10.9999905,19.0000024 C10.9999905,18.4468702 11.4468583,18.0000024 11.9999905,18.0000024 C12.5531179,18.0000024 12.9999905,18.4468702 12.9999905,19.0000024 C12.9999905,19.5531298 12.5531179,20.0000024 11.9999905,20.0000024 Z" id="icon-digital-contract" fill="#224D74" fill-rule="nonzero"></path>
    </g>
</svg>