<?xml version="1.0" encoding="UTF-8"?>
<svg width="62px" height="64px" viewBox="0 0 62 64" version="1.1" xmlns="http://www.w3.org/2000/svg" xmlns:xlink="http://www.w3.org/1999/xlink">
    <title>file-upload</title>
    <g id="Design" stroke="none" stroke-width="1" fill="none" fill-rule="evenodd">
        <g id="7.-Inicialização-–-Cadastro-de-Proposta-&gt;-2.Proposta-[Vendo-Perfil-Completo]-&gt;-Modal-Submetendo" transform="translate(-929.000000, -476.000000)" fill="#224D74" fill-rule="nonzero">
            <g id="Group-12-Copy" transform="translate(698.000000, 428.000000)">
                <g id="file-upload" transform="translate(231.000000, 48.000000)">
                    <g id="Group" transform="translate(6.125000, 8.375000)" fill-opacity="0.48">
                        <g id="Path">
                            <path d="M19.87175,1.92175 L0.980875,1.92175 C0.463125,1.92175 0.043375,1.502125 0.043375,0.98425 C0.043375,0.466375 0.463125,0.04675 0.980875,0.04675 L19.87175,0.04675 C20.3895,0.04675 20.80925,0.466375 20.80925,0.98425 C20.80925,1.502125 20.3895,1.92175 19.87175,1.92175 Z"></path>
                            <path d="M19.87175,8.09375 L0.980875,8.09375 C0.463125,8.09375 0.043375,7.674125 0.043375,7.15625 C0.043375,6.638375 0.463125,6.21875 0.980875,6.21875 L19.87175,6.21875 C20.3895,6.21875 20.80925,6.638375 20.80925,7.15625 C20.80925,7.674125 20.3895,8.09375 19.87175,8.09375 Z"></path>
                        </g>
                        <g transform="translate(0.000000, 17.500000)" id="Path">
                            <path d="M36.977875,1.987 L0.980875,1.987 C0.463125,1.987 0.043375,1.567375 0.043375,1.0495 C0.043375,0.531625 0.463125,0.112 0.980875,0.112 L36.977875,0.112 C37.495625,0.112 37.915375,0.531625 37.915375,1.0495 C37.915375,1.567375 37.495625,1.987 36.977875,1.987 Z"></path>
                            <path d="M36.977875,9.74975 L0.980875,9.74975 C0.463125,9.74975 0.043375,9.330125 0.043375,8.81225 C0.043375,8.294375 0.463125,7.87475 0.980875,7.87475 L36.977875,7.87475 C37.495625,7.87475 37.915375,8.294375 37.915375,8.81225 C37.915375,9.330125 37.495625,9.74975 36.977875,9.74975 Z"></path>
                            <path d="M27.627,17.512625 L0.980875,17.512625 C0.463125,17.512625 0.043375,17.093 0.043375,16.575125 C0.043375,16.05725 0.463125,15.637625 0.980875,15.637625 L27.627,15.637625 C28.14475,15.637625 28.5645,16.05725 28.5645,16.575125 C28.5645,17.093 28.14475,17.512625 27.627,17.512625 Z"></path>
                            <path d="M27.627,25.275375 L0.980875,25.275375 C0.463125,25.275375 0.043375,24.85575 0.043375,24.337875 C0.043375,23.82 0.463125,23.400375 0.980875,23.400375 L27.627,23.400375 C28.14475,23.400375 28.5645,23.82 28.5645,24.337875 C28.5645,24.85575 28.14475,25.275375 27.627,25.275375 Z"></path>
                        </g>
                    </g>
                    <path d="M49.878375,33.649625 L38.5775,44.950625 C38.56275,44.965375 38.553,44.975 38.56625,45.007125 C38.5795,45.03925 38.593375,45.03925 38.61425,45.03925 L44.552,45.03925 C45.06975,45.03925 45.4895,45.458875 45.4895,45.97675 L45.4895,61.097125 C45.4895,61.663875 45.9505,62.125 46.51725,62.125 L53.313,62.125 C53.87975,62.125 54.34075,61.664 54.34075,61.097125 L54.34075,45.97675 C54.34075,45.458875 54.7605,45.03925 55.27825,45.03925 L61.216,45.03925 C61.236875,45.03925 61.25075,45.03925 61.264,45.007125 C61.27725,44.975125 61.2675,44.965375 61.25275,44.950625 L49.95175,33.649625 C49.94175,33.6395 49.928375,33.634375 49.915125,33.634375 C49.901875,33.634375 49.8885,33.6395 49.878375,33.649625 Z" id="Path"></path>
                    <path d="M50.578,14.86825 L35.98425,0.2745 C35.8085,0.09875 35.57,0 35.321375,0 L4.352625,0 C2.011,0 0.106,1.905 0.106,4.24675 L0.106,59.753375 C0.106,62.095 2.011,64 4.352625,64 L40.283,64 C40.80075,64 41.2205,63.580375 41.2205,63.0625 C41.2205,62.544625 40.80075,62.125 40.283,62.125 L4.352625,62.125 C3.044875,62.125 1.981,61.061 1.981,59.75325 L1.981,4.24675 C1.981,2.939 3.044875,1.875 4.352625,1.875 L34.383875,1.875 L34.383875,13.030875 C34.383875,14.9265 35.926,16.46875 37.821625,16.46875 L48.977625,16.46875 L48.977625,28.360625 C48.977625,28.8785 49.397375,29.298125 49.915125,29.298125 C50.432875,29.298125 50.852625,28.8785 50.852625,28.360625 L50.852625,15.53125 C50.852625,15.282625 50.753875,15.04425 50.578,14.86825 Z M36.258875,13.030875 L36.258875,3.20075 L47.651875,14.59375 L37.82175,14.59375 C36.959875,14.59375 36.258875,13.89275 36.258875,13.030875 Z" id="Shape"></path>
                </g>
            </g>
        </g>
    </g>
</svg>