<?xml version="1.0" encoding="UTF-8"?>
<svg width="64px" height="64px" viewBox="0 0 64 64" version="1.1" xmlns="http://www.w3.org/2000/svg" xmlns:xlink="http://www.w3.org/1999/xlink">
    <title>coin</title>
    <g id="Design" stroke="none" stroke-width="1" fill="none" fill-rule="evenodd">
        <g id="8.-Simulação-–-Carregando" transform="translate(-929.000000, -616.000000)" fill-rule="nonzero">
            <g id="Group-12" transform="translate(698.000000, 568.000000)">
                <g id="coin" transform="translate(231.000000, 48.000000)">
                    <path d="M54.6275,9.3725 C48.583375,3.328625 40.5475,0 32,0 C23.4525,0 15.416625,3.328625 9.3725,9.3725 C3.328625,15.416625 0,23.4525 0,32 C0,40.5475 3.328625,48.583375 9.3725,54.6275 C15.416625,60.671375 23.4525,64 32,64 C40.5475,64 48.583375,60.671375 54.6275,54.6275 C60.671375,48.583375 64,40.5475 64,32 C64,23.4525 60.671375,15.416625 54.6275,9.3725 Z M32,60.25 C16.422875,60.25 3.75,47.577125 3.75,32 C3.75,16.422875 16.422875,3.75 32,3.75 C47.577125,3.75 60.25,16.422875 60.25,32 C60.25,47.577125 47.577125,60.25 32,60.25 Z" id="Shape" fill-opacity="0.24" fill="#224D74"></path>
                    <path d="M32,7.5 C18.490625,7.5 7.5,18.490625 7.5,32 C7.5,45.509375 18.490625,56.5 32,56.5 C45.509375,56.5 56.5,45.509375 56.5,32 C56.5,18.490625 45.509375,7.5 32,7.5 Z M28.176125,28.748875 L37.009625,31.6935 C39.62075,32.56375 41.375,34.997625 41.375,37.75 C41.375,39.8265 40.300875,41.823 38.42825,43.2275 C37.14925,44.186875 35.575375,44.82775 33.875,45.100375 L33.875,49 L30.125,49 L30.125,45.10025 C28.424625,44.827625 26.85075,44.18675 25.57175,43.227375 C23.699,41.823 22.625,39.8265 22.625,37.75 L26.375,37.75 C26.375,39.78275 28.950875,41.5 32,41.5 C35.049125,41.5 37.625,39.78275 37.625,37.75 C37.625,36.614375 36.901125,35.610125 35.823875,35.251125 L26.99025,32.3065 C24.37925,31.43625 22.625,29.002375 22.625,26.25 C22.625,24.1735 23.699,22.177 25.57175,20.7725 C26.850875,19.813125 28.42475,19.17225 30.125,18.899625 L30.125,15 L33.875,15 L33.875,18.89975 C35.575375,19.172375 37.14925,19.81325 38.42825,20.772625 C40.300875,22.177 41.375,24.1735 41.375,26.25 L37.625,26.25 C37.625,24.21725 35.049125,22.5 32,22.5 C28.950875,22.5 26.375,24.21725 26.375,26.25 C26.375,27.385625 27.098875,28.389875 28.176125,28.748875 Z" id="Shape" fill="#5AD800"></path>
                </g>
            </g>
        </g>
    </g>
</svg>