<?xml version="1.0" encoding="UTF-8"?>
<svg width="24px" height="24px" viewBox="0 0 24 24" version="1.1" xmlns="http://www.w3.org/2000/svg" xmlns:xlink="http://www.w3.org/1999/xlink">
    <title>Artboard</title>
    <g id="Artboard" stroke="none" stroke-width="1" fill="none" fill-rule="evenodd">
        <path d="M17.6874698,18 C18.4123444,18 18.9999666,17.4123778 18.9999666,16.6875031 L18.9999666,8.8125219 C18.9999666,8.08764723 18.4123444,7.50002503 17.6874698,7.50002503 L6.31249687,7.50002503 C5.5876222,7.50002503 5,8.08764723 5,8.8125219 L5,16.6875031 C5,17.4123778 5.5876222,18 6.31249687,18 L17.6874698,18 Z M11.9999833,14.0624026 C11.3653909,14.0726565 10.4529022,13.202198 9.99259903,12.8401078 C7.90334391,11.204133 6.92567366,10.4276418 6.31249687,9.92827242 L6.31249687,8.8125219 L17.6874698,8.8125219 L17.6874698,9.92827242 C17.0743731,10.4275617 16.0969431,11.2038927 14.0073676,12.8401078 C13.5468775,13.2023315 12.6346826,14.0725496 11.9999833,14.0624026 Z M17.6874698,16.6875031 L6.31249687,16.6875031 L6.31249687,11.6124725 C6.93905177,12.1115215 7.82758802,12.8118028 9.1819015,13.8723052 C9.77953725,14.3427555 10.8261809,15.3813081 11.9999833,15.3749796 C13.1680179,15.3813081 14.2013903,14.3578158 14.8178248,13.8725188 C16.1721116,12.8120432 17.0608881,12.1115749 17.6874698,11.6124725 L17.6874698,16.6875031 Z" id="icon-send-via-email" fill="#224D74" fill-rule="nonzero"></path>
    </g>
</svg>