<?xml version="1.0" encoding="UTF-8"?>
<svg width="24px" height="24px" viewBox="0 0 24 24" version="1.1" xmlns="http://www.w3.org/2000/svg" xmlns:xlink="http://www.w3.org/1999/xlink">
    <title>Artboard</title>
    <g id="Artboard" stroke="none" stroke-width="1" fill="none" fill-rule="evenodd">
        <path d="M16.499975,20.9999952 C17.328098,20.9999952 17.9999714,20.3281218 17.9999714,19.4999988 L17.9999714,9.12191076 C17.9999714,8.7250306 17.840609,8.34066262 17.5593596,8.06252608 L14.9374787,5.44064512 C14.6562294,5.15939579 14.2749742,5.00003338 13.878094,5.00003338 L7.5,5.00003338 C6.6718734,5.00003338 6,5.67190678 6,6.50003338 L6,19.4999988 C6,20.3281218 6.6718734,20.9999952 7.5,20.9999952 L16.499975,20.9999952 Z M16.499975,19.4999988 L7.49999642,19.4999988 L7.49999642,6.5000298 L12.4999845,6.5000298 L12.4999845,9.75002205 C12.4999845,10.16564 12.8343648,10.5000298 13.2499827,10.5000298 L16.499975,10.5000298 L16.499975,19.4999988 Z M16.378088,9.00002384 L13.9999809,9.00002384 L13.9999809,6.62191672 L16.378088,9.00002384 Z M14.6249794,14.0000119 C14.8312167,14.0000119 14.9999785,13.8312501 14.9999785,13.6250128 L14.9999785,12.7500149 C14.9999785,12.5437776 14.8312167,12.3750158 14.6249794,12.3750158 L9.37499195,12.3750158 C9.16875465,12.3750158 8.99999285,12.5437776 8.99999285,12.7500149 L8.99999285,13.6250128 C8.99999285,13.8312501 9.16875465,14.0000119 9.37499195,14.0000119 L14.6249794,14.0000119 Z M14.6249794,16.6250057 C14.8312167,16.6250057 14.9999785,16.4562439 14.9999785,16.2500066 L14.9999785,15.3750086 C14.9999785,15.1687713 14.8312167,15.0000095 14.6249794,15.0000095 L9.37499195,15.0000095 C9.16875465,15.0000095 8.99999285,15.1687713 8.99999285,15.3750086 L8.99999285,16.2500066 C8.99999285,16.4562439 9.16875465,16.6250057 9.37499195,16.6250057 L14.6249794,16.6250057 Z" id="icon-paper-contract" fill="#224D74" fill-rule="nonzero"></path>
    </g>
</svg>