<?xml version="1.0" encoding="UTF-8"?>
<svg width="24px" height="24px" viewBox="0 0 24 24" version="1.1" xmlns="http://www.w3.org/2000/svg" xmlns:xlink="http://www.w3.org/1999/xlink">
    <title>Artboard</title>
    <g id="Artboard" stroke="none" stroke-width="1" fill="none" fill-rule="evenodd">
        <path d="M16.3749729,19.7499958 C16.8581337,19.7499958 17.2499708,19.3581587 17.2499708,18.8749979 L17.2499708,16.2500042 L18.5624677,16.2500042 C18.8041816,16.2500042 18.9999666,16.0542191 18.9999666,15.8125052 L18.9999666,12.7500125 C18.9999666,11.7834239 18.2165594,11.0000167 17.2499708,11.0000167 L17.2499708,7.86232886 C17.2499708,7.63017456 17.1578194,7.40787361 16.9937573,7.24354447 L15.7561885,6.00624274 C15.5921264,5.84218063 15.3695584,5.75002921 15.1374041,5.75002921 L7.62499374,5.75002921 C7.14183297,5.75002921 6.74999583,6.14186635 6.74999583,6.62502712 L6.74999583,11.0000167 C5.78340725,11.0000167 5,11.7834239 5,12.7500125 L5,15.8125052 C5,16.0542191 5.19578506,16.2500042 5.43749896,16.2500042 L6.74999583,16.2500042 L6.74999583,18.8749979 C6.74999583,19.3581587 7.14183297,19.7499958 7.62499374,19.7499958 L16.3749729,19.7499958 Z M15.499975,11.8750146 L8.49999166,11.8750146 L8.49999166,7.50002503 L13.7499791,7.50002503 L13.7499791,8.8125219 C13.7499791,9.05423581 13.9457642,9.25002086 14.1874781,9.25002086 L15.499975,9.25002086 L15.499975,11.8750146 Z M16.8124718,13.8437599 C16.450168,13.8437599 16.1562234,13.5498153 16.1562234,13.1875115 C16.1562234,12.8249406 16.450168,12.531263 16.8124718,12.531263 C17.1747757,12.531263 17.4687203,12.8249406 17.4687203,13.1875115 C17.4687203,13.5498153 17.1747757,13.8437599 16.8124718,13.8437599 Z M15.499975,18 L8.49999166,18 L8.49999166,15.3750063 L15.499975,15.3750063 L15.499975,18 Z" id="icon-print" fill="#224D74" fill-rule="nonzero"></path>
    </g>
</svg>