<?xml version="1.0" encoding="UTF-8"?>
<svg width="14px" height="16px" viewBox="0 0 14 16" version="1.1" xmlns="http://www.w3.org/2000/svg" xmlns:xlink="http://www.w3.org/1999/xlink">
    <!-- Generator: Sketch 63.1 (92452) - https://sketch.com -->
    <title>t</title>
    <desc>Created with Sketch.</desc>
    <g id="Design" stroke="none" stroke-width="1" fill="none" fill-rule="evenodd" opacity="0.900000036">
        <g id="4.-Inicialização-–-Cadastro-de-Proposta-&gt;-1.Pré-Proposta" transform="translate(-1370.000000, -1402.000000)" fill="#1D4162" fill-rule="nonzero">
            <g id="Group-14" transform="translate(651.000000, 1184.000000)">
                <g id="Group-15" transform="translate(152.000000, 30.000000)">
                    <g id="Group-13" transform="translate(0.000000, 172.000000)">
                        <path d="M580.5,19 C580.776001,19 581,18.776001 581,18.5 L581,17.5 C581,17.223999 580.776001,17 580.5,17 L576.75,17 L576.456238,16.4156189 C576.34198,16.1861877 576.041229,16 575.784912,16 L572.209656,16 C571.954254,16 571.655945,16.1861877 571.543762,16.4156189 L571.25,17 L567.5,17 C567.223999,17 567,17.223999 567,17.5 L567,18.5 C567,18.776001 567.223999,19 567.5,19 L580.5,19 Z M577.840637,32 C578.618286,32 579.28891,31.3699036 579.337494,30.59375 L580,20 L568,20 L568.662506,30.59375 C568.71109,31.3699036 569.381714,32 570.159363,32 L577.840637,32 Z" id="t"></path>
                    </g>
                </g>
            </g>
        </g>
    </g>
</svg>