<?xml version="1.0" encoding="UTF-8"?>
<svg width="18px" height="19px" viewBox="0 0 18 19" version="1.1" xmlns="http://www.w3.org/2000/svg" xmlns:xlink="http://www.w3.org/1999/xlink">
    <!-- Generator: Sketch 63.1 (92452) - https://sketch.com -->
    <title>u</title>
    <desc>Created with Sketch.</desc>
    <g id="Design" stroke="none" stroke-width="1" fill="none" fill-rule="evenodd" opacity="0.900000036">
        <g id="4.-Inicialização-–-Cadastro-de-Proposta-&gt;-1.Pré-Proposta" transform="translate(-1304.000000, -1318.000000)" fill="#FFFFFF" fill-rule="nonzero">
            <g id="Group-14" transform="translate(651.000000, 1184.000000)">
                <g id="Group-15" transform="translate(152.000000, 30.000000)">
                    <g id="Group-11">
                        <g id="Group-10" transform="translate(0.000000, 60.000000)">
                            <g id="Group-9" transform="translate(477.000000, 26.000000)">
                                <path d="M34.4062252,31.7500054 C34.8737953,31.7500054 35.2499732,31.3738275 35.2499732,30.9062574 L35.2499732,25.0000215 L38.3331758,25.0000215 C38.9589487,25.0000215 39.2718523,24.2441639 38.828864,23.8012099 L33.4780887,18.4504346 C33.2144174,18.1867633 32.7820034,18.1867633 32.5183322,18.4504346 L27.1710931,23.8012099 C26.7281048,24.2441639 27.0410084,25.0000215 27.6667813,25.0000215 L30.7499839,25.0000215 L30.7499839,30.9062574 C30.7499839,31.3738275 31.1261618,31.7500054 31.5937319,31.7500054 L34.4062252,31.7500054 Z M41.1562091,36.2499946 C41.6237792,36.2499946 41.9999571,35.8738168 41.9999571,35.4062466 L41.9999571,31.468756 C41.9999571,31.0011859 41.6237792,30.625008 41.1562091,30.625008 L36.3749705,30.625008 L36.3749705,30.9062574 C36.3749705,31.9925966 35.4925645,32.8750027 34.4062252,32.8750027 L31.5937319,32.8750027 C30.5073926,32.8750027 29.6249866,31.9925966 29.6249866,30.9062574 L29.6249866,30.625008 L24.843748,30.625008 C24.3761778,30.625008 24,31.0011859 24,31.468756 L24,35.4062466 C24,35.8738168 24.3761778,36.2499946 24.843748,36.2499946 L41.1562091,36.2499946 Z M36.9374692,35.265622 C36.5507513,35.265622 36.2343458,34.9492165 36.2343458,34.5624987 C36.2343458,34.1757808 36.5507513,33.8593753 36.9374692,33.8593753 C37.324187,33.8593753 37.6405925,34.1757808 37.6405925,34.5624987 C37.6405925,34.9492165 37.324187,35.265622 36.9374692,35.265622 Z M39.1874638,35.265622 C38.800746,35.265622 38.4843405,34.9492165 38.4843405,34.5624987 C38.4843405,34.1757808 38.800746,33.8593753 39.1874638,33.8593753 C39.5741816,33.8593753 39.8905871,34.1757808 39.8905871,34.5624987 C39.8905871,34.9492165 39.5741816,35.265622 39.1874638,35.265622 Z" id="u"></path>
                            </g>
                        </g>
                    </g>
                </g>
            </g>
        </g>
    </g>
</svg>