<?xml version="1.0" encoding="UTF-8"?>
<svg width="24px" height="24px" viewBox="0 0 24 24" version="1.1" xmlns="http://www.w3.org/2000/svg" xmlns:xlink="http://www.w3.org/1999/xlink">
    <title>Artboard</title>
    <g id="Artboard" stroke="none" stroke-width="1" fill="none" fill-rule="evenodd">
        <path d="M5,19.9999976 L8.67812233,19.0343627 C9.69060161,19.5874925 10.8312239,19.8781107 11.9937272,19.8781107 L11.9968705,19.8781107 C15.8187303,19.8781107 18.9999666,16.7656303 18.9999666,12.9406272 C18.9999666,11.0875128 18.2124624,9.34688581 16.9031088,8.03438894 C15.5937247,6.72189207 13.849985,6.00003099 11.9968705,6.00003099 C8.17186744,6.00003099 5.05938707,9.11251137 5.05938707,12.9375145 C5.05938707,14.1593743 5.37811189,15.3531276 5.98437265,16.4062562 L5,19.9999976 Z M11.9968705,18.7093818 C10.9593669,18.7093818 9.94374432,18.4312453 9.05937753,17.9062526 L8.84999692,17.7812529 L6.66875823,18.3531204 L7.24999464,16.2250127 L7.11248276,16.0062632 C6.53435913,15.0875032 6.23125927,14.0281491 6.23125927,12.9375145 C6.23125927,9.75939093 8.818747,7.1719032 11.9999833,7.1719032 C13.5405985,7.1719032 14.987464,7.77190787 16.0749858,8.86251196 C17.1624771,9.95314657 17.8312072,11.400012 17.8281052,12.9406272 C17.8281052,16.1218941 15.1749635,18.7093818 11.9968705,18.7093818 Z M14.218728,16.2468938 C14.5531083,16.1968756 15.2437195,15.8281326 15.3874874,15.4218835 C15.5312249,15.0156345 15.5312249,14.6687725 15.4874628,14.5968733 C15.446844,14.5187485 15.3312132,14.4750169 15.1593386,14.390636 C14.987464,14.3031423 14.1343471,13.8843811 13.9749847,13.8281373 C13.8155918,13.7687503 13.6999915,13.7406436 13.5843606,13.915631 C13.4687298,14.0906489 13.1374928,14.4781297 13.0343436,14.5968733 C12.9343683,14.7125041 12.8312191,14.7281291 12.6593445,14.6406354 C11.6406092,14.1312677 10.9718486,13.7312748 10.2999752,12.5781403 C10.121875,12.2718971 10.4781058,12.2937782 10.8093734,11.6312737 C10.8656171,11.5156428 10.83748,11.415637 10.7937484,11.3281433 C10.7718673,11.2843964 10.6742113,11.0492438 10.5640546,10.7816663 L10.4520744,10.5091687 C10.3777677,10.3281491 10.307279,10.1562711 10.2593564,10.0406403 C10.1187317,9.70314717 9.97499424,9.75002205 9.86873229,9.74376597 C9.76872642,9.73750988 9.65312611,9.73750988 9.53749529,9.73750988 C9.42186446,9.73750988 9.2343649,9.78127198 9.07500249,9.95314657 C8.91560956,10.1281339 8.46874173,10.5468952 8.46874173,11.400012 C8.46874173,12.2531289 9.09062745,13.0781391 9.17497784,13.1937699 C9.26250204,13.3094008 10.3968682,15.0593966 12.1374952,15.8125076 C13.2374682,16.2875126 13.6687415,16.3281314 14.218728,16.2468938 Z" id="w" fill="#224D74" fill-rule="nonzero"></path>
    </g>
</svg>