<?xml version="1.0" encoding="UTF-8"?>
<svg width="24px" height="24px" viewBox="0 0 24 24" version="1.1" xmlns="http://www.w3.org/2000/svg" xmlns:xlink="http://www.w3.org/1999/xlink">
    <title>Artboard</title>
    <g id="Artboard" stroke="none" stroke-width="1" fill="none" fill-rule="evenodd">
        <path d="M18.4999654,19 C19.3283936,19 19.9999619,18.3284318 19.9999619,17.5000036 L19.9999619,8.50002861 C19.9999619,7.67159683 19.3283936,7.00002861 18.4999654,7.00002861 L5.5,7.00002861 C4.67156822,7.00002861 4,7.67159683 4,8.50002861 L4,17.5000036 C4,18.3284318 4.67156822,19 5.5,19 L18.4999654,19 Z M11.9999809,14.4998887 C11.2747324,14.5116074 10.2318882,13.5167977 9.70582746,13.1029804 C7.31810732,11.2332949 6.2007699,10.3458763 5.49999642,9.77516848 L5.49999642,8.50002503 L18.4999654,8.50002503 L18.4999654,9.77516848 C17.7992835,10.3457848 16.6822207,11.2330202 14.2941344,13.1029804 C13.76786,13.5169503 12.7253515,14.5114853 11.9999809,14.4998887 Z M18.4999654,17.5000036 L5.49999642,17.5000036 L5.49999642,11.6999686 C6.21605917,12.2703102 7.23152916,13.0706318 8.779316,14.2826345 C9.46232829,14.8202919 10.6584924,16.0072093 11.9999809,15.9999766 C13.3348776,16.0072093 14.5158746,14.8375038 15.2203712,14.2828787 C16.7681275,13.0709065 17.7838722,12.2703713 18.4999654,11.6999686 L18.4999654,17.5000036 Z" id="e" fill="#224D74" fill-rule="nonzero"></path>
    </g>
</svg>