<?xml version="1.0" encoding="UTF-8"?>
<svg width="24px" height="24px" viewBox="0 0 24 24" version="1.1" xmlns="http://www.w3.org/2000/svg" xmlns:xlink="http://www.w3.org/1999/xlink">
    <title>Artboard</title>
    <g id="Artboard" stroke="none" stroke-width="1" fill="none" fill-rule="evenodd">
        <path d="M4.74999821,19.9999976 C6.67186863,19.9999976 8.18749002,19.1968684 9.09685064,18.5531322 C9.99998569,18.8374943 10.9749895,19 11.9999809,19 C16.4187326,19 19.9999619,16.0906441 19.9999619,12.5000155 C19.9999619,8.90938685 16.4187326,6.00003099 11.9999809,6.00003099 C7.58122925,6.00003099 4,8.90938685 4,12.5000155 C4,13.9874997 4.62188572,15.3500148 5.65313327,16.446875 C5.18749717,17.6781343 4.21874948,18.7218635 4.20312452,18.7343756 C3.99688721,18.9531251 3.94061293,19.2718805 4.05938707,19.5468737 C4.17813068,19.8218669 4.45001113,19.9999976 4.74999821,19.9999976 Z M6.4343814,18.2343768 C6.66249976,17.8562649 6.88436202,17.4312476 7.05623661,16.9781237 L7.38750413,16.100013 L6.74373735,15.4187707 C6.17812591,14.8156228 5.49999642,13.8187685 5.49999642,12.5000155 C5.49999642,9.74376597 8.41560837,7.50002742 11.9999809,7.50002742 C15.5843535,7.50002742 18.4999654,9.74376597 18.4999654,12.5000155 C18.4999654,15.256265 15.5843535,17.5000036 11.9999809,17.5000036 C11.1656018,17.5000036 10.3406221,17.3718911 9.54997456,17.1218917 L8.84062567,16.8968861 L8.23125212,17.328129 C7.78435377,17.643741 7.17186744,17.9968896 6.4343814,18.2343768 Z" id="icon-send-via-sms" fill="#224D74" fill-rule="nonzero"></path>
    </g>
</svg>