<?xml version="1.0" encoding="UTF-8"?>
<svg width="46px" height="56px" viewBox="0 0 46 56" version="1.1" xmlns="http://www.w3.org/2000/svg" xmlns:xlink="http://www.w3.org/1999/xlink">
    <!-- Generator: Sketch 63.1 (92452) - https://sketch.com -->
    <title>document</title>
    <desc>Created with Sketch.</desc>
    <g id="Design" stroke="none" stroke-width="1" fill="none" fill-rule="evenodd" opacity="0.900000036">
        <g id="4.-Inicialização-–-Cadastro-de-Proposta-&gt;-1.Pré-Proposta" transform="translate(-803.000000, -1214.000000)" fill="#4D4F5C" fill-rule="nonzero">
            <g id="Group-14" transform="translate(651.000000, 1184.000000)">
                <g id="Group-15" transform="translate(152.000000, 30.000000)">
                    <g id="Group-11">
                        <g id="Group-12">
                            <g id="document">
                                <path d="M39.1317966,0 L12.0131525,0 C8.65044068,0 5.93857627,2.71186441 5.88433898,6.07457627 C2.63010169,6.23728814 0.0809491525,8.94915254 0.0809491525,12.2033898 L0.0809491525,49.7898305 C0.0809491525,53.1525424 2.84705085,55.9186441 6.20976271,55.9186441 L33.3284068,55.9186441 C36.6911186,55.9186441 39.4029831,53.2067797 39.4572203,49.8440678 C42.7114576,49.6813559 45.2606102,46.9694915 45.2606102,43.7152542 L45.2606102,6.18305085 C45.3148475,2.76610169 42.5487458,0 39.1317966,0 Z M37.4504407,49.7898305 C37.4504407,52.0677966 35.6063729,53.9118644 33.3284068,53.9118644 L6.20976271,53.9118644 C3.93179661,53.9118644 2.1419661,52.0677966 2.1419661,49.8440678 L2.1419661,12.2033898 C2.1419661,9.92542373 3.9860339,8.13559322 6.20976271,8.13559322 L28.1216271,8.13559322 L28.1216271,17.5728814 C28.1216271,18.1152542 28.5555254,18.6033898 29.1521356,18.6033898 L37.4504407,18.6033898 L37.4504407,49.7898305 Z M30.1826441,16.5423729 L30.1826441,9.76271186 L36.2029831,16.5423729 L30.1826441,16.5423729 Z M39.5114576,47.8372881 L39.5114576,17.5728814 C39.5114576,17.4644068 39.4572203,17.3016949 39.4572203,17.1932203 C39.4572203,17.1389831 39.4029831,17.0847458 39.4029831,17.0847458 C39.3487458,17.0305085 39.3487458,16.9762712 39.2945085,16.9220339 L29.9114576,6.4 C29.8572203,6.34576271 29.7487458,6.29152542 29.6402712,6.23728814 C29.5860339,6.23728814 29.5860339,6.18305085 29.5317966,6.18305085 C29.423322,6.12881356 29.2606102,6.07457627 29.0978983,6.07457627 L7.94535593,6.07457627 C7.99959322,3.85084746 9.78942373,2.06101695 12.0131525,2.06101695 L39.1317966,2.06101695 C41.4097627,2.06101695 43.1995932,3.90508475 43.1995932,6.12881356 L43.1995932,43.7694915 L43.2538305,43.7694915 C43.2538305,45.8847458 41.5724746,47.6745763 39.5114576,47.8372881 Z" id="Shape"></path>
                                <path d="M7.45722034,18.6033898 L16.5148475,18.6033898 C17.0572203,18.6033898 17.5453559,18.1694915 17.5453559,17.5728814 C17.5453559,17.0305085 17.1114576,16.5423729 16.5148475,16.5423729 L7.45722034,16.5423729 C6.91484746,16.5423729 6.42671186,16.9762712 6.42671186,17.5728814 C6.42671186,18.1694915 6.86061017,18.6033898 7.45722034,18.6033898 Z" id="Path"></path>
                                <path d="M16.4606102,43.4983051 L7.45722034,43.4983051 C6.91484746,43.4983051 6.42671186,43.9322034 6.42671186,44.5288136 C6.42671186,45.0711864 6.86061017,45.559322 7.45722034,45.559322 L16.5148475,45.559322 C17.0572203,45.559322 17.5453559,45.1254237 17.5453559,44.5288136 C17.4911186,43.9864407 17.0572203,43.4983051 16.4606102,43.4983051 Z" id="Path"></path>
                                <path d="M6.42671186,24.4067797 C6.42671186,24.9491525 6.86061017,25.4372881 7.45722034,25.4372881 L31.6470508,25.4372881 C32.1894237,25.4372881 32.6775593,25.0033898 32.6775593,24.4067797 C32.6775593,23.8644068 32.1894237,23.3762712 31.6470508,23.3762712 L7.45722034,23.3762712 C6.91484746,23.3762712 6.42671186,23.8101695 6.42671186,24.4067797 Z" id="Path"></path>
                                <path d="M31.6470508,28.420339 L7.45722034,28.420339 C6.91484746,28.420339 6.42671186,28.8542373 6.42671186,29.4508475 C6.42671186,29.9932203 6.86061017,30.4813559 7.45722034,30.4813559 L31.6470508,30.4813559 C32.1894237,30.4813559 32.6775593,30.0474576 32.6775593,29.4508475 C32.6775593,28.9084746 32.1894237,28.420339 31.6470508,28.420339 Z" id="Path"></path>
                                <path d="M31.6470508,33.5186441 L7.45722034,33.5186441 C6.91484746,33.5186441 6.42671186,33.9525424 6.42671186,34.5491525 C6.42671186,35.0915254 6.86061017,35.579661 7.45722034,35.579661 L31.6470508,35.579661 C32.1894237,35.579661 32.6775593,35.1457627 32.6775593,34.5491525 C32.6775593,33.9525424 32.1894237,33.5186441 31.6470508,33.5186441 Z" id="Path"></path>
                                <path d="M31.6470508,38.5627119 L7.45722034,38.5627119 C6.91484746,38.5627119 6.42671186,38.9966102 6.42671186,39.5932203 C6.42671186,40.1355932 6.86061017,40.6237288 7.45722034,40.6237288 L31.6470508,40.6237288 C32.1894237,40.6237288 32.6775593,40.1898305 32.6775593,39.5932203 C32.6775593,38.9966102 32.1894237,38.5627119 31.6470508,38.5627119 Z" id="Path"></path>
                            </g>
                        </g>
                    </g>
                </g>
            </g>
        </g>
    </g>
</svg>