<?xml version="1.0" encoding="UTF-8"?>
<svg width="48px" height="48px" viewBox="0 0 48 48" version="1.1" xmlns="http://www.w3.org/2000/svg" xmlns:xlink="http://www.w3.org/1999/xlink">
    <!-- Generator: Sketch 63.1 (92452) - https://sketch.com -->
    <title>Group 5</title>
    <desc>Created with Sketch.</desc>
    <g id="Design" stroke="none" stroke-width="1" fill="none" fill-rule="evenodd">
        <g id="1.-Dashboard" transform="translate(-1191.000000, -218.000000)">
            <g id="Group" transform="translate(602.000000, 128.000000)">
                <g id="Group-6-Copy" transform="translate(502.000000, 60.000000)">
                    <g id="Group-5" transform="translate(87.000000, 30.000000)">
                        <rect id="Rectangle-Copy-2" fill="#224D74" x="0" y="0" width="48" height="48"></rect>
                        <g id="Group-13" transform="translate(12.000000, 9.000000)" stroke="#FFFFFF" stroke-linecap="round" stroke-linejoin="round">
                            <g id="Group-9">
                                <path d="M21.8817,30.6 L2.3187,30.6 C1.3687,30.6 0.5997,29.831 0.5997,28.882 L0.5997,2.318 C0.5997,1.369 1.3687,0.6 2.3187,0.6 L21.8817,0.6 C22.8307,0.6 23.5997,1.369 23.5997,2.318 L23.5997,28.882 C23.5997,29.831 22.8307,30.6 21.8817,30.6 Z" id="Stroke-1" stroke-opacity="0.32" stroke-width="1.2"></path>
                                <path d="M17.1,13.619 C17.1,16.932 14.413,19.619 11.1,19.619 C7.787,19.619 5.1,16.932 5.1,13.619 C5.1,10.305 7.787,7.619 11.1,7.619 C14.413,7.619 17.1,10.305 17.1,13.619 Z" id="Stroke-5" stroke-width="1.2"></path>
                                <path d="M16.4648,16.6552 L20.0658,20.2562 C20.7278,20.9182 20.7278,21.9912 20.0658,22.6532 L19.6338,23.0842 C18.9728,23.7462 17.8998,23.7462 17.2368,23.0842 L13.6368,19.4842" id="Stroke-7" stroke-width="0.975"></path>
                            </g>
                        </g>
                    </g>
                </g>
            </g>
        </g>
    </g>
</svg>