<?xml version="1.0" encoding="UTF-8"?>
<svg width="9px" height="8px" viewBox="0 0 9 8" version="1.1" xmlns="http://www.w3.org/2000/svg" xmlns:xlink="http://www.w3.org/1999/xlink">
    <!-- Generator: Sketch 63.1 (92452) - https://sketch.com -->
    <title>icon-warning</title>
    <desc>Created with Sketch.</desc>
    <g id="Design" stroke="none" stroke-width="1" fill="none" fill-rule="evenodd">
        <g id="2.-Consulta-de-Propostas" transform="translate(-763.000000, -820.000000)" fill="#CC0000" fill-rule="nonzero">
            <g id="Group-31" transform="translate(603.000000, 646.000000)">
                <g id="Group-4">
                    <g id="Group" transform="translate(30.000000, 140.000000)">
                        <g id="Group-20" transform="translate(124.000000, 11.000000)">
                            <g id="Group-30" transform="translate(0.000000, 19.000000)">
                                <path d="M14.2490771,12 C14.8250963,12 15.187111,11.3751068 14.8987047,10.8751984 L11.1496513,4.37477119 C10.8616112,3.87553414 10.1389093,3.87461861 9.85036564,4.37477119 L6.10120545,10.8751984 C5.81336369,11.3741455 6.1737152,12 6.75084829,12 L14.2490771,12 Z M10.8792809,9.25000005 L10.1207361,9.25000005 C10.0211572,9.25000005 9.93894289,9.17214969 9.93352602,9.07272342 L9.81762028,6.94772344 C9.81176091,6.84031682 9.89725589,6.75000005 10.0048151,6.75000005 L10.9951866,6.75000005 C11.1027458,6.75000005 11.1882561,6.84031682 11.1823967,6.94772344 L11.0664909,9.07272342 C11.0610741,9.17214969 10.9788597,9.25000005 10.8792809,9.25000005 Z M10.5000085,10.96875 C10.1030511,10.96875 9.78125859,10.6469574 9.78125859,10.25 C9.78125859,9.85304262 10.1030511,9.53125002 10.5000085,9.53125002 C10.8969658,9.53125002 11.2187584,9.85304262 11.2187584,10.25 C11.2187584,10.6469574 10.8969658,10.96875 10.5000085,10.96875 Z" id="icon-warning"></path>
                            </g>
                        </g>
                    </g>
                </g>
            </g>
        </g>
    </g>
</svg>