<?xml version="1.0" encoding="UTF-8"?>
<svg width="40px" height="40px" viewBox="0 0 40 40" version="1.1" xmlns="http://www.w3.org/2000/svg" xmlns:xlink="http://www.w3.org/1999/xlink">
    <title>Artboard</title>
    <g id="Artboard" stroke="none" stroke-width="1" fill="none" fill-rule="evenodd" stroke-linecap="round" stroke-linejoin="round">
        <g id="Group-17" transform="translate(7.000000, 3.000000)" stroke="#43425D" stroke-width="1.5">
            <path d="M24.829,35 L2.0055,35 C0.897166667,35 0,34.1028333 0,32.9956667 L0,2.00433333 C0,0.897166667 0.897166667,0 2.0055,0 L24.829,0 C25.9361667,0 26.8333333,0.897166667 26.8333333,2.00433333 L26.8333333,32.9956667 C26.8333333,34.1028333 25.9361667,35 24.829,35 Z" id="Stroke-5"></path>
            <path d="M5.85115239,31.5 C5.47518773,27.456614 11.118867,20.7101413 16.1292408,21.9692308 C16.9061793,22.1644727 16.7083396,24.2363836 16.6609698,24.3762772 C15.8746944,26.6983232 13.3139981,28.8960329 11.1316566,30.1207575 C10.5680612,30.4370458 9.38182132,31.4964124 9.33648581,30.8896066 L9.06226077,30.8896066 C8.75683509,26.801551 14.3606347,22.7882899 18.4066463,22.8102173 C21.894666,22.8291206 15.2577596,34.456378 21.57428,24.5421315 C22.287669,23.4224146 22.7469822,22.1807105 23.3333333,21" id="Path-7"></path>
            <line x1="4.66666667" y1="8.75" x2="20.1837271" y2="8.75" id="Path-6"></line>
            <line x1="4.66666667" y1="14.5833333" x2="20.1837271" y2="14.5833333" id="Path-6-Copy"></line>
        </g>
    </g>
</svg>