<?xml version="1.0" encoding="UTF-8"?>
<svg width="24px" height="24px" viewBox="0 0 24 24" version="1.1" xmlns="http://www.w3.org/2000/svg" xmlns:xlink="http://www.w3.org/1999/xlink">
    <!-- Generator: Sketch 63.1 (92452) - https://sketch.com -->
    <title>Artboard</title>
    <desc>Created with Sketch.</desc>
    <g id="Artboard" stroke="none" stroke-width="1" fill="none" fill-rule="evenodd">
        <g id="Group-27">
            <rect id="Rectangle" fill-opacity="0" fill="#D8D8D8" x="0" y="0" width="24" height="24"></rect>
            <path d="M17.2499732,19.9999952 C17.6655911,19.9999952 17.9999714,19.6656149 17.9999714,19.249997 L17.9999714,9.00002146 L13.7499815,9.00002146 C13.3374764,9.00002146 12.9999833,8.66252837 12.9999833,8.25002325 L12.9999833,4.00003338 L6.74999821,4.00003338 C6.33438031,4.00003338 6,4.33441368 6,4.75003159 L6,19.249997 C6,19.6656149 6.33438031,19.9999952 6.74999821,19.9999952 L17.2499732,19.9999952 Z M17.9999809,8.00003338 L17.9999809,7.8094115 C17.9999809,7.61251256 17.9218466,7.42190022 17.7812219,7.28127556 L14.721842,4.21878286 C14.5812173,4.07815819 14.390605,4.00003338 14.1905933,4.00003338 L13.9999809,4.00003338 L13.9999809,8.00003338 L17.9999809,8.00003338 Z M14.6249794,12.0000155 L9.37499195,12.0000155 C9.16875465,12.0000155 8.99999285,11.8312525 8.99999285,11.6250152 L8.99999285,11.3750158 C8.99999285,11.1687785 9.16875465,11.0000155 9.37499195,11.0000155 L14.6249794,11.0000155 C14.8312167,11.0000155 14.9999785,11.1687785 14.9999785,11.3750158 L14.9999785,11.6250152 C14.9999785,11.8312525 14.8312167,12.0000155 14.6249794,12.0000155 Z M14.6249794,14.0000107 L9.37499195,14.0000107 C9.16875465,14.0000107 8.99999285,13.8312477 8.99999285,13.6250104 L8.99999285,13.375011 C8.99999285,13.1687737 9.16875465,13.0000107 9.37499195,13.0000107 L14.6249794,13.0000107 C14.8312167,13.0000107 14.9999785,13.1687737 14.9999785,13.375011 L14.9999785,13.6250104 C14.9999785,13.8312477 14.8312167,14.0000107 14.6249794,14.0000107 Z M14.6249794,16.000006 L9.37499195,16.000006 C9.16875465,16.000006 8.99999285,15.831243 8.99999285,15.6250057 L8.99999285,15.3750063 C8.99999285,15.168769 9.16875465,15.000006 9.37499195,15.000006 L14.6249794,15.000006 C14.8312167,15.000006 14.9999785,15.168769 14.9999785,15.3750063 L14.9999785,15.6250057 C14.9999785,15.831243 14.8312167,16.000006 14.6249794,16.000006 Z" id="f" fill="#224D74" fill-rule="nonzero"></path>
        </g>
    </g>
</svg>