<?xml version="1.0" encoding="UTF-8"?>
<svg width="122px" height="28px" viewBox="0 0 122 28" version="1.1" xmlns="http://www.w3.org/2000/svg" xmlns:xlink="http://www.w3.org/1999/xlink">
    <!-- Generator: Sketch 63.1 (92452) - https://sketch.com -->
    <title>Logo Copy</title>
    <desc>Created with Sketch.</desc>
    <defs>
        <polygon id="path-1" points="0.107875839 0.218318841 79.5687685 0.218318841 79.5687685 18.509376 0.107875839 18.509376"></polygon>
        <polygon id="path-3" points="0 27.5942029 121.608617 27.5942029 121.608617 0.218318841 0 0.218318841"></polygon>
    </defs>
    <g id="Symbols" stroke="none" stroke-width="1" fill="none" fill-rule="evenodd">
        <g id="Structure/Top-Bar" transform="translate(-20.000000, -24.000000)">
            <g id="Logo" transform="translate(20.000000, 24.000000)">
                <g id="Group-23">
                    <path d="M29.7421671,0.693182609 L21.623845,18.1416464 L21.623845,18.8055304 L26.1341604,18.8055304 L27.1908114,16.5574145 L34.3040664,16.5574145 L35.3607174,18.8055304 L40.2108315,18.8055304 L39.8706235,18.1416464 L31.7265094,0.693182609 L29.7421671,0.693182609 Z M30.7214423,7.94842899 L32.8089523,12.6487768 L28.6859255,12.6487768 L30.7214423,7.94842899 Z M13.2152611,0.923269565 L9.09141544,11.0393855 L8.9624557,11.0393855 L4.73626107,0.923269565 L-4.09395973e-05,0.923269565 L0.302912081,1.61312464 L8.03476443,19.0096464 L9.99331477,19.0096464 L17.6477913,1.61312464 L17.6477913,0.923269565 L13.2152611,0.923269565 Z" id="Fill-1" fill="#224D74"></path>
                    <g id="Group-22" transform="translate(0.000000, 0.187519)">
                        <g id="Group-4" transform="translate(38.892617, 0.000000)">
                            <mask id="mask-2" fill="white">
                                <use xlink:href="#path-1"></use>
                            </mask>
                            <g id="Clip-3"></g>
                            <path d="M0.107875839,9.38933333 C0.133667785,15.4689855 4.77253356,18.5347826 9.36022483,18.509376 C13.2003591,18.509376 17.2464195,16.5163478 17.9166007,11.4584928 L13.3804933,11.4584928 C12.8908557,13.3746667 11.3187752,14.3453333 9.36022483,14.3453333 C6.6283255,14.3193623 4.87570134,12.0201159 4.87570134,9.38933333 C4.87570134,6.4262029 6.65411745,4.40776812 9.36022483,4.40776812 C11.2929832,4.40776812 12.6591376,5.22544928 13.3035268,7.03895652 L17.8392248,7.03895652 C17.1432517,2.26191304 13.0971913,0.243884058 9.36022483,0.243884058 C4.77253356,0.243884058 0.133667785,3.30927536 0.107875839,9.38933333 L0.107875839,9.38933333 Z M31.0987416,0.448405797 L19.8362584,0.448405797 L19.8362584,18.3302609 L31.3308691,18.3302609 L31.3308691,14.2682319 L24.4235403,14.2682319 L24.4235403,11.1265507 L30.5575201,11.1265507 L30.5575201,7.06452174 L24.4235403,7.06452174 L24.4235403,4.5355942 L31.0987416,4.5355942 L31.0987416,0.448405797 Z M45.1635403,11.9949565 C49.7254396,8.92956522 48.4366611,0.473971014 41.349198,0.448405797 L33.4372114,0.448405797 L33.4372114,18.3302609 L38.0502852,18.3302609 L38.0502852,13.0674783 L40.4472987,13.0674783 L43.5398758,18.3302609 L49.1305872,18.3302609 L48.6945805,17.665971 L45.1635403,11.9949565 Z M41.349198,9.00626087 L38.0502852,9.00626087 L38.0502852,4.5355942 C39.1327282,4.5355942 40.266755,4.51002899 41.349198,4.5355942 C43.9779295,4.56115942 43.8493792,9.00626087 41.349198,9.00626087 L41.349198,9.00626087 Z M54.0674933,4.5355942 L54.0674933,18.3302609 L58.6289832,18.3302609 L58.6289832,4.5355942 L63.0361309,4.5355942 L63.0361309,0.448405797 L49.6345537,0.448405797 L49.6345537,4.5355942 L54.0674933,4.5355942 Z M75.058453,18.3302609 L79.5687685,18.3302609 L79.5687685,17.665971 L71.4246544,0.217913043 L69.4403121,0.217913043 L61.3219899,17.665971 L60.9793255,18.3302609 L65.8323054,18.3302609 L66.8889564,16.0825507 L74.001802,16.0825507 L75.058453,18.3302609 Z M72.5070973,12.173913 L68.3836611,12.173913 L70.4195872,7.47356522 L72.5070973,12.173913 Z" id="Fill-2" fill="#224D74" mask="url(#mask-2)"></path>
                        </g>
                        <polygon id="Fill-5" fill="#F79028" points="112.888483 16.0802377 113.952503 18.3437739 118.799342 18.3437739 117.732047 16.0802377"></polygon>
                        <polygon id="Fill-7" fill="#F79028" points="72.333104 21.8549333 75.589849 21.8549333 75.589849 22.6222957 73.4261913 22.6222957 73.4261913 24.3489623 75.3114597 24.3489623 75.3114597 25.1163246 73.4261913 25.1163246 73.4261913 27.5462377 72.333104 27.5462377"></polygon>
                        <mask id="mask-4" fill="white">
                            <use xlink:href="#path-3"></use>
                        </mask>
                        <g id="Clip-10"></g>
                        <polygon id="Fill-9" fill="#F79028" mask="url(#mask-4)" points="76.5324832 27.5463188 77.6251611 27.5463188 77.6251611 21.8550145 76.5324832 21.8550145"></polygon>
                        <polygon id="Fill-11" fill="#F79028" mask="url(#mask-4)" points="78.4388356 21.8549333 79.4885268 21.8549333 81.138802 25.2839188 81.1596812 25.2839188 81.1596812 21.8549333 82.2527685 21.8549333 82.2527685 27.5462377 81.2243658 27.5462377 79.5532114 24.1249623 79.5315134 24.1249623 79.5315134 27.5462377 78.4388356 27.5462377"></polygon>
                        <path d="M85.1235349,23.4935826 L85.1018369,23.4935826 L84.566347,25.5558435 L85.6590248,25.5558435 L85.1235349,23.4935826 Z M84.662555,21.8549739 L85.5734611,21.8549739 L87.2769577,27.5462783 L86.1838705,27.5462783 L85.862904,26.3236116 L84.3735215,26.3236116 L84.0521456,27.5462783 L82.9594678,27.5462783 L84.662555,21.8549739 Z" id="Fill-12" fill="#F79028" mask="url(#mask-4)"></path>
                        <polygon id="Fill-13" fill="#F79028" mask="url(#mask-4)" points="87.9724805 21.8549333 89.0221718 21.8549333 90.672447 25.2839188 90.6933262 25.2839188 90.6933262 21.8549333 91.7864134 21.8549333 91.7864134 27.5462377 90.7580107 27.5462377 89.0868564 24.1249623 89.0651584 24.1249623 89.0651584 27.5462377 87.9724805 27.5462377"></polygon>
                        <path d="M96.2423611,26.2754841 C96.2423611,26.9787304 95.4821128,27.5943246 94.5069315,27.5943246 C93.6713544,27.5943246 92.7068174,27.2907884 92.7068174,26.2511362 L92.7068174,23.1179768 C92.7068174,22.3745565 93.424898,21.8068464 94.485643,21.8068464 C95.492757,21.8068464 96.2423611,22.3745565 96.2423611,23.1658609 L96.2423611,23.485629 L95.1496832,23.485629 L95.1496832,23.2137449 C95.1496832,22.8939768 94.8925826,22.6220928 94.4749987,22.6220928 C93.928455,22.6220928 93.7999047,22.9020928 93.7999047,23.285571 L93.7999047,26.195542 C93.7999047,26.5230203 93.9710322,26.7786725 94.463945,26.7786725 C94.7640322,26.7786725 95.1496832,26.6512522 95.1496832,26.2032522 L95.1496832,25.923658 L96.2423611,25.923658 L96.2423611,26.2754841 Z" id="Fill-14" fill="#F79028" mask="url(#mask-4)"></path>
                        <polygon id="Fill-15" fill="#F79028" mask="url(#mask-4)" points="97.1635839 27.5463188 98.2562617 27.5463188 98.2562617 21.8550145 97.1635839 21.8550145"></polygon>
                        <path d="M101.191099,23.4935826 L101.169401,23.4935826 L100.633911,25.5558435 L101.726589,25.5558435 L101.191099,23.4935826 Z M100.730119,21.8549739 L101.641025,21.8549739 L103.344521,27.5462783 L102.251434,27.5462783 L101.930468,26.3236116 L100.441085,26.3236116 L100.119709,27.5462783 L99.0270315,27.5462783 L100.730119,21.8549739 Z" id="Fill-16" fill="#F79028" mask="url(#mask-4)"></path>
                        <path d="M105.175913,26.7787942 L105.679061,26.7787942 C106.28988,26.7787942 106.525692,26.5552 106.525692,26.0674319 L106.525692,23.3254609 C106.525692,22.8782725 106.322222,22.6222145 105.679061,22.6222145 L105.175913,22.6222145 L105.175913,26.7787942 Z M104.082826,21.8548522 L105.700759,21.8548522 C106.932632,21.8548522 107.61837,22.4063304 107.61837,23.3254609 L107.61837,25.9874899 C107.61837,27.0425623 106.890054,27.5465623 105.604142,27.5465623 L104.082826,27.5465623 L104.082826,21.8548522 Z" id="Fill-17" fill="#F79028" mask="url(#mask-4)"></path>
                        <path d="M109.46057,26.2033739 C109.46057,26.5953739 109.803234,26.7787942 110.199939,26.7787942 C110.595825,26.7787942 110.938899,26.5953739 110.938899,26.2033739 L110.938899,23.1980406 C110.938899,22.8060406 110.595825,22.6222145 110.199939,22.6222145 C109.803234,22.6222145 109.46057,22.8060406 109.46057,23.1980406 L109.46057,26.2033739 Z M108.367483,23.1980406 C108.367483,22.2707942 109.310731,21.8069681 110.199939,21.8069681 C111.089147,21.8069681 112.031577,22.2707942 112.031577,23.1980406 L112.031577,26.2033739 C112.031577,27.1306203 111.089147,27.5944464 110.199939,27.5944464 C109.310731,27.5944464 108.367483,27.1306203 108.367483,26.2033739 L108.367483,23.1980406 Z" id="Fill-18" fill="#F79028" mask="url(#mask-4)"></path>
                        <path d="M113.884789,24.3966841 L114.506252,24.3966841 C115.266501,24.3966841 115.384407,24.0769159 115.384407,23.5092058 C115.384407,22.9341913 115.256266,22.6221333 114.452621,22.6221333 L113.884789,22.6221333 L113.884789,24.3966841 Z M112.791702,21.854771 L114.54883,21.854771 C115.844977,21.854771 116.477085,22.4224812 116.477085,23.5258435 C116.477085,24.1812058 116.230628,24.6604522 115.534246,24.9481623 L116.712897,27.5464812 L115.555944,27.5464812 L114.538185,25.1161623 L113.884789,25.1161623 L113.884789,27.5464812 L112.791702,27.5464812 L112.791702,21.854771 Z" id="Fill-19" fill="#F79028" mask="url(#mask-4)"></path>
                        <path d="M119.455195,23.4935826 L119.433497,23.4935826 L118.898007,25.5558435 L119.990685,25.5558435 L119.455195,23.4935826 Z M118.994215,21.8549739 L119.905121,21.8549739 L121.608617,27.5462783 L120.51553,27.5462783 L120.194564,26.3236116 L118.705181,26.3236116 L118.383805,27.5462783 L117.291128,27.5462783 L118.994215,21.8549739 Z" id="Fill-20" fill="#F79028" mask="url(#mask-4)"></path>
                        <path d="M20.4911282,4.25307826 L19.7513497,0.733194203 L15.6639403,0.733194203 L16.4037188,4.25307826 L20.4911282,4.25307826 Z M16.5719805,5.05533913 L19.4226047,18.6178899 L23.5100141,18.6178899 L20.6597993,5.05533913 L16.5719805,5.05533913 Z" id="Fill-21" fill="#F79028" mask="url(#mask-4)"></path>
                    </g>
                </g>
            </g>
        </g>
    </g>
</svg>