<?xml version="1.0" encoding="UTF-8"?>
<svg width="817px" height="70px" viewBox="0 0 817 70" version="1.1" xmlns="http://www.w3.org/2000/svg" xmlns:xlink="http://www.w3.org/1999/xlink">
    <title>proposal-register-steps-3</title>
    <g id="Design" stroke="none" stroke-width="1" fill="none" fill-rule="evenodd">
        <g id="Artboard" transform="translate(-292.000000, -156.000000)">
            <g id="proposal-register-steps-3" transform="translate(293.000000, 156.000000)">
                <g id="Group-2">
                    <circle id="Oval" stroke="#224D74" fill-opacity="0" fill="#FFFFFF" cx="32" cy="36" r="32"></circle>
                    <g id="Group-9" transform="translate(46.000000, 0.000000)">
                        <circle id="Oval" fill="#5AD800" cx="11" cy="11" r="11"></circle>
                        <path d="M10.0138998,14.8429003 L16.3389142,8.67427864 C16.5536953,8.46478855 16.5536953,8.12516006 16.3389142,7.91569043 L15.561112,7.15710222 C15.346331,6.94763259 14.9980698,6.94763259 14.7832887,7.15710222 L9.62499869,12.1878314 L7.21671125,9.8390992 C7.00193024,9.62960911 6.65366903,9.62960911 6.43888801,9.8390992 L5.66108576,10.5976874 C5.44630475,10.8071775 5.44630475,11.146806 5.66108576,11.3562756 L9.23609756,14.8428799 C9.45085759,15.05237 9.79909782,15.05237 10.0138998,14.8429003 Z" id="c" fill="#FFFFFF" fill-rule="nonzero"></path>
                    </g>
                    <path d="M79.98,44 L79.98,39.2 L81.86,39.2 C84.68,39.2 86.84,37.86 86.84,34.96 C86.84,31.92 84.68,30.92 81.78,30.92 L77.66,30.92 L77.66,44 L79.98,44 Z M81.68,37.34 L79.98,37.34 L79.98,32.78 L81.6,32.78 C83.54,32.78 84.56,33.32 84.56,34.96 C84.56,36.56 83.62,37.34 81.68,37.34 Z M91.4,44 L91.4,38 C92,36.52 92.94,35.98 93.72,35.98 C94.14,35.98 94.4,36.04 94.74,36.14 L95.14,34.14 C94.84,34 94.52,33.94 94.02,33.94 C92.98,33.94 91.94,34.64 91.24,35.92 L91.16,35.92 L91,34.18 L89.1,34.18 L89.1,44 L91.4,44 Z M100.2,32.54 L103.6,29.44 L102,27.92 L99.06,31.4 L100.2,32.54 Z M100.56,44.24 C101.8,44.24 102.98,43.8 103.92,43.18 L103.14,41.74 C102.42,42.2 101.7,42.46 100.86,42.46 C99.28,42.46 98.16,41.46 97.96,39.72 L104.2,39.72 C104.26,39.48 104.3,39.04 104.3,38.6 C104.3,35.86 102.9,33.94 100.24,33.94 C97.94,33.94 95.72,35.9 95.72,39.1 C95.72,42.34 97.84,44.24 100.56,44.24 Z M102.3,38.16 L97.94,38.16 C98.14,36.58 99.14,35.72 100.3,35.72 C101.64,35.72 102.3,36.64 102.3,38.16 Z M110.84,39.8 L110.84,38.12 L106.08,38.12 L106.08,39.8 L110.84,39.8 Z M115.66,44 L115.66,39.2 L117.54,39.2 C120.36,39.2 122.52,37.86 122.52,34.96 C122.52,31.92 120.36,30.92 117.46,30.92 L113.34,30.92 L113.34,44 L115.66,44 Z M117.36,37.34 L115.66,37.34 L115.66,32.78 L117.28,32.78 C119.22,32.78 120.24,33.32 120.24,34.96 C120.24,36.56 119.3,37.34 117.36,37.34 Z M127.08,44 L127.08,38 C127.68,36.52 128.62,35.98 129.4,35.98 C129.82,35.98 130.08,36.04 130.42,36.14 L130.82,34.14 C130.52,34 130.2,33.94 129.7,33.94 C128.66,33.94 127.62,34.64 126.92,35.92 L126.84,35.92 L126.68,34.18 L124.78,34.18 L124.78,44 L127.08,44 Z M136.06,44.24 C138.52,44.24 140.74,42.36 140.74,39.1 C140.74,35.82 138.52,33.94 136.06,33.94 C133.62,33.94 131.4,35.82 131.4,39.1 C131.4,42.36 133.62,44.24 136.06,44.24 Z M136.06,42.36 C134.62,42.36 133.76,41.06 133.76,39.1 C133.76,37.12 134.62,35.82 136.06,35.82 C137.5,35.82 138.38,37.12 138.38,39.1 C138.38,41.06 137.5,42.36 136.06,42.36 Z M145.32,47.88 L145.32,44.8 L145.26,43.16 C146.06,43.84 146.92,44.24 147.78,44.24 C149.96,44.24 151.98,42.3 151.98,38.94 C151.98,35.9 150.56,33.94 148.12,33.94 C147.04,33.94 145.98,34.52 145.16,35.22 L145.08,35.22 L144.92,34.18 L143.02,34.18 L143.02,47.88 L145.32,47.88 Z M147.3,42.34 C146.72,42.34 146.04,42.12 145.32,41.52 L145.32,36.94 C146.08,36.2 146.76,35.84 147.48,35.84 C148.96,35.84 149.6,37 149.6,38.96 C149.6,41.18 148.6,42.34 147.3,42.34 Z M158.32,44.24 C160.78,44.24 163,42.36 163,39.1 C163,35.82 160.78,33.94 158.32,33.94 C155.88,33.94 153.66,35.82 153.66,39.1 C153.66,42.36 155.88,44.24 158.32,44.24 Z M158.32,42.36 C156.88,42.36 156.02,41.06 156.02,39.1 C156.02,37.12 156.88,35.82 158.32,35.82 C159.76,35.82 160.64,37.12 160.64,39.1 C160.64,41.06 159.76,42.36 158.32,42.36 Z M167.94,44.24 C170.42,44.24 171.76,42.88 171.76,41.2 C171.76,39.36 170.28,38.72 168.94,38.22 C167.88,37.84 166.9,37.54 166.9,36.76 C166.9,36.14 167.36,35.68 168.34,35.68 C169.12,35.68 169.82,36.02 170.5,36.52 L171.56,35.12 C170.76,34.5 169.66,33.94 168.3,33.94 C166.1,33.94 164.72,35.16 164.72,36.88 C164.72,38.52 166.18,39.26 167.48,39.74 C168.52,40.14 169.58,40.5 169.58,41.32 C169.58,42 169.08,42.5 168.02,42.5 C167.02,42.5 166.18,42.08 165.3,41.4 L164.22,42.88 C165.18,43.66 166.6,44.24 167.94,44.24 Z M176.88,44.24 C177.66,44.24 178.34,44.06 178.88,43.88 L178.48,42.18 C178.2,42.3 177.8,42.4 177.46,42.4 C176.52,42.4 176.08,41.84 176.08,40.68 L176.08,36 L178.58,36 L178.58,34.18 L176.08,34.18 L176.08,31.5 L174.16,31.5 L173.88,34.18 L172.36,34.28 L172.36,36 L173.76,36 L173.76,40.68 C173.76,42.8 174.6,44.24 176.88,44.24 Z M182.6,44.24 C183.76,44.24 184.76,43.66 185.64,42.92 L185.72,42.92 L185.88,44 L187.78,44 L187.78,38.18 C187.78,35.44 186.56,33.94 184.12,33.94 C182.56,33.94 181.16,34.54 180.08,35.22 L180.92,36.76 C181.8,36.24 182.72,35.8 183.68,35.8 C185.02,35.8 185.44,36.68 185.48,37.72 C181.44,38.16 179.7,39.26 179.7,41.36 C179.7,43.08 180.88,44.24 182.6,44.24 Z M183.34,42.44 C182.52,42.44 181.92,42.06 181.92,41.18 C181.92,40.2 182.8,39.5 185.48,39.16 L185.48,41.36 C184.74,42.04 184.14,42.44 183.34,42.44 Z" id="Pré-Proposta" fill="#224D74" fill-rule="nonzero"></path>
                    <path d="M38.916,47 L38.916,43.992 L34.916,43.992 L34.916,26.648 L32.164,26.648 C30.884,27.416 29.476,27.928 27.46,28.312 L27.46,30.616 L31.204,30.616 L31.204,43.992 L26.66,43.992 L26.66,47 L38.916,47 Z" id="1" fill="#224D74" fill-rule="nonzero"></path>
                </g>
                <line x1="200" y1="36" x2="332.949219" y2="36" id="Path-2" stroke-opacity="0.24" stroke="#224D74" stroke-width="2" stroke-dasharray="5"></line>
                <g id="Group-2-Copy" transform="translate(341.000000, 0.000000)">
                    <circle id="Oval" stroke="#224D74" fill-opacity="0" fill="#FFFFFF" cx="32" cy="36" r="32"></circle>
                    <g id="Group-9" transform="translate(46.000000, 0.000000)">
                        <circle id="Oval" fill="#5AD800" cx="11" cy="11" r="11"></circle>
                        <path d="M10.0138998,14.8429003 L16.3389142,8.67427864 C16.5536953,8.46478855 16.5536953,8.12516006 16.3389142,7.91569043 L15.561112,7.15710222 C15.346331,6.94763259 14.9980698,6.94763259 14.7832887,7.15710222 L9.62499869,12.1878314 L7.21671125,9.8390992 C7.00193024,9.62960911 6.65366903,9.62960911 6.43888801,9.8390992 L5.66108576,10.5976874 C5.44630475,10.8071775 5.44630475,11.146806 5.66108576,11.3562756 L9.23609756,14.8428799 C9.45085759,15.05237 9.79909782,15.05237 10.0138998,14.8429003 Z" id="c" fill="#FFFFFF" fill-rule="nonzero"></path>
                    </g>
                    <path d="M79.98,44 L79.98,39.2 L81.86,39.2 C84.68,39.2 86.84,37.86 86.84,34.96 C86.84,31.92 84.68,30.92 81.78,30.92 L77.66,30.92 L77.66,44 L79.98,44 Z M81.68,37.34 L79.98,37.34 L79.98,32.78 L81.6,32.78 C83.54,32.78 84.56,33.32 84.56,34.96 C84.56,36.56 83.62,37.34 81.68,37.34 Z M91.4,44 L91.4,38 C92,36.52 92.94,35.98 93.72,35.98 C94.14,35.98 94.4,36.04 94.74,36.14 L95.14,34.14 C94.84,34 94.52,33.94 94.02,33.94 C92.98,33.94 91.94,34.64 91.24,35.92 L91.16,35.92 L91,34.18 L89.1,34.18 L89.1,44 L91.4,44 Z M100.38,44.24 C102.84,44.24 105.06,42.36 105.06,39.1 C105.06,35.82 102.84,33.94 100.38,33.94 C97.94,33.94 95.72,35.82 95.72,39.1 C95.72,42.36 97.94,44.24 100.38,44.24 Z M100.38,42.36 C98.94,42.36 98.08,41.06 98.08,39.1 C98.08,37.12 98.94,35.82 100.38,35.82 C101.82,35.82 102.7,37.12 102.7,39.1 C102.7,41.06 101.82,42.36 100.38,42.36 Z M109.64,47.88 L109.64,44.8 L109.58,43.16 C110.38,43.84 111.24,44.24 112.1,44.24 C114.28,44.24 116.3,42.3 116.3,38.94 C116.3,35.9 114.88,33.94 112.44,33.94 C111.36,33.94 110.3,34.52 109.48,35.22 L109.4,35.22 L109.24,34.18 L107.34,34.18 L107.34,47.88 L109.64,47.88 Z M111.62,42.34 C111.04,42.34 110.36,42.12 109.64,41.52 L109.64,36.94 C110.4,36.2 111.08,35.84 111.8,35.84 C113.28,35.84 113.92,37 113.92,38.96 C113.92,41.18 112.92,42.34 111.62,42.34 Z M122.64,44.24 C125.1,44.24 127.32,42.36 127.32,39.1 C127.32,35.82 125.1,33.94 122.64,33.94 C120.2,33.94 117.98,35.82 117.98,39.1 C117.98,42.36 120.2,44.24 122.64,44.24 Z M122.64,42.36 C121.2,42.36 120.34,41.06 120.34,39.1 C120.34,37.12 121.2,35.82 122.64,35.82 C124.08,35.82 124.96,37.12 124.96,39.1 C124.96,41.06 124.08,42.36 122.64,42.36 Z M132.26,44.24 C134.74,44.24 136.08,42.88 136.08,41.2 C136.08,39.36 134.6,38.72 133.26,38.22 C132.2,37.84 131.22,37.54 131.22,36.76 C131.22,36.14 131.68,35.68 132.66,35.68 C133.44,35.68 134.14,36.02 134.82,36.52 L135.88,35.12 C135.08,34.5 133.98,33.94 132.62,33.94 C130.42,33.94 129.04,35.16 129.04,36.88 C129.04,38.52 130.5,39.26 131.8,39.74 C132.84,40.14 133.9,40.5 133.9,41.32 C133.9,42 133.4,42.5 132.34,42.5 C131.34,42.5 130.5,42.08 129.62,41.4 L128.54,42.88 C129.5,43.66 130.92,44.24 132.26,44.24 Z M141.2,44.24 C141.98,44.24 142.66,44.06 143.2,43.88 L142.8,42.18 C142.52,42.3 142.12,42.4 141.78,42.4 C140.84,42.4 140.4,41.84 140.4,40.68 L140.4,36 L142.9,36 L142.9,34.18 L140.4,34.18 L140.4,31.5 L138.48,31.5 L138.2,34.18 L136.68,34.28 L136.68,36 L138.08,36 L138.08,40.68 C138.08,42.8 138.92,44.24 141.2,44.24 Z M146.92,44.24 C148.08,44.24 149.08,43.66 149.96,42.92 L150.04,42.92 L150.2,44 L152.1,44 L152.1,38.18 C152.1,35.44 150.88,33.94 148.44,33.94 C146.88,33.94 145.48,34.54 144.4,35.22 L145.24,36.76 C146.12,36.24 147.04,35.8 148,35.8 C149.34,35.8 149.76,36.68 149.8,37.72 C145.76,38.16 144.02,39.26 144.02,41.36 C144.02,43.08 145.2,44.24 146.92,44.24 Z M147.66,42.44 C146.84,42.44 146.24,42.06 146.24,41.18 C146.24,40.2 147.12,39.5 149.8,39.16 L149.8,41.36 C149.06,42.04 148.46,42.44 147.66,42.44 Z" id="Proposta" fill="#224D74" fill-rule="nonzero"></path>
                    <path d="M39.268,47 L39.268,43.864 L34.276,43.864 C33.284,43.864 31.94,43.992 30.884,44.088 C34.916,39.832 38.276,36.12 38.276,32.504 C38.276,28.728 35.748,26.264 31.844,26.264 C29.06,26.264 27.204,27.416 25.348,29.4 L27.396,31.448 C28.484,30.232 29.796,29.176 31.364,29.176 C33.54,29.176 34.724,30.552 34.724,32.696 C34.724,35.8 31.172,39.384 25.508,44.856 L25.508,47 L39.268,47 Z" id="2" fill="#224D74" fill-rule="nonzero"></path>
                </g>
                <g id="Group-2-Copy-2" transform="translate(650.000000, 4.000000)">
                    <circle id="Oval" stroke="#F79028" stroke-width="4" fill-opacity="0" fill="#FFFFFF" cx="32" cy="32" r="32"></circle>
                    <path d="M85.74,40 L85.74,38.04 L79.98,38.04 L79.98,34.18 L84.68,34.18 L84.68,32.22 L79.98,32.22 L79.98,28.88 L85.54,28.88 L85.54,26.92 L77.66,26.92 L77.66,40 L85.74,40 Z M90.92,40 L90.92,32 L92.84,32 L92.84,30.18 L90.92,30.18 L90.92,29.12 C90.92,27.98 91.36,27.46 92.16,27.46 C92.5,27.46 92.88,27.54 93.24,27.7 L93.68,25.98 C93.24,25.8 92.58,25.64 91.88,25.64 C89.56,25.64 88.62,27.12 88.62,29.16 L88.62,30.18 L87.3,30.28 L87.3,32 L88.62,32 L88.62,40 L90.92,40 Z M98.56,40.24 C99.8,40.24 100.98,39.8 101.92,39.18 L101.14,37.74 C100.42,38.2 99.7,38.46 98.86,38.46 C97.28,38.46 96.16,37.46 95.96,35.72 L102.2,35.72 C102.26,35.48 102.3,35.04 102.3,34.6 C102.3,31.86 100.9,29.94 98.24,29.94 C95.94,29.94 93.72,31.9 93.72,35.1 C93.72,38.34 95.84,40.24 98.56,40.24 Z M100.3,34.16 L95.94,34.16 C96.14,32.58 97.14,31.72 98.3,31.72 C99.64,31.72 100.3,32.64 100.3,34.16 Z M107.76,40.24 C108.54,40.24 109.22,40.06 109.76,39.88 L109.36,38.18 C109.08,38.3 108.68,38.4 108.34,38.4 C107.4,38.4 106.96,37.84 106.96,36.68 L106.96,32 L109.46,32 L109.46,30.18 L106.96,30.18 L106.96,27.5 L105.04,27.5 L104.76,30.18 L103.24,30.28 L103.24,32 L104.64,32 L104.64,36.68 C104.64,38.8 105.48,40.24 107.76,40.24 Z M112.68,28.46 C113.5,28.46 114.1,27.92 114.1,27.16 C114.1,26.38 113.5,25.84 112.68,25.84 C111.86,25.84 111.26,26.38 111.26,27.16 C111.26,27.92 111.86,28.46 112.68,28.46 Z M113.82,40 L113.82,30.18 L111.52,30.18 L111.52,40 L113.82,40 Z M121.62,40 L124.96,30.18 L122.74,30.18 L121.18,35.28 C120.9,36.24 120.62,37.24 120.34,38.24 L120.26,38.24 C120,37.24 119.7,36.24 119.44,35.28 L117.88,30.18 L115.54,30.18 L118.96,40 L121.62,40 Z M128.64,40.24 C129.8,40.24 130.8,39.66 131.68,38.92 L131.76,38.92 L131.92,40 L133.82,40 L133.82,34.18 C133.82,31.44 132.6,29.94 130.16,29.94 C128.6,29.94 127.2,30.54 126.12,31.22 L126.96,32.76 C127.84,32.24 128.76,31.8 129.72,31.8 C131.06,31.8 131.48,32.68 131.52,33.72 C127.48,34.16 125.74,35.26 125.74,37.36 C125.74,39.08 126.92,40.24 128.64,40.24 Z M129.38,38.44 C128.56,38.44 127.96,38.06 127.96,37.18 C127.96,36.2 128.84,35.5 131.52,35.16 L131.52,37.36 C130.78,38.04 130.18,38.44 129.38,38.44 Z M138.78,44.66 C141.08,44.56 142.4,43.96 142.4,42.7 C142.4,41.88 141.86,41.48 140.9,41.24 L141.36,40.18 C142.26,40.06 143.14,39.68 143.88,39.04 L142.94,37.52 C142.38,37.98 141.68,38.36 140.92,38.36 C139.38,38.36 138.3,37.06 138.3,35.1 C138.3,33.12 139.4,31.82 140.98,31.82 C141.6,31.82 142.1,32.08 142.62,32.54 L143.74,31.04 C143.02,30.42 142.12,29.94 140.86,29.94 C138.24,29.94 135.94,31.82 135.94,35.1 C135.94,38.06 137.64,39.88 139.96,40.2 L139.16,41.82 C140.34,41.98 140.7,42.26 140.7,42.72 C140.7,43.3 140.2,43.56 138.58,43.66 L138.78,44.66 Z M150.92,28.5 C152.38,28.5 153.12,27.42 153.18,25.62 L151.7,25.54 C151.62,26.38 151.38,26.88 150.9,26.88 C150.1,26.88 149.5,25.4 148.16,25.4 C146.7,25.4 145.96,26.46 145.9,28.28 L147.38,28.36 C147.46,27.5 147.7,27.02 148.2,27.02 C148.98,27.02 149.58,28.5 150.92,28.5 Z M148,40.24 C149.16,40.24 150.16,39.66 151.04,38.92 L151.12,38.92 L151.28,40 L153.18,40 L153.18,34.18 C153.18,31.44 151.96,29.94 149.52,29.94 C147.96,29.94 146.56,30.54 145.48,31.22 L146.32,32.76 C147.2,32.24 148.12,31.8 149.08,31.8 C150.42,31.8 150.84,32.68 150.88,33.72 C146.84,34.16 145.1,35.26 145.1,37.36 C145.1,39.08 146.28,40.24 148,40.24 Z M148.74,38.44 C147.92,38.44 147.32,38.06 147.32,37.18 C147.32,36.2 148.2,35.5 150.88,35.16 L150.88,37.36 C150.14,38.04 149.54,38.44 148.74,38.44 Z M159.96,40.24 C162.42,40.24 164.64,38.36 164.64,35.1 C164.64,31.82 162.42,29.94 159.96,29.94 C157.52,29.94 155.3,31.82 155.3,35.1 C155.3,38.36 157.52,40.24 159.96,40.24 Z M159.96,38.36 C158.52,38.36 157.66,37.06 157.66,35.1 C157.66,33.12 158.52,31.82 159.96,31.82 C161.4,31.82 162.28,33.12 162.28,35.1 C162.28,37.06 161.4,38.36 159.96,38.36 Z" id="Efetivação" fill="#F79028" fill-rule="nonzero"></path>
                    <path d="M31.972,43.384 C35.876,43.384 39.108,41.208 39.108,37.496 C39.108,34.808 37.284,33.08 34.884,32.44 L34.884,32.312 C37.092,31.448 38.436,29.912 38.436,27.64 C38.436,24.184 35.748,22.264 31.844,22.264 C29.412,22.264 27.46,23.288 25.732,24.824 L27.62,27.096 C28.868,25.944 30.116,25.176 31.716,25.176 C33.572,25.176 34.724,26.2 34.724,27.896 C34.724,29.784 33.412,31.16 29.412,31.16 L29.412,33.848 C34.052,33.848 35.396,35.192 35.396,37.304 C35.396,39.224 33.86,40.376 31.652,40.376 C29.604,40.376 28.036,39.384 26.82,38.136 L25.06,40.504 C26.5,42.104 28.676,43.384 31.972,43.384 Z" id="3" fill="#F79028" fill-rule="nonzero"></path>
                </g>
                <line x1="505" y1="36" x2="640.910156" y2="36" id="Path-2-Copy" stroke-opacity="0.24" stroke="#224D74" stroke-width="2" stroke-dasharray="5"></line>
            </g>
        </g>
    </g>
</svg>